<ttFont>
    <TTGlyph name="A" xMin="38" yMin="0" xMax="789" yMax="718">
      <contour>
        <pt x="768" y="0" on="1"/>
        <pt x="542" y="0" on="1"/>
        <pt x="530" y="0" on="0"/>
        <pt x="532" y="12" on="1"/>
        <pt x="539" y="63" on="1"/>
        <pt x="540" y="75" on="0"/>
        <pt x="553" y="75" on="1"/>
        <pt x="622" y="75" on="1"/>
        <pt x="582" y="248" on="1"/>
        <pt x="303" y="248" on="1"/>
        <pt x="214" y="75" on="1"/>
        <pt x="284" y="75" on="1"/>
        <pt x="297" y="75" on="0"/>
        <pt x="294" y="63" on="1"/>
        <pt x="287" y="12" on="1"/>
        <pt x="286" y="0" on="0"/>
        <pt x="273" y="0" on="1"/>
        <pt x="48" y="0" on="1"/>
        <pt x="36" y="0" on="0"/>
        <pt x="38" y="12" on="1"/>
        <pt x="45" y="63" on="1"/>
        <pt x="46" y="75" on="0"/>
        <pt x="59" y="75" on="1"/>
        <pt x="126" y="75" on="1"/>
        <pt x="421" y="643" on="1"/>
        <pt x="366" y="643" on="1"/>
        <pt x="354" y="643" on="0"/>
        <pt x="356" y="655" on="1"/>
        <pt x="363" y="706" on="1"/>
        <pt x="364" y="718" on="0"/>
        <pt x="377" y="718" on="1"/>
        <pt x="513" y="718" on="1"/>
        <pt x="537" y="718" on="0"/>
        <pt x="560" y="698" on="0"/>
        <pt x="566" y="675" on="1"/>
        <pt x="711" y="75" on="1"/>
        <pt x="778" y="75" on="1"/>
        <pt x="790" y="75" on="0"/>
        <pt x="789" y="63" on="1"/>
        <pt x="782" y="12" on="1"/>
        <pt x="780" y="0" on="0"/>
      </contour>
      <contour>
        <pt x="566" y="317" on="1"/>
        <pt x="496" y="614" on="1"/>
        <pt x="492" y="614" on="1"/>
        <pt x="340" y="317" on="1"/>
      </contour>
    </TTGlyph>
    <TTGlyph name="AE" xMin="50" yMin="0" xMax="1096" yMax="718">
      <contour>
        <pt x="984" y="0" on="1"/>
        <pt x="452" y="0" on="1"/>
        <pt x="440" y="0" on="0"/>
        <pt x="442" y="12" on="1"/>
        <pt x="449" y="63" on="1"/>
        <pt x="450" y="75" on="0"/>
        <pt x="463" y="75" on="1"/>
        <pt x="539" y="75" on="1"/>
        <pt x="574" y="320" on="1"/>
        <pt x="366" y="320" on="1"/>
        <pt x="226" y="75" on="1"/>
        <pt x="296" y="75" on="1"/>
        <pt x="308" y="75" on="0"/>
        <pt x="307" y="63" on="1"/>
        <pt x="300" y="12" on="1"/>
        <pt x="298" y="0" on="0"/>
        <pt x="285" y="0" on="1"/>
        <pt x="61" y="0" on="1"/>
        <pt x="48" y="0" on="0"/>
        <pt x="50" y="12" on="1"/>
        <pt x="57" y="63" on="1"/>
        <pt x="58" y="75" on="0"/>
        <pt x="71" y="75" on="1"/>
        <pt x="139" y="75" on="1"/>
        <pt x="460" y="643" on="1"/>
        <pt x="406" y="643" on="1"/>
        <pt x="394" y="643" on="0"/>
        <pt x="396" y="655" on="1"/>
        <pt x="403" y="706" on="1"/>
        <pt x="404" y="718" on="0"/>
        <pt x="416" y="718" on="1"/>
        <pt x="1085" y="718" on="1"/>
        <pt x="1098" y="718" on="0"/>
        <pt x="1096" y="706" on="1"/>
        <pt x="1073" y="545" on="1"/>
        <pt x="1071" y="532" on="0"/>
        <pt x="1059" y="532" on="1"/>
        <pt x="1005" y="532" on="1"/>
        <pt x="992" y="532" on="0"/>
        <pt x="994" y="545" on="1"/>
        <pt x="1008" y="643" on="1"/>
        <pt x="706" y="643" on="1"/>
        <pt x="671" y="395" on="1"/>
        <pt x="925" y="395" on="1"/>
        <pt x="938" y="395" on="0"/>
        <pt x="936" y="383" on="1"/>
        <pt x="929" y="332" on="1"/>
        <pt x="928" y="320" on="0"/>
        <pt x="914" y="320" on="1"/>
        <pt x="661" y="320" on="1"/>
        <pt x="626" y="75" on="1"/>
        <pt x="928" y="75" on="1"/>
        <pt x="941" y="173" on="1"/>
        <pt x="944" y="185" on="0"/>
        <pt x="956" y="185" on="1"/>
        <pt x="1010" y="185" on="1"/>
        <pt x="1022" y="185" on="0"/>
        <pt x="1021" y="173" on="1"/>
        <pt x="998" y="12" on="1"/>
        <pt x="996" y="0" on="0"/>
      </contour>
      <contour>
        <pt x="584" y="395" on="1"/>
        <pt x="619" y="643" on="1"/>
        <pt x="548" y="643" on="1"/>
        <pt x="406" y="395" on="1"/>
      </contour>
    </TTGlyph>
    <TTGlyph name="AEacute" xMin="50" yMin="0" xMax="1096" yMax="995">
      <contour>
        <pt x="894" y="932" on="1"/>
        <pt x="708" y="798" on="1"/>
        <pt x="695" y="791" on="0"/>
        <pt x="688" y="801" on="1"/>
        <pt x="668" y="830" on="1"/>
        <pt x="660" y="839" on="0"/>
        <pt x="673" y="849" on="1"/>
        <pt x="853" y="990" on="1"/>
        <pt x="858" y="994" on="0"/>
        <pt x="862" y="994" on="1"/>
        <pt x="873" y="989" on="1"/>
        <pt x="898" y="951" on="1"/>
        <pt x="906" y="942" on="0"/>
      </contour>
      <contour>
        <pt x="984" y="0" on="1"/>
        <pt x="452" y="0" on="1"/>
        <pt x="440" y="0" on="0"/>
        <pt x="442" y="12" on="1"/>
        <pt x="449" y="63" on="1"/>
        <pt x="450" y="75" on="0"/>
        <pt x="463" y="75" on="1"/>
        <pt x="539" y="75" on="1"/>
        <pt x="574" y="320" on="1"/>
        <pt x="366" y="320" on="1"/>
        <pt x="226" y="75" on="1"/>
        <pt x="296" y="75" on="1"/>
        <pt x="308" y="75" on="0"/>
        <pt x="307" y="63" on="1"/>
        <pt x="300" y="12" on="1"/>
        <pt x="298" y="0" on="0"/>
        <pt x="285" y="0" on="1"/>
        <pt x="61" y="0" on="1"/>
        <pt x="48" y="0" on="0"/>
        <pt x="50" y="12" on="1"/>
        <pt x="57" y="63" on="1"/>
        <pt x="58" y="75" on="0"/>
        <pt x="71" y="75" on="1"/>
        <pt x="139" y="75" on="1"/>
        <pt x="460" y="643" on="1"/>
        <pt x="406" y="643" on="1"/>
        <pt x="394" y="643" on="0"/>
        <pt x="396" y="655" on="1"/>
        <pt x="403" y="706" on="1"/>
        <pt x="404" y="718" on="0"/>
        <pt x="416" y="718" on="1"/>
        <pt x="1085" y="718" on="1"/>
        <pt x="1098" y="718" on="0"/>
        <pt x="1096" y="706" on="1"/>
        <pt x="1073" y="545" on="1"/>
        <pt x="1071" y="532" on="0"/>
        <pt x="1059" y="532" on="1"/>
        <pt x="1005" y="532" on="1"/>
        <pt x="992" y="532" on="0"/>
        <pt x="994" y="545" on="1"/>
        <pt x="1008" y="643" on="1"/>
        <pt x="706" y="643" on="1"/>
        <pt x="671" y="395" on="1"/>
        <pt x="925" y="395" on="1"/>
        <pt x="938" y="395" on="0"/>
        <pt x="936" y="383" on="1"/>
        <pt x="929" y="332" on="1"/>
        <pt x="928" y="320" on="0"/>
        <pt x="914" y="320" on="1"/>
        <pt x="661" y="320" on="1"/>
        <pt x="626" y="75" on="1"/>
        <pt x="928" y="75" on="1"/>
        <pt x="941" y="173" on="1"/>
        <pt x="944" y="185" on="0"/>
        <pt x="956" y="185" on="1"/>
        <pt x="1010" y="185" on="1"/>
        <pt x="1022" y="185" on="0"/>
        <pt x="1021" y="173" on="1"/>
        <pt x="998" y="12" on="1"/>
        <pt x="996" y="0" on="0"/>
      </contour>
      <contour>
        <pt x="584" y="395" on="1"/>
        <pt x="619" y="643" on="1"/>
        <pt x="548" y="643" on="1"/>
        <pt x="406" y="395" on="1"/>
      </contour>
    </TTGlyph>
    <TTGlyph name="Aacute" xMin="38" yMin="0" xMax="789" yMax="995">
      <contour>
        <pt x="768" y="0" on="1"/>
        <pt x="542" y="0" on="1"/>
        <pt x="530" y="0" on="0"/>
        <pt x="532" y="12" on="1"/>
        <pt x="539" y="63" on="1"/>
        <pt x="540" y="75" on="0"/>
        <pt x="553" y="75" on="1"/>
        <pt x="622" y="75" on="1"/>
        <pt x="582" y="248" on="1"/>
        <pt x="303" y="248" on="1"/>
        <pt x="214" y="75" on="1"/>
        <pt x="284" y="75" on="1"/>
        <pt x="297" y="75" on="0"/>
        <pt x="294" y="63" on="1"/>
        <pt x="287" y="12" on="1"/>
        <pt x="286" y="0" on="0"/>
        <pt x="273" y="0" on="1"/>
        <pt x="48" y="0" on="1"/>
        <pt x="36" y="0" on="0"/>
        <pt x="38" y="12" on="1"/>
        <pt x="45" y="63" on="1"/>
        <pt x="46" y="75" on="0"/>
        <pt x="59" y="75" on="1"/>
        <pt x="126" y="75" on="1"/>
        <pt x="421" y="643" on="1"/>
        <pt x="366" y="643" on="1"/>
        <pt x="354" y="643" on="0"/>
        <pt x="356" y="655" on="1"/>
        <pt x="363" y="706" on="1"/>
        <pt x="364" y="718" on="0"/>
        <pt x="377" y="718" on="1"/>
        <pt x="513" y="718" on="1"/>
        <pt x="537" y="718" on="0"/>
        <pt x="560" y="698" on="0"/>
        <pt x="566" y="675" on="1"/>
        <pt x="711" y="75" on="1"/>
        <pt x="778" y="75" on="1"/>
        <pt x="790" y="75" on="0"/>
        <pt x="789" y="63" on="1"/>
        <pt x="782" y="12" on="1"/>
        <pt x="780" y="0" on="0"/>
      </contour>
      <contour>
        <pt x="566" y="317" on="1"/>
        <pt x="496" y="614" on="1"/>
        <pt x="492" y="614" on="1"/>
        <pt x="340" y="317" on="1"/>
      </contour>
      <contour>
        <pt x="516" y="798" on="1"/>
        <pt x="511" y="795" on="0"/>
        <pt x="500" y="795" on="0"/>
        <pt x="496" y="801" on="1"/>
        <pt x="476" y="830" on="1"/>
        <pt x="473" y="833" on="0"/>
        <pt x="473" y="843" on="0"/>
        <pt x="481" y="849" on="1"/>
        <pt x="661" y="990" on="1"/>
        <pt x="666" y="994" on="0"/>
        <pt x="670" y="994" on="1"/>
        <pt x="681" y="989" on="1"/>
        <pt x="706" y="951" on="1"/>
        <pt x="709" y="947" on="0"/>
        <pt x="709" y="938" on="0"/>
        <pt x="702" y="932" on="1"/>
      </contour>
    </TTGlyph>
    <TTGlyph name="Abreve" xMin="38" yMin="0" xMax="789" yMax="941">
      <contour>
        <pt x="768" y="0" on="1"/>
        <pt x="542" y="0" on="1"/>
        <pt x="530" y="0" on="0"/>
        <pt x="532" y="12" on="1"/>
        <pt x="539" y="63" on="1"/>
        <pt x="540" y="75" on="0"/>
        <pt x="553" y="75" on="1"/>
        <pt x="622" y="75" on="1"/>
        <pt x="582" y="248" on="1"/>
        <pt x="303" y="248" on="1"/>
        <pt x="214" y="75" on="1"/>
        <pt x="284" y="75" on="1"/>
        <pt x="297" y="75" on="0"/>
        <pt x="294" y="63" on="1"/>
        <pt x="287" y="12" on="1"/>
        <pt x="286" y="0" on="0"/>
        <pt x="273" y="0" on="1"/>
        <pt x="48" y="0" on="1"/>
        <pt x="36" y="0" on="0"/>
        <pt x="38" y="12" on="1"/>
        <pt x="45" y="63" on="1"/>
        <pt x="46" y="75" on="0"/>
        <pt x="59" y="75" on="1"/>
        <pt x="126" y="75" on="1"/>
        <pt x="421" y="643" on="1"/>
        <pt x="366" y="643" on="1"/>
        <pt x="354" y="643" on="0"/>
        <pt x="356" y="655" on="1"/>
        <pt x="363" y="706" on="1"/>
        <pt x="364" y="718" on="0"/>
        <pt x="377" y="718" on="1"/>
        <pt x="513" y="718" on="1"/>
        <pt x="537" y="718" on="0"/>
        <pt x="560" y="698" on="0"/>
        <pt x="566" y="675" on="1"/>
        <pt x="711" y="75" on="1"/>
        <pt x="778" y="75" on="1"/>
        <pt x="790" y="75" on="0"/>
        <pt x="789" y="63" on="1"/>
        <pt x="782" y="12" on="1"/>
        <pt x="780" y="0" on="0"/>
      </contour>
      <contour>
        <pt x="566" y="317" on="1"/>
        <pt x="496" y="614" on="1"/>
        <pt x="492" y="614" on="1"/>
        <pt x="340" y="317" on="1"/>
      </contour>
      <contour>
        <pt x="631" y="941" on="1"/>
        <pt x="662" y="941" on="1"/>
        <pt x="674" y="941" on="0"/>
        <pt x="674" y="930" on="1"/>
        <pt x="674" y="867" on="0"/>
        <pt x="582" y="789" on="0"/>
        <pt x="458" y="789" on="0"/>
        <pt x="392" y="849" on="0"/>
        <pt x="392" y="906" on="1"/>
        <pt x="392" y="941" on="0"/>
        <pt x="409" y="941" on="1"/>
        <pt x="441" y="941" on="1"/>
        <pt x="451" y="941" on="0"/>
        <pt x="451" y="880" on="0"/>
        <pt x="490" y="840" on="0"/>
        <pt x="555" y="840" on="0"/>
        <pt x="609" y="887" on="0"/>
        <pt x="615" y="928" on="1"/>
        <pt x="617" y="941" on="0"/>
      </contour>
    </TTGlyph>
    <TTGlyph name="Acircumflex" xMin="38" yMin="0" xMax="789" yMax="989">
      <contour>
        <pt x="768" y="0" on="1"/>
        <pt x="542" y="0" on="1"/>
        <pt x="530" y="0" on="0"/>
        <pt x="532" y="12" on="1"/>
        <pt x="539" y="63" on="1"/>
        <pt x="540" y="75" on="0"/>
        <pt x="553" y="75" on="1"/>
        <pt x="622" y="75" on="1"/>
        <pt x="582" y="248" on="1"/>
        <pt x="303" y="248" on="1"/>
        <pt x="214" y="75" on="1"/>
        <pt x="284" y="75" on="1"/>
        <pt x="297" y="75" on="0"/>
        <pt x="294" y="63" on="1"/>
        <pt x="287" y="12" on="1"/>
        <pt x="286" y="0" on="0"/>
        <pt x="273" y="0" on="1"/>
        <pt x="48" y="0" on="1"/>
        <pt x="36" y="0" on="0"/>
        <pt x="38" y="12" on="1"/>
        <pt x="45" y="63" on="1"/>
        <pt x="46" y="75" on="0"/>
        <pt x="59" y="75" on="1"/>
        <pt x="126" y="75" on="1"/>
        <pt x="421" y="643" on="1"/>
        <pt x="366" y="643" on="1"/>
        <pt x="354" y="643" on="0"/>
        <pt x="356" y="655" on="1"/>
        <pt x="363" y="706" on="1"/>
        <pt x="364" y="718" on="0"/>
        <pt x="377" y="718" on="1"/>
        <pt x="513" y="718" on="1"/>
        <pt x="537" y="718" on="0"/>
        <pt x="560" y="698" on="0"/>
        <pt x="566" y="675" on="1"/>
        <pt x="711" y="75" on="1"/>
        <pt x="778" y="75" on="1"/>
        <pt x="790" y="75" on="0"/>
        <pt x="789" y="63" on="1"/>
        <pt x="782" y="12" on="1"/>
        <pt x="780" y="0" on="0"/>
      </contour>
      <contour>
        <pt x="566" y="317" on="1"/>
        <pt x="496" y="614" on="1"/>
        <pt x="492" y="614" on="1"/>
        <pt x="340" y="317" on="1"/>
      </contour>
      <contour>
        <pt x="661" y="801" on="1"/>
        <pt x="655" y="795" on="0"/>
        <pt x="646" y="795" on="0"/>
        <pt x="642" y="799" on="1"/>
        <pt x="533" y="904" on="1"/>
        <pt x="396" y="799" on="1"/>
        <pt x="391" y="795" on="0"/>
        <pt x="381" y="795" on="0"/>
        <pt x="377" y="801" on="1"/>
        <pt x="356" y="830" on="1"/>
        <pt x="353" y="834" on="0"/>
        <pt x="353" y="843" on="0"/>
        <pt x="361" y="849" on="1"/>
        <pt x="535" y="985" on="1"/>
        <pt x="540" y="989" on="0"/>
        <pt x="551" y="989" on="0"/>
        <pt x="555" y="984" on="1"/>
        <pt x="690" y="849" on="1"/>
        <pt x="694" y="844" on="0"/>
        <pt x="694" y="835" on="0"/>
        <pt x="690" y="830" on="1"/>
      </contour>
    </TTGlyph>
    <TTGlyph name="Adieresis" xMin="38" yMin="0" xMax="789" yMax="867">
      <contour>
        <pt x="768" y="0" on="1"/>
        <pt x="542" y="0" on="1"/>
        <pt x="530" y="0" on="0"/>
        <pt x="532" y="12" on="1"/>
        <pt x="539" y="63" on="1"/>
        <pt x="540" y="75" on="0"/>
        <pt x="553" y="75" on="1"/>
        <pt x="622" y="75" on="1"/>
        <pt x="582" y="248" on="1"/>
        <pt x="303" y="248" on="1"/>
        <pt x="214" y="75" on="1"/>
        <pt x="284" y="75" on="1"/>
        <pt x="297" y="75" on="0"/>
        <pt x="294" y="63" on="1"/>
        <pt x="287" y="12" on="1"/>
        <pt x="286" y="0" on="0"/>
        <pt x="273" y="0" on="1"/>
        <pt x="48" y="0" on="1"/>
        <pt x="36" y="0" on="0"/>
        <pt x="38" y="12" on="1"/>
        <pt x="45" y="63" on="1"/>
        <pt x="46" y="75" on="0"/>
        <pt x="59" y="75" on="1"/>
        <pt x="126" y="75" on="1"/>
        <pt x="421" y="643" on="1"/>
        <pt x="366" y="643" on="1"/>
        <pt x="354" y="643" on="0"/>
        <pt x="356" y="655" on="1"/>
        <pt x="363" y="706" on="1"/>
        <pt x="364" y="718" on="0"/>
        <pt x="377" y="718" on="1"/>
        <pt x="513" y="718" on="1"/>
        <pt x="537" y="718" on="0"/>
        <pt x="560" y="698" on="0"/>
        <pt x="566" y="675" on="1"/>
        <pt x="711" y="75" on="1"/>
        <pt x="778" y="75" on="1"/>
        <pt x="790" y="75" on="0"/>
        <pt x="789" y="63" on="1"/>
        <pt x="782" y="12" on="1"/>
        <pt x="780" y="0" on="0"/>
      </contour>
      <contour>
        <pt x="566" y="317" on="1"/>
        <pt x="496" y="614" on="1"/>
        <pt x="492" y="614" on="1"/>
        <pt x="340" y="317" on="1"/>
      </contour>
      <contour>
        <pt x="465" y="867" on="0"/>
        <pt x="486" y="845" on="0"/>
        <pt x="486" y="810" on="0"/>
        <pt x="457" y="782" on="0"/>
        <pt x="421" y="782" on="0"/>
        <pt x="401" y="802" on="0"/>
        <pt x="401" y="838" on="0"/>
        <pt x="430" y="867" on="0"/>
      </contour>
      <contour>
        <pt x="623" y="867" on="0"/>
        <pt x="644" y="845" on="0"/>
        <pt x="644" y="810" on="0"/>
        <pt x="615" y="782" on="0"/>
        <pt x="579" y="782" on="0"/>
        <pt x="559" y="802" on="0"/>
        <pt x="559" y="838" on="0"/>
        <pt x="588" y="867" on="0"/>
      </contour>
    </TTGlyph>
    <TTGlyph name="Agrave" xMin="38" yMin="0" xMax="789" yMax="996">
      <contour>
        <pt x="768" y="0" on="1"/>
        <pt x="542" y="0" on="1"/>
        <pt x="530" y="0" on="0"/>
        <pt x="532" y="12" on="1"/>
        <pt x="539" y="63" on="1"/>
        <pt x="540" y="75" on="0"/>
        <pt x="553" y="75" on="1"/>
        <pt x="622" y="75" on="1"/>
        <pt x="582" y="248" on="1"/>
        <pt x="303" y="248" on="1"/>
        <pt x="214" y="75" on="1"/>
        <pt x="284" y="75" on="1"/>
        <pt x="297" y="75" on="0"/>
        <pt x="294" y="63" on="1"/>
        <pt x="287" y="12" on="1"/>
        <pt x="286" y="0" on="0"/>
        <pt x="273" y="0" on="1"/>
        <pt x="48" y="0" on="1"/>
        <pt x="36" y="0" on="0"/>
        <pt x="38" y="12" on="1"/>
        <pt x="45" y="63" on="1"/>
        <pt x="46" y="75" on="0"/>
        <pt x="59" y="75" on="1"/>
        <pt x="126" y="75" on="1"/>
        <pt x="421" y="643" on="1"/>
        <pt x="366" y="643" on="1"/>
        <pt x="354" y="643" on="0"/>
        <pt x="356" y="655" on="1"/>
        <pt x="363" y="706" on="1"/>
        <pt x="364" y="718" on="0"/>
        <pt x="377" y="718" on="1"/>
        <pt x="513" y="718" on="1"/>
        <pt x="537" y="718" on="0"/>
        <pt x="560" y="698" on="0"/>
        <pt x="566" y="675" on="1"/>
        <pt x="711" y="75" on="1"/>
        <pt x="778" y="75" on="1"/>
        <pt x="790" y="75" on="0"/>
        <pt x="789" y="63" on="1"/>
        <pt x="782" y="12" on="1"/>
        <pt x="780" y="0" on="0"/>
      </contour>
      <contour>
        <pt x="566" y="317" on="1"/>
        <pt x="496" y="614" on="1"/>
        <pt x="492" y="614" on="1"/>
        <pt x="340" y="317" on="1"/>
      </contour>
      <contour>
        <pt x="583" y="801" on="1"/>
        <pt x="578" y="795" on="0"/>
        <pt x="568" y="795" on="0"/>
        <pt x="564" y="799" on="1"/>
        <pt x="415" y="933" on="1"/>
        <pt x="411" y="937" on="0"/>
        <pt x="411" y="946" on="0"/>
        <pt x="417" y="952" on="1"/>
        <pt x="453" y="989" on="1"/>
        <pt x="458" y="995" on="0"/>
        <pt x="468" y="995" on="0"/>
        <pt x="473" y="991" on="1"/>
        <pt x="613" y="849" on="1"/>
        <pt x="618" y="844" on="0"/>
        <pt x="618" y="835" on="0"/>
        <pt x="613" y="830" on="1"/>
      </contour>
    </TTGlyph>
    <TTGlyph name="Amacron" xMin="38" yMin="0" xMax="789" yMax="849">
      <contour>
        <pt x="768" y="0" on="1"/>
        <pt x="542" y="0" on="1"/>
        <pt x="530" y="0" on="0"/>
        <pt x="532" y="12" on="1"/>
        <pt x="539" y="63" on="1"/>
        <pt x="540" y="75" on="0"/>
        <pt x="553" y="75" on="1"/>
        <pt x="622" y="75" on="1"/>
        <pt x="582" y="248" on="1"/>
        <pt x="303" y="248" on="1"/>
        <pt x="214" y="75" on="1"/>
        <pt x="284" y="75" on="1"/>
        <pt x="297" y="75" on="0"/>
        <pt x="294" y="63" on="1"/>
        <pt x="287" y="12" on="1"/>
        <pt x="286" y="0" on="0"/>
        <pt x="273" y="0" on="1"/>
        <pt x="48" y="0" on="1"/>
        <pt x="36" y="0" on="0"/>
        <pt x="38" y="12" on="1"/>
        <pt x="45" y="63" on="1"/>
        <pt x="46" y="75" on="0"/>
        <pt x="59" y="75" on="1"/>
        <pt x="126" y="75" on="1"/>
        <pt x="421" y="643" on="1"/>
        <pt x="366" y="643" on="1"/>
        <pt x="354" y="643" on="0"/>
        <pt x="356" y="655" on="1"/>
        <pt x="363" y="706" on="1"/>
        <pt x="364" y="718" on="0"/>
        <pt x="377" y="718" on="1"/>
        <pt x="513" y="718" on="1"/>
        <pt x="537" y="718" on="0"/>
        <pt x="560" y="698" on="0"/>
        <pt x="566" y="675" on="1"/>
        <pt x="711" y="75" on="1"/>
        <pt x="778" y="75" on="1"/>
        <pt x="790" y="75" on="0"/>
        <pt x="789" y="63" on="1"/>
        <pt x="782" y="12" on="1"/>
        <pt x="780" y="0" on="0"/>
      </contour>
      <contour>
        <pt x="566" y="317" on="1"/>
        <pt x="496" y="614" on="1"/>
        <pt x="492" y="614" on="1"/>
        <pt x="340" y="317" on="1"/>
      </contour>
      <contour>
        <pt x="659" y="780" on="1"/>
        <pt x="364" y="780" on="1"/>
        <pt x="351" y="780" on="0"/>
        <pt x="353" y="793" on="1"/>
        <pt x="359" y="835" on="1"/>
        <pt x="361" y="849" on="0"/>
        <pt x="374" y="849" on="1"/>
        <pt x="669" y="849" on="1"/>
        <pt x="683" y="849" on="0"/>
        <pt x="681" y="835" on="1"/>
        <pt x="675" y="793" on="1"/>
        <pt x="673" y="780" on="0"/>
      </contour>
    </TTGlyph>
    <TTGlyph name="Aogonek" xMin="38" yMin="-161" xMax="789" yMax="718">
      <contour>
        <pt x="757" y="-137" on="1"/>
        <pt x="715" y="-161" on="0"/>
        <pt x="648" y="-161" on="0"/>
        <pt x="609" y="-127" on="0"/>
        <pt x="609" y="-62" on="0"/>
        <pt x="662" y="-11" on="0"/>
        <pt x="692" y="0" on="1"/>
        <pt x="542" y="0" on="1"/>
        <pt x="530" y="0" on="0"/>
        <pt x="532" y="12" on="1"/>
        <pt x="539" y="63" on="1"/>
        <pt x="540" y="75" on="0"/>
        <pt x="553" y="75" on="1"/>
        <pt x="622" y="75" on="1"/>
        <pt x="582" y="248" on="1"/>
        <pt x="303" y="248" on="1"/>
        <pt x="214" y="75" on="1"/>
        <pt x="284" y="75" on="1"/>
        <pt x="297" y="75" on="0"/>
        <pt x="294" y="63" on="1"/>
        <pt x="287" y="12" on="1"/>
        <pt x="286" y="0" on="0"/>
        <pt x="273" y="0" on="1"/>
        <pt x="48" y="0" on="1"/>
        <pt x="36" y="0" on="0"/>
        <pt x="38" y="12" on="1"/>
        <pt x="45" y="63" on="1"/>
        <pt x="46" y="75" on="0"/>
        <pt x="59" y="75" on="1"/>
        <pt x="126" y="75" on="1"/>
        <pt x="421" y="643" on="1"/>
        <pt x="366" y="643" on="1"/>
        <pt x="354" y="643" on="0"/>
        <pt x="356" y="655" on="1"/>
        <pt x="363" y="706" on="1"/>
        <pt x="364" y="718" on="0"/>
        <pt x="377" y="718" on="1"/>
        <pt x="513" y="718" on="1"/>
        <pt x="537" y="718" on="0"/>
        <pt x="560" y="698" on="0"/>
        <pt x="566" y="675" on="1"/>
        <pt x="711" y="75" on="1"/>
        <pt x="778" y="75" on="1"/>
        <pt x="790" y="75" on="0"/>
        <pt x="789" y="63" on="1"/>
        <pt x="782" y="12" on="1"/>
        <pt x="780" y="0" on="0"/>
        <pt x="768" y="0" on="1"/>
        <pt x="744" y="0" on="1"/>
        <pt x="662" y="-41" on="0"/>
        <pt x="662" y="-87" on="1"/>
        <pt x="662" y="-116" on="0"/>
        <pt x="696" y="-116" on="1"/>
        <pt x="717" y="-116" on="0"/>
        <pt x="737" y="-105" on="1"/>
        <pt x="752" y="-99" on="0"/>
        <pt x="755" y="-107" on="1"/>
        <pt x="762" y="-120" on="1"/>
        <pt x="766" y="-131" on="0"/>
      </contour>
      <contour>
        <pt x="566" y="317" on="1"/>
        <pt x="496" y="614" on="1"/>
        <pt x="492" y="614" on="1"/>
        <pt x="340" y="317" on="1"/>
      </contour>
    </TTGlyph>
    <TTGlyph name="Aring" xMin="38" yMin="0" xMax="789" yMax="917">
      <contour>
        <pt x="768" y="0" on="1"/>
        <pt x="542" y="0" on="1"/>
        <pt x="530" y="0" on="0"/>
        <pt x="532" y="12" on="1"/>
        <pt x="539" y="63" on="1"/>
        <pt x="540" y="75" on="0"/>
        <pt x="553" y="75" on="1"/>
        <pt x="622" y="75" on="1"/>
        <pt x="582" y="248" on="1"/>
        <pt x="303" y="248" on="1"/>
        <pt x="214" y="75" on="1"/>
        <pt x="284" y="75" on="1"/>
        <pt x="297" y="75" on="0"/>
        <pt x="294" y="63" on="1"/>
        <pt x="287" y="12" on="1"/>
        <pt x="286" y="0" on="0"/>
        <pt x="273" y="0" on="1"/>
        <pt x="48" y="0" on="1"/>
        <pt x="36" y="0" on="0"/>
        <pt x="38" y="12" on="1"/>
        <pt x="45" y="63" on="1"/>
        <pt x="46" y="75" on="0"/>
        <pt x="59" y="75" on="1"/>
        <pt x="126" y="75" on="1"/>
        <pt x="421" y="643" on="1"/>
        <pt x="366" y="643" on="1"/>
        <pt x="354" y="643" on="0"/>
        <pt x="356" y="655" on="1"/>
        <pt x="363" y="706" on="1"/>
        <pt x="364" y="718" on="0"/>
        <pt x="377" y="718" on="1"/>
        <pt x="513" y="718" on="1"/>
        <pt x="537" y="718" on="0"/>
        <pt x="560" y="698" on="0"/>
        <pt x="566" y="675" on="1"/>
        <pt x="711" y="75" on="1"/>
        <pt x="778" y="75" on="1"/>
        <pt x="790" y="75" on="0"/>
        <pt x="789" y="63" on="1"/>
        <pt x="782" y="12" on="1"/>
        <pt x="780" y="0" on="0"/>
      </contour>
      <contour>
        <pt x="566" y="317" on="1"/>
        <pt x="496" y="614" on="1"/>
        <pt x="492" y="614" on="1"/>
        <pt x="340" y="317" on="1"/>
      </contour>
      <contour>
        <pt x="569" y="834" on="1"/>
        <pt x="552" y="800" on="0"/>
        <pt x="511" y="800" on="1"/>
        <pt x="499" y="800" on="0"/>
        <pt x="487" y="805" on="1"/>
        <pt x="466" y="820" on="0"/>
        <pt x="466" y="866" on="0"/>
        <pt x="477" y="882" on="1"/>
        <pt x="488" y="904" on="0"/>
        <pt x="512" y="912" on="1"/>
        <pt x="524" y="916" on="0"/>
        <pt x="547" y="916" on="0"/>
        <pt x="559" y="911" on="1"/>
        <pt x="580" y="896" on="0"/>
        <pt x="580" y="849" on="0"/>
      </contour>
      <contour>
        <pt x="535" y="886" on="1"/>
        <pt x="530" y="888" on="0"/>
        <pt x="519" y="888" on="0"/>
        <pt x="500" y="877" on="0"/>
        <pt x="494" y="859" on="0"/>
        <pt x="494" y="854" on="1"/>
        <pt x="494" y="837" on="0"/>
        <pt x="511" y="830" on="1"/>
        <pt x="516" y="828" on="0"/>
        <pt x="527" y="828" on="0"/>
        <pt x="536" y="834" on="1"/>
        <pt x="551" y="843" on="0"/>
        <pt x="551" y="880" on="0"/>
      </contour>
    </TTGlyph>
    <TTGlyph name="Atilde" xMin="38" yMin="0" xMax="789" yMax="910">
      <contour>
        <pt x="768" y="0" on="1"/>
        <pt x="542" y="0" on="1"/>
        <pt x="530" y="0" on="0"/>
        <pt x="532" y="12" on="1"/>
        <pt x="539" y="63" on="1"/>
        <pt x="540" y="75" on="0"/>
        <pt x="553" y="75" on="1"/>
        <pt x="622" y="75" on="1"/>
        <pt x="582" y="248" on="1"/>
        <pt x="303" y="248" on="1"/>
        <pt x="214" y="75" on="1"/>
        <pt x="284" y="75" on="1"/>
        <pt x="297" y="75" on="0"/>
        <pt x="294" y="63" on="1"/>
        <pt x="287" y="12" on="1"/>
        <pt x="286" y="0" on="0"/>
        <pt x="273" y="0" on="1"/>
        <pt x="48" y="0" on="1"/>
        <pt x="36" y="0" on="0"/>
        <pt x="38" y="12" on="1"/>
        <pt x="45" y="63" on="1"/>
        <pt x="46" y="75" on="0"/>
        <pt x="59" y="75" on="1"/>
        <pt x="126" y="75" on="1"/>
        <pt x="421" y="643" on="1"/>
        <pt x="366" y="643" on="1"/>
        <pt x="354" y="643" on="0"/>
        <pt x="356" y="655" on="1"/>
        <pt x="363" y="706" on="1"/>
        <pt x="364" y="718" on="0"/>
        <pt x="377" y="718" on="1"/>
        <pt x="513" y="718" on="1"/>
        <pt x="537" y="718" on="0"/>
        <pt x="560" y="698" on="0"/>
        <pt x="566" y="675" on="1"/>
        <pt x="711" y="75" on="1"/>
        <pt x="778" y="75" on="1"/>
        <pt x="790" y="75" on="0"/>
        <pt x="789" y="63" on="1"/>
        <pt x="782" y="12" on="1"/>
        <pt x="780" y="0" on="0"/>
      </contour>
      <contour>
        <pt x="566" y="317" on="1"/>
        <pt x="496" y="614" on="1"/>
        <pt x="492" y="614" on="1"/>
        <pt x="340" y="317" on="1"/>
      </contour>
      <contour>
        <pt x="653" y="910" on="1"/>
        <pt x="677" y="910" on="1"/>
        <pt x="687" y="910" on="0"/>
        <pt x="687" y="901" on="1"/>
        <pt x="687" y="852" on="0"/>
        <pt x="634" y="785" on="0"/>
        <pt x="584" y="785" on="1"/>
        <pt x="559" y="785" on="0"/>
        <pt x="519" y="805" on="0"/>
        <pt x="508" y="816" on="1"/>
        <pt x="480" y="848" on="0"/>
        <pt x="434" y="848" on="0"/>
        <pt x="410" y="823" on="0"/>
        <pt x="406" y="791" on="1"/>
        <pt x="404" y="779" on="0"/>
        <pt x="392" y="779" on="1"/>
        <pt x="369" y="779" on="1"/>
        <pt x="358" y="779" on="0"/>
        <pt x="358" y="789" on="1"/>
        <pt x="358" y="834" on="0"/>
        <pt x="409" y="899" on="0"/>
        <pt x="459" y="899" on="1"/>
        <pt x="482" y="899" on="0"/>
        <pt x="521" y="878" on="0"/>
        <pt x="532" y="866" on="1"/>
        <pt x="560" y="833" on="0"/>
        <pt x="612" y="833" on="0"/>
        <pt x="634" y="861" on="0"/>
        <pt x="639" y="898" on="1"/>
        <pt x="640" y="910" on="0"/>
      </contour>
    </TTGlyph>
    <TTGlyph name="B" xMin="50" yMin="0" xMax="671" yMax="718">
      <contour>
        <pt x="384" y="0" on="1"/>
        <pt x="61" y="0" on="1"/>
        <pt x="48" y="0" on="0"/>
        <pt x="50" y="12" on="1"/>
        <pt x="57" y="63" on="1"/>
        <pt x="58" y="75" on="0"/>
        <pt x="71" y="75" on="1"/>
        <pt x="148" y="75" on="1"/>
        <pt x="228" y="643" on="1"/>
        <pt x="151" y="643" on="1"/>
        <pt x="140" y="643" on="0"/>
        <pt x="141" y="655" on="1"/>
        <pt x="148" y="706" on="1"/>
        <pt x="150" y="718" on="0"/>
        <pt x="162" y="718" on="1"/>
        <pt x="484" y="718" on="1"/>
        <pt x="574" y="718" on="0"/>
        <pt x="671" y="628" on="0"/>
        <pt x="671" y="554" on="1"/>
        <pt x="671" y="434" on="0"/>
        <pt x="559" y="375" on="1"/>
        <pt x="665" y="342" on="0"/>
        <pt x="665" y="127" on="0"/>
        <pt x="526" y="0" on="0"/>
      </contour>
      <contour>
        <pt x="387" y="75" on="1"/>
        <pt x="470" y="75" on="0"/>
        <pt x="577" y="153" on="0"/>
        <pt x="577" y="230" on="1"/>
        <pt x="577" y="337" on="0"/>
        <pt x="431" y="337" on="1"/>
        <pt x="272" y="337" on="1"/>
        <pt x="235" y="75" on="1"/>
      </contour>
      <contour>
        <pt x="433" y="403" on="1"/>
        <pt x="491" y="403" on="0"/>
        <pt x="581" y="471" on="0"/>
        <pt x="581" y="595" on="0"/>
        <pt x="510" y="643" on="0"/>
        <pt x="457" y="643" on="1"/>
        <pt x="315" y="643" on="1"/>
        <pt x="281" y="403" on="1"/>
      </contour>
    </TTGlyph>
    <TTGlyph name="C" xMin="94" yMin="-7" xMax="788" yMax="724">
      <contour>
        <pt x="388" y="-7" on="1"/>
        <pt x="258" y="-7" on="0"/>
        <pt x="94" y="166" on="0"/>
        <pt x="94" y="434" on="0"/>
        <pt x="209" y="627" on="0"/>
        <pt x="386" y="724" on="0"/>
        <pt x="486" y="724" on="1"/>
        <pt x="640" y="724" on="0"/>
        <pt x="695" y="617" on="1"/>
        <pt x="706" y="706" on="1"/>
        <pt x="708" y="718" on="0"/>
        <pt x="721" y="718" on="1"/>
        <pt x="777" y="718" on="1"/>
        <pt x="790" y="718" on="0"/>
        <pt x="788" y="706" on="1"/>
        <pt x="757" y="488" on="1"/>
        <pt x="755" y="475" on="0"/>
        <pt x="743" y="475" on="1"/>
        <pt x="680" y="475" on="1"/>
        <pt x="667" y="475" on="0"/>
        <pt x="669" y="488" on="1"/>
        <pt x="670" y="501" on="0"/>
        <pt x="670" y="505" on="1"/>
        <pt x="670" y="547" on="0"/>
        <pt x="566" y="642" on="0"/>
        <pt x="479" y="642" on="1"/>
        <pt x="371" y="642" on="0"/>
        <pt x="283" y="562" on="1"/>
        <pt x="240" y="523" on="0"/>
        <pt x="187" y="395" on="0"/>
        <pt x="187" y="316" on="1"/>
        <pt x="187" y="203" on="0"/>
        <pt x="313" y="77" on="0"/>
        <pt x="402" y="77" on="1"/>
        <pt x="570" y="77" on="0"/>
        <pt x="665" y="203" on="1"/>
        <pt x="675" y="218" on="0"/>
        <pt x="684" y="209" on="1"/>
        <pt x="723" y="181" on="1"/>
        <pt x="730" y="174" on="0"/>
        <pt x="713" y="147" on="0"/>
        <pt x="687" y="115" on="0"/>
        <pt x="627" y="63" on="0"/>
        <pt x="557" y="23" on="0"/>
        <pt x="448" y="-7" on="0"/>
      </contour>
    </TTGlyph>
    <TTGlyph name="Cacute" xMin="94" yMin="-7" xMax="788" yMax="995">
      <contour>
        <pt x="635" y="932" on="1"/>
        <pt x="449" y="798" on="1"/>
        <pt x="436" y="791" on="0"/>
        <pt x="429" y="801" on="1"/>
        <pt x="409" y="830" on="1"/>
        <pt x="401" y="839" on="0"/>
        <pt x="414" y="849" on="1"/>
        <pt x="594" y="990" on="1"/>
        <pt x="599" y="994" on="0"/>
        <pt x="603" y="994" on="1"/>
        <pt x="614" y="989" on="1"/>
        <pt x="639" y="951" on="1"/>
        <pt x="647" y="942" on="0"/>
      </contour>
      <contour>
        <pt x="388" y="-7" on="1"/>
        <pt x="258" y="-7" on="0"/>
        <pt x="94" y="166" on="0"/>
        <pt x="94" y="434" on="0"/>
        <pt x="209" y="627" on="0"/>
        <pt x="386" y="724" on="0"/>
        <pt x="486" y="724" on="1"/>
        <pt x="640" y="724" on="0"/>
        <pt x="695" y="617" on="1"/>
        <pt x="706" y="706" on="1"/>
        <pt x="708" y="718" on="0"/>
        <pt x="721" y="718" on="1"/>
        <pt x="777" y="718" on="1"/>
        <pt x="790" y="718" on="0"/>
        <pt x="788" y="706" on="1"/>
        <pt x="757" y="488" on="1"/>
        <pt x="755" y="475" on="0"/>
        <pt x="743" y="475" on="1"/>
        <pt x="680" y="475" on="1"/>
        <pt x="667" y="475" on="0"/>
        <pt x="669" y="488" on="1"/>
        <pt x="670" y="501" on="0"/>
        <pt x="670" y="505" on="1"/>
        <pt x="670" y="547" on="0"/>
        <pt x="566" y="642" on="0"/>
        <pt x="479" y="642" on="1"/>
        <pt x="371" y="642" on="0"/>
        <pt x="283" y="562" on="1"/>
        <pt x="240" y="523" on="0"/>
        <pt x="187" y="395" on="0"/>
        <pt x="187" y="316" on="1"/>
        <pt x="187" y="203" on="0"/>
        <pt x="313" y="77" on="0"/>
        <pt x="402" y="77" on="1"/>
        <pt x="570" y="77" on="0"/>
        <pt x="665" y="203" on="1"/>
        <pt x="675" y="218" on="0"/>
        <pt x="684" y="209" on="1"/>
        <pt x="723" y="181" on="1"/>
        <pt x="730" y="174" on="0"/>
        <pt x="713" y="147" on="0"/>
        <pt x="687" y="115" on="0"/>
        <pt x="627" y="63" on="0"/>
        <pt x="557" y="23" on="0"/>
        <pt x="448" y="-7" on="0"/>
      </contour>
    </TTGlyph>
    <TTGlyph name="Ccaron" xMin="94" yMin="-7" xMax="788" yMax="992">
      <contour>
        <pt x="506" y="804" on="1"/>
        <pt x="501" y="799" on="0"/>
        <pt x="490" y="799" on="0"/>
        <pt x="486" y="803" on="1"/>
        <pt x="351" y="939" on="1"/>
        <pt x="341" y="947" on="0"/>
        <pt x="350" y="958" on="1"/>
        <pt x="380" y="986" on="1"/>
        <pt x="385" y="992" on="0"/>
        <pt x="395" y="992" on="0"/>
        <pt x="399" y="988" on="1"/>
        <pt x="506" y="883" on="1"/>
        <pt x="645" y="988" on="1"/>
        <pt x="650" y="992" on="0"/>
        <pt x="660" y="992" on="0"/>
        <pt x="664" y="986" on="1"/>
        <pt x="684" y="958" on="1"/>
        <pt x="689" y="948" on="0"/>
        <pt x="680" y="939" on="1"/>
      </contour>
      <contour>
        <pt x="388" y="-7" on="1"/>
        <pt x="258" y="-7" on="0"/>
        <pt x="94" y="166" on="0"/>
        <pt x="94" y="434" on="0"/>
        <pt x="209" y="627" on="0"/>
        <pt x="386" y="724" on="0"/>
        <pt x="486" y="724" on="1"/>
        <pt x="640" y="724" on="0"/>
        <pt x="695" y="617" on="1"/>
        <pt x="706" y="706" on="1"/>
        <pt x="708" y="718" on="0"/>
        <pt x="721" y="718" on="1"/>
        <pt x="777" y="718" on="1"/>
        <pt x="790" y="718" on="0"/>
        <pt x="788" y="706" on="1"/>
        <pt x="757" y="488" on="1"/>
        <pt x="755" y="475" on="0"/>
        <pt x="743" y="475" on="1"/>
        <pt x="680" y="475" on="1"/>
        <pt x="667" y="475" on="0"/>
        <pt x="669" y="488" on="1"/>
        <pt x="670" y="501" on="0"/>
        <pt x="670" y="505" on="1"/>
        <pt x="670" y="547" on="0"/>
        <pt x="566" y="642" on="0"/>
        <pt x="479" y="642" on="1"/>
        <pt x="371" y="642" on="0"/>
        <pt x="283" y="562" on="1"/>
        <pt x="240" y="523" on="0"/>
        <pt x="187" y="395" on="0"/>
        <pt x="187" y="316" on="1"/>
        <pt x="187" y="203" on="0"/>
        <pt x="313" y="77" on="0"/>
        <pt x="402" y="77" on="1"/>
        <pt x="570" y="77" on="0"/>
        <pt x="665" y="203" on="1"/>
        <pt x="675" y="218" on="0"/>
        <pt x="684" y="209" on="1"/>
        <pt x="723" y="181" on="1"/>
        <pt x="730" y="174" on="0"/>
        <pt x="713" y="147" on="0"/>
        <pt x="687" y="115" on="0"/>
        <pt x="627" y="63" on="0"/>
        <pt x="557" y="23" on="0"/>
        <pt x="448" y="-7" on="0"/>
      </contour>
    </TTGlyph>
    <TTGlyph name="Ccedilla" xMin="94" yMin="-156" xMax="788" yMax="724">
      <contour>
        <pt x="450" y="-110" on="0"/>
        <pt x="396" y="-156" on="0"/>
        <pt x="316" y="-156" on="0"/>
        <pt x="282" y="-133" on="1"/>
        <pt x="273" y="-126" on="0"/>
        <pt x="282" y="-117" on="1"/>
        <pt x="294" y="-105" on="1"/>
        <pt x="303" y="-97" on="0"/>
        <pt x="310" y="-102" on="1"/>
        <pt x="326" y="-115" on="0"/>
        <pt x="353" y="-115" on="1"/>
        <pt x="401" y="-115" on="0"/>
        <pt x="401" y="-78" on="1"/>
        <pt x="401" y="-56" on="0"/>
        <pt x="355" y="-56" on="1"/>
        <pt x="331" y="-56" on="0"/>
        <pt x="338" y="-39" on="1"/>
        <pt x="354" y="-5" on="1"/>
        <pt x="238" y="6" on="0"/>
        <pt x="94" y="176" on="0"/>
        <pt x="94" y="434" on="0"/>
        <pt x="209" y="627" on="0"/>
        <pt x="386" y="724" on="0"/>
        <pt x="486" y="724" on="1"/>
        <pt x="640" y="724" on="0"/>
        <pt x="695" y="617" on="1"/>
        <pt x="706" y="706" on="1"/>
        <pt x="708" y="718" on="0"/>
        <pt x="721" y="718" on="1"/>
        <pt x="777" y="718" on="1"/>
        <pt x="790" y="718" on="0"/>
        <pt x="788" y="706" on="1"/>
        <pt x="757" y="488" on="1"/>
        <pt x="755" y="475" on="0"/>
        <pt x="743" y="475" on="1"/>
        <pt x="680" y="475" on="1"/>
        <pt x="667" y="475" on="0"/>
        <pt x="669" y="488" on="1"/>
        <pt x="670" y="501" on="0"/>
        <pt x="670" y="505" on="1"/>
        <pt x="670" y="547" on="0"/>
        <pt x="566" y="642" on="0"/>
        <pt x="479" y="642" on="1"/>
        <pt x="371" y="642" on="0"/>
        <pt x="283" y="562" on="1"/>
        <pt x="240" y="523" on="0"/>
        <pt x="187" y="395" on="0"/>
        <pt x="187" y="316" on="1"/>
        <pt x="187" y="203" on="0"/>
        <pt x="313" y="77" on="0"/>
        <pt x="402" y="77" on="1"/>
        <pt x="570" y="77" on="0"/>
        <pt x="665" y="203" on="1"/>
        <pt x="675" y="218" on="0"/>
        <pt x="684" y="209" on="1"/>
        <pt x="723" y="181" on="1"/>
        <pt x="730" y="174" on="0"/>
        <pt x="713" y="147" on="0"/>
        <pt x="688" y="116" on="0"/>
        <pt x="629" y="64" on="0"/>
        <pt x="560" y="25" on="0"/>
        <pt x="454" y="-5" on="0"/>
        <pt x="396" y="-6" on="1"/>
        <pt x="388" y="-25" on="1"/>
        <pt x="450" y="-25" on="0"/>
        <pt x="450" y="-73" on="1"/>
      </contour>
    </TTGlyph>
    <TTGlyph name="Ccircumflex" xMin="94" yMin="-7" xMax="788" yMax="989">
      <contour>
        <pt x="510" y="985" on="1"/>
        <pt x="515" y="989" on="0"/>
        <pt x="526" y="989" on="0"/>
        <pt x="530" y="984" on="1"/>
        <pt x="665" y="849" on="1"/>
        <pt x="673" y="840" on="0"/>
        <pt x="665" y="830" on="1"/>
        <pt x="636" y="801" on="1"/>
        <pt x="626" y="791" on="0"/>
        <pt x="617" y="799" on="1"/>
        <pt x="508" y="904" on="1"/>
        <pt x="371" y="799" on="1"/>
        <pt x="359" y="790" on="0"/>
        <pt x="352" y="801" on="1"/>
        <pt x="331" y="830" on="1"/>
        <pt x="324" y="840" on="0"/>
        <pt x="336" y="849" on="1"/>
      </contour>
      <contour>
        <pt x="388" y="-7" on="1"/>
        <pt x="258" y="-7" on="0"/>
        <pt x="94" y="166" on="0"/>
        <pt x="94" y="434" on="0"/>
        <pt x="209" y="627" on="0"/>
        <pt x="386" y="724" on="0"/>
        <pt x="486" y="724" on="1"/>
        <pt x="640" y="724" on="0"/>
        <pt x="695" y="617" on="1"/>
        <pt x="706" y="706" on="1"/>
        <pt x="708" y="718" on="0"/>
        <pt x="721" y="718" on="1"/>
        <pt x="777" y="718" on="1"/>
        <pt x="790" y="718" on="0"/>
        <pt x="788" y="706" on="1"/>
        <pt x="757" y="488" on="1"/>
        <pt x="755" y="475" on="0"/>
        <pt x="743" y="475" on="1"/>
        <pt x="680" y="475" on="1"/>
        <pt x="667" y="475" on="0"/>
        <pt x="669" y="488" on="1"/>
        <pt x="670" y="501" on="0"/>
        <pt x="670" y="505" on="1"/>
        <pt x="670" y="547" on="0"/>
        <pt x="566" y="642" on="0"/>
        <pt x="479" y="642" on="1"/>
        <pt x="371" y="642" on="0"/>
        <pt x="283" y="562" on="1"/>
        <pt x="240" y="523" on="0"/>
        <pt x="187" y="395" on="0"/>
        <pt x="187" y="316" on="1"/>
        <pt x="187" y="203" on="0"/>
        <pt x="313" y="77" on="0"/>
        <pt x="402" y="77" on="1"/>
        <pt x="570" y="77" on="0"/>
        <pt x="665" y="203" on="1"/>
        <pt x="675" y="218" on="0"/>
        <pt x="684" y="209" on="1"/>
        <pt x="723" y="181" on="1"/>
        <pt x="730" y="174" on="0"/>
        <pt x="713" y="147" on="0"/>
        <pt x="687" y="115" on="0"/>
        <pt x="627" y="63" on="0"/>
        <pt x="557" y="23" on="0"/>
        <pt x="448" y="-7" on="0"/>
      </contour>
    </TTGlyph>
    <TTGlyph name="Cdotaccent" xMin="94" yMin="-7" xMax="788" yMax="897">
      <contour>
        <pt x="388" y="-7" on="1"/>
        <pt x="258" y="-7" on="0"/>
        <pt x="94" y="166" on="0"/>
        <pt x="94" y="434" on="0"/>
        <pt x="209" y="627" on="0"/>
        <pt x="386" y="724" on="0"/>
        <pt x="486" y="724" on="1"/>
        <pt x="640" y="724" on="0"/>
        <pt x="695" y="617" on="1"/>
        <pt x="706" y="706" on="1"/>
        <pt x="708" y="718" on="0"/>
        <pt x="721" y="718" on="1"/>
        <pt x="777" y="718" on="1"/>
        <pt x="790" y="718" on="0"/>
        <pt x="788" y="706" on="1"/>
        <pt x="757" y="488" on="1"/>
        <pt x="755" y="475" on="0"/>
        <pt x="743" y="475" on="1"/>
        <pt x="680" y="475" on="1"/>
        <pt x="667" y="475" on="0"/>
        <pt x="669" y="488" on="1"/>
        <pt x="670" y="501" on="0"/>
        <pt x="670" y="505" on="1"/>
        <pt x="670" y="547" on="0"/>
        <pt x="566" y="642" on="0"/>
        <pt x="479" y="642" on="1"/>
        <pt x="371" y="642" on="0"/>
        <pt x="283" y="562" on="1"/>
        <pt x="240" y="523" on="0"/>
        <pt x="187" y="395" on="0"/>
        <pt x="187" y="316" on="1"/>
        <pt x="187" y="203" on="0"/>
        <pt x="313" y="77" on="0"/>
        <pt x="402" y="77" on="1"/>
        <pt x="570" y="77" on="0"/>
        <pt x="665" y="203" on="1"/>
        <pt x="675" y="218" on="0"/>
        <pt x="684" y="209" on="1"/>
        <pt x="723" y="181" on="1"/>
        <pt x="730" y="174" on="0"/>
        <pt x="713" y="147" on="0"/>
        <pt x="687" y="115" on="0"/>
        <pt x="627" y="63" on="0"/>
        <pt x="557" y="23" on="0"/>
        <pt x="448" y="-7" on="0"/>
      </contour>
      <contour>
        <pt x="544" y="897" on="0"/>
        <pt x="570" y="870" on="0"/>
        <pt x="570" y="827" on="0"/>
        <pt x="533" y="792" on="0"/>
        <pt x="490" y="792" on="0"/>
        <pt x="464" y="818" on="0"/>
        <pt x="464" y="862" on="0"/>
        <pt x="500" y="897" on="0"/>
      </contour>
    </TTGlyph>
    <TTGlyph name="D" xMin="45" yMin="0" xMax="743" yMax="718">
      <contour>
        <pt x="342" y="0" on="1"/>
        <pt x="55" y="0" on="1"/>
        <pt x="44" y="0" on="0"/>
        <pt x="45" y="12" on="1"/>
        <pt x="52" y="63" on="1"/>
        <pt x="54" y="75" on="0"/>
        <pt x="66" y="75" on="1"/>
        <pt x="143" y="75" on="1"/>
        <pt x="222" y="643" on="1"/>
        <pt x="146" y="643" on="1"/>
        <pt x="134" y="643" on="0"/>
        <pt x="135" y="655" on="1"/>
        <pt x="143" y="706" on="1"/>
        <pt x="144" y="718" on="0"/>
        <pt x="156" y="718" on="1"/>
        <pt x="426" y="718" on="1"/>
        <pt x="574" y="718" on="0"/>
        <pt x="743" y="558" on="0"/>
        <pt x="743" y="416" on="1"/>
        <pt x="743" y="228" on="0"/>
        <pt x="523" y="0" on="0"/>
      </contour>
      <contour>
        <pt x="329" y="75" on="1"/>
        <pt x="485" y="75" on="0"/>
        <pt x="651" y="247" on="0"/>
        <pt x="651" y="407" on="1"/>
        <pt x="651" y="519" on="0"/>
        <pt x="527" y="643" on="0"/>
        <pt x="406" y="643" on="1"/>
        <pt x="309" y="643" on="1"/>
        <pt x="230" y="75" on="1"/>
      </contour>
    </TTGlyph>
    <TTGlyph name="Dcaron" xMin="45" yMin="0" xMax="743" yMax="992">
      <contour>
        <pt x="479" y="804" on="1"/>
        <pt x="474" y="799" on="0"/>
        <pt x="463" y="799" on="0"/>
        <pt x="459" y="803" on="1"/>
        <pt x="324" y="939" on="1"/>
        <pt x="314" y="947" on="0"/>
        <pt x="323" y="958" on="1"/>
        <pt x="353" y="986" on="1"/>
        <pt x="358" y="992" on="0"/>
        <pt x="368" y="992" on="0"/>
        <pt x="372" y="988" on="1"/>
        <pt x="479" y="883" on="1"/>
        <pt x="618" y="988" on="1"/>
        <pt x="623" y="992" on="0"/>
        <pt x="633" y="992" on="0"/>
        <pt x="637" y="986" on="1"/>
        <pt x="657" y="958" on="1"/>
        <pt x="662" y="948" on="0"/>
        <pt x="653" y="939" on="1"/>
      </contour>
      <contour>
        <pt x="342" y="0" on="1"/>
        <pt x="55" y="0" on="1"/>
        <pt x="44" y="0" on="0"/>
        <pt x="45" y="12" on="1"/>
        <pt x="52" y="63" on="1"/>
        <pt x="54" y="75" on="0"/>
        <pt x="66" y="75" on="1"/>
        <pt x="143" y="75" on="1"/>
        <pt x="222" y="643" on="1"/>
        <pt x="146" y="643" on="1"/>
        <pt x="134" y="643" on="0"/>
        <pt x="135" y="655" on="1"/>
        <pt x="143" y="706" on="1"/>
        <pt x="144" y="718" on="0"/>
        <pt x="156" y="718" on="1"/>
        <pt x="426" y="718" on="1"/>
        <pt x="574" y="718" on="0"/>
        <pt x="743" y="558" on="0"/>
        <pt x="743" y="416" on="1"/>
        <pt x="743" y="228" on="0"/>
        <pt x="523" y="0" on="0"/>
      </contour>
      <contour>
        <pt x="329" y="75" on="1"/>
        <pt x="485" y="75" on="0"/>
        <pt x="651" y="247" on="0"/>
        <pt x="651" y="407" on="1"/>
        <pt x="651" y="519" on="0"/>
        <pt x="527" y="643" on="0"/>
        <pt x="406" y="643" on="1"/>
        <pt x="309" y="643" on="1"/>
        <pt x="230" y="75" on="1"/>
      </contour>
    </TTGlyph>
    <TTGlyph name="Dcroat" xMin="50" yMin="0" xMax="748" yMax="718">
      <contour>
        <pt x="348" y="0" on="1"/>
        <pt x="61" y="0" on="1"/>
        <pt x="48" y="0" on="0"/>
        <pt x="50" y="12" on="1"/>
        <pt x="58" y="63" on="1"/>
        <pt x="60" y="75" on="0"/>
        <pt x="72" y="75" on="1"/>
        <pt x="148" y="75" on="1"/>
        <pt x="183" y="324" on="1"/>
        <pt x="115" y="324" on="1"/>
        <pt x="101" y="324" on="0"/>
        <pt x="103" y="337" on="1"/>
        <pt x="109" y="379" on="1"/>
        <pt x="111" y="393" on="0"/>
        <pt x="124" y="393" on="1"/>
        <pt x="193" y="393" on="1"/>
        <pt x="228" y="643" on="1"/>
        <pt x="151" y="643" on="1"/>
        <pt x="140" y="643" on="0"/>
        <pt x="141" y="655" on="1"/>
        <pt x="148" y="706" on="1"/>
        <pt x="150" y="718" on="0"/>
        <pt x="162" y="718" on="1"/>
        <pt x="431" y="718" on="1"/>
        <pt x="579" y="718" on="0"/>
        <pt x="748" y="558" on="0"/>
        <pt x="748" y="416" on="1"/>
        <pt x="748" y="228" on="0"/>
        <pt x="528" y="0" on="0"/>
      </contour>
      <contour>
        <pt x="335" y="75" on="1"/>
        <pt x="491" y="75" on="0"/>
        <pt x="657" y="247" on="0"/>
        <pt x="657" y="407" on="1"/>
        <pt x="657" y="519" on="0"/>
        <pt x="533" y="643" on="0"/>
        <pt x="411" y="643" on="1"/>
        <pt x="315" y="643" on="1"/>
        <pt x="280" y="393" on="1"/>
        <pt x="432" y="393" on="1"/>
        <pt x="446" y="393" on="0"/>
        <pt x="444" y="379" on="1"/>
        <pt x="438" y="337" on="1"/>
        <pt x="436" y="324" on="0"/>
        <pt x="423" y="324" on="1"/>
        <pt x="270" y="324" on="1"/>
        <pt x="235" y="75" on="1"/>
      </contour>
    </TTGlyph>
    <TTGlyph name="E" xMin="50" yMin="0" xMax="705" yMax="718">
      <contour>
        <pt x="592" y="0" on="1"/>
        <pt x="61" y="0" on="1"/>
        <pt x="48" y="0" on="0"/>
        <pt x="50" y="12" on="1"/>
        <pt x="57" y="63" on="1"/>
        <pt x="58" y="75" on="0"/>
        <pt x="71" y="75" on="1"/>
        <pt x="148" y="75" on="1"/>
        <pt x="228" y="643" on="1"/>
        <pt x="151" y="643" on="1"/>
        <pt x="140" y="643" on="0"/>
        <pt x="141" y="655" on="1"/>
        <pt x="148" y="706" on="1"/>
        <pt x="150" y="718" on="0"/>
        <pt x="162" y="718" on="1"/>
        <pt x="693" y="718" on="1"/>
        <pt x="705" y="718" on="0"/>
        <pt x="705" y="710" on="1"/>
        <pt x="705" y="708" on="0"/>
        <pt x="704" y="706" on="1"/>
        <pt x="681" y="545" on="1"/>
        <pt x="679" y="532" on="0"/>
        <pt x="668" y="532" on="1"/>
        <pt x="614" y="532" on="1"/>
        <pt x="600" y="532" on="0"/>
        <pt x="603" y="545" on="1"/>
        <pt x="616" y="643" on="1"/>
        <pt x="315" y="643" on="1"/>
        <pt x="280" y="395" on="1"/>
        <pt x="533" y="395" on="1"/>
        <pt x="546" y="395" on="0"/>
        <pt x="544" y="383" on="1"/>
        <pt x="537" y="332" on="1"/>
        <pt x="536" y="320" on="0"/>
        <pt x="523" y="320" on="1"/>
        <pt x="269" y="320" on="1"/>
        <pt x="235" y="75" on="1"/>
        <pt x="536" y="75" on="1"/>
        <pt x="550" y="173" on="1"/>
        <pt x="552" y="185" on="0"/>
        <pt x="564" y="185" on="1"/>
        <pt x="619" y="185" on="1"/>
        <pt x="630" y="185" on="0"/>
        <pt x="629" y="173" on="1"/>
        <pt x="607" y="12" on="1"/>
        <pt x="606" y="0" on="0"/>
      </contour>
    </TTGlyph>
    <TTGlyph name="Eacute" xMin="50" yMin="0" xMax="705" yMax="995">
      <contour>
        <pt x="572" y="932" on="1"/>
        <pt x="386" y="798" on="1"/>
        <pt x="373" y="791" on="0"/>
        <pt x="366" y="801" on="1"/>
        <pt x="346" y="830" on="1"/>
        <pt x="338" y="839" on="0"/>
        <pt x="351" y="849" on="1"/>
        <pt x="531" y="990" on="1"/>
        <pt x="536" y="994" on="0"/>
        <pt x="540" y="994" on="1"/>
        <pt x="551" y="989" on="1"/>
        <pt x="576" y="951" on="1"/>
        <pt x="584" y="942" on="0"/>
      </contour>
      <contour>
        <pt x="592" y="0" on="1"/>
        <pt x="61" y="0" on="1"/>
        <pt x="48" y="0" on="0"/>
        <pt x="50" y="12" on="1"/>
        <pt x="57" y="63" on="1"/>
        <pt x="58" y="75" on="0"/>
        <pt x="71" y="75" on="1"/>
        <pt x="148" y="75" on="1"/>
        <pt x="228" y="643" on="1"/>
        <pt x="151" y="643" on="1"/>
        <pt x="140" y="643" on="0"/>
        <pt x="141" y="655" on="1"/>
        <pt x="148" y="706" on="1"/>
        <pt x="150" y="718" on="0"/>
        <pt x="162" y="718" on="1"/>
        <pt x="693" y="718" on="1"/>
        <pt x="705" y="718" on="0"/>
        <pt x="705" y="710" on="1"/>
        <pt x="705" y="708" on="0"/>
        <pt x="704" y="706" on="1"/>
        <pt x="681" y="545" on="1"/>
        <pt x="679" y="532" on="0"/>
        <pt x="668" y="532" on="1"/>
        <pt x="614" y="532" on="1"/>
        <pt x="600" y="532" on="0"/>
        <pt x="603" y="545" on="1"/>
        <pt x="616" y="643" on="1"/>
        <pt x="315" y="643" on="1"/>
        <pt x="280" y="395" on="1"/>
        <pt x="533" y="395" on="1"/>
        <pt x="546" y="395" on="0"/>
        <pt x="544" y="383" on="1"/>
        <pt x="537" y="332" on="1"/>
        <pt x="536" y="320" on="0"/>
        <pt x="523" y="320" on="1"/>
        <pt x="269" y="320" on="1"/>
        <pt x="235" y="75" on="1"/>
        <pt x="536" y="75" on="1"/>
        <pt x="550" y="173" on="1"/>
        <pt x="552" y="185" on="0"/>
        <pt x="564" y="185" on="1"/>
        <pt x="619" y="185" on="1"/>
        <pt x="630" y="185" on="0"/>
        <pt x="629" y="173" on="1"/>
        <pt x="607" y="12" on="1"/>
        <pt x="606" y="0" on="0"/>
      </contour>
    </TTGlyph>
    <TTGlyph name="Ebreve" xMin="50" yMin="0" xMax="705" yMax="941">
      <contour>
        <pt x="592" y="0" on="1"/>
        <pt x="61" y="0" on="1"/>
        <pt x="48" y="0" on="0"/>
        <pt x="50" y="12" on="1"/>
        <pt x="57" y="63" on="1"/>
        <pt x="58" y="75" on="0"/>
        <pt x="71" y="75" on="1"/>
        <pt x="148" y="75" on="1"/>
        <pt x="228" y="643" on="1"/>
        <pt x="151" y="643" on="1"/>
        <pt x="140" y="643" on="0"/>
        <pt x="141" y="655" on="1"/>
        <pt x="148" y="706" on="1"/>
        <pt x="150" y="718" on="0"/>
        <pt x="162" y="718" on="1"/>
        <pt x="693" y="718" on="1"/>
        <pt x="705" y="718" on="0"/>
        <pt x="705" y="710" on="1"/>
        <pt x="705" y="708" on="0"/>
        <pt x="704" y="706" on="1"/>
        <pt x="681" y="545" on="1"/>
        <pt x="679" y="532" on="0"/>
        <pt x="668" y="532" on="1"/>
        <pt x="614" y="532" on="1"/>
        <pt x="600" y="532" on="0"/>
        <pt x="603" y="545" on="1"/>
        <pt x="616" y="643" on="1"/>
        <pt x="315" y="643" on="1"/>
        <pt x="280" y="395" on="1"/>
        <pt x="533" y="395" on="1"/>
        <pt x="546" y="395" on="0"/>
        <pt x="544" y="383" on="1"/>
        <pt x="537" y="332" on="1"/>
        <pt x="536" y="320" on="0"/>
        <pt x="523" y="320" on="1"/>
        <pt x="269" y="320" on="1"/>
        <pt x="235" y="75" on="1"/>
        <pt x="536" y="75" on="1"/>
        <pt x="550" y="173" on="1"/>
        <pt x="552" y="185" on="0"/>
        <pt x="564" y="185" on="1"/>
        <pt x="619" y="185" on="1"/>
        <pt x="630" y="185" on="0"/>
        <pt x="629" y="173" on="1"/>
        <pt x="607" y="12" on="1"/>
        <pt x="606" y="0" on="0"/>
      </contour>
      <contour>
        <pt x="545" y="941" on="1"/>
        <pt x="576" y="941" on="1"/>
        <pt x="588" y="941" on="0"/>
        <pt x="588" y="930" on="1"/>
        <pt x="588" y="867" on="0"/>
        <pt x="496" y="789" on="0"/>
        <pt x="372" y="789" on="0"/>
        <pt x="306" y="849" on="0"/>
        <pt x="306" y="906" on="1"/>
        <pt x="306" y="941" on="0"/>
        <pt x="323" y="941" on="1"/>
        <pt x="355" y="941" on="1"/>
        <pt x="365" y="941" on="0"/>
        <pt x="365" y="880" on="0"/>
        <pt x="404" y="840" on="0"/>
        <pt x="469" y="840" on="0"/>
        <pt x="523" y="887" on="0"/>
        <pt x="529" y="928" on="1"/>
        <pt x="531" y="941" on="0"/>
      </contour>
    </TTGlyph>
    <TTGlyph name="Ecaron" xMin="50" yMin="0" xMax="705" yMax="992">
      <contour>
        <pt x="446" y="804" on="1"/>
        <pt x="441" y="799" on="0"/>
        <pt x="430" y="799" on="0"/>
        <pt x="426" y="803" on="1"/>
        <pt x="291" y="939" on="1"/>
        <pt x="281" y="947" on="0"/>
        <pt x="290" y="958" on="1"/>
        <pt x="320" y="986" on="1"/>
        <pt x="325" y="992" on="0"/>
        <pt x="335" y="992" on="0"/>
        <pt x="339" y="988" on="1"/>
        <pt x="446" y="883" on="1"/>
        <pt x="585" y="988" on="1"/>
        <pt x="590" y="992" on="0"/>
        <pt x="600" y="992" on="0"/>
        <pt x="604" y="986" on="1"/>
        <pt x="624" y="958" on="1"/>
        <pt x="629" y="948" on="0"/>
        <pt x="620" y="939" on="1"/>
      </contour>
      <contour>
        <pt x="592" y="0" on="1"/>
        <pt x="61" y="0" on="1"/>
        <pt x="48" y="0" on="0"/>
        <pt x="50" y="12" on="1"/>
        <pt x="57" y="63" on="1"/>
        <pt x="58" y="75" on="0"/>
        <pt x="71" y="75" on="1"/>
        <pt x="148" y="75" on="1"/>
        <pt x="228" y="643" on="1"/>
        <pt x="151" y="643" on="1"/>
        <pt x="140" y="643" on="0"/>
        <pt x="141" y="655" on="1"/>
        <pt x="148" y="706" on="1"/>
        <pt x="150" y="718" on="0"/>
        <pt x="162" y="718" on="1"/>
        <pt x="693" y="718" on="1"/>
        <pt x="705" y="718" on="0"/>
        <pt x="705" y="710" on="1"/>
        <pt x="705" y="708" on="0"/>
        <pt x="704" y="706" on="1"/>
        <pt x="681" y="545" on="1"/>
        <pt x="679" y="532" on="0"/>
        <pt x="668" y="532" on="1"/>
        <pt x="614" y="532" on="1"/>
        <pt x="600" y="532" on="0"/>
        <pt x="603" y="545" on="1"/>
        <pt x="616" y="643" on="1"/>
        <pt x="315" y="643" on="1"/>
        <pt x="280" y="395" on="1"/>
        <pt x="533" y="395" on="1"/>
        <pt x="546" y="395" on="0"/>
        <pt x="544" y="383" on="1"/>
        <pt x="537" y="332" on="1"/>
        <pt x="536" y="320" on="0"/>
        <pt x="523" y="320" on="1"/>
        <pt x="269" y="320" on="1"/>
        <pt x="235" y="75" on="1"/>
        <pt x="536" y="75" on="1"/>
        <pt x="550" y="173" on="1"/>
        <pt x="552" y="185" on="0"/>
        <pt x="564" y="185" on="1"/>
        <pt x="619" y="185" on="1"/>
        <pt x="630" y="185" on="0"/>
        <pt x="629" y="173" on="1"/>
        <pt x="607" y="12" on="1"/>
        <pt x="606" y="0" on="0"/>
      </contour>
    </TTGlyph>
    <TTGlyph name="Ecircumflex" xMin="50" yMin="0" xMax="705" yMax="989">
      <contour>
        <pt x="434" y="985" on="1"/>
        <pt x="439" y="989" on="0"/>
        <pt x="450" y="989" on="0"/>
        <pt x="454" y="984" on="1"/>
        <pt x="589" y="849" on="1"/>
        <pt x="597" y="840" on="0"/>
        <pt x="589" y="830" on="1"/>
        <pt x="560" y="801" on="1"/>
        <pt x="550" y="791" on="0"/>
        <pt x="541" y="799" on="1"/>
        <pt x="432" y="904" on="1"/>
        <pt x="295" y="799" on="1"/>
        <pt x="283" y="790" on="0"/>
        <pt x="276" y="801" on="1"/>
        <pt x="255" y="830" on="1"/>
        <pt x="248" y="840" on="0"/>
        <pt x="260" y="849" on="1"/>
      </contour>
      <contour>
        <pt x="592" y="0" on="1"/>
        <pt x="61" y="0" on="1"/>
        <pt x="48" y="0" on="0"/>
        <pt x="50" y="12" on="1"/>
        <pt x="57" y="63" on="1"/>
        <pt x="58" y="75" on="0"/>
        <pt x="71" y="75" on="1"/>
        <pt x="148" y="75" on="1"/>
        <pt x="228" y="643" on="1"/>
        <pt x="151" y="643" on="1"/>
        <pt x="140" y="643" on="0"/>
        <pt x="141" y="655" on="1"/>
        <pt x="148" y="706" on="1"/>
        <pt x="150" y="718" on="0"/>
        <pt x="162" y="718" on="1"/>
        <pt x="693" y="718" on="1"/>
        <pt x="705" y="718" on="0"/>
        <pt x="705" y="710" on="1"/>
        <pt x="705" y="708" on="0"/>
        <pt x="704" y="706" on="1"/>
        <pt x="681" y="545" on="1"/>
        <pt x="679" y="532" on="0"/>
        <pt x="668" y="532" on="1"/>
        <pt x="614" y="532" on="1"/>
        <pt x="600" y="532" on="0"/>
        <pt x="603" y="545" on="1"/>
        <pt x="616" y="643" on="1"/>
        <pt x="315" y="643" on="1"/>
        <pt x="280" y="395" on="1"/>
        <pt x="533" y="395" on="1"/>
        <pt x="546" y="395" on="0"/>
        <pt x="544" y="383" on="1"/>
        <pt x="537" y="332" on="1"/>
        <pt x="536" y="320" on="0"/>
        <pt x="523" y="320" on="1"/>
        <pt x="269" y="320" on="1"/>
        <pt x="235" y="75" on="1"/>
        <pt x="536" y="75" on="1"/>
        <pt x="550" y="173" on="1"/>
        <pt x="552" y="185" on="0"/>
        <pt x="564" y="185" on="1"/>
        <pt x="619" y="185" on="1"/>
        <pt x="630" y="185" on="0"/>
        <pt x="629" y="173" on="1"/>
        <pt x="607" y="12" on="1"/>
        <pt x="606" y="0" on="0"/>
      </contour>
    </TTGlyph>
    <TTGlyph name="Edieresis" xMin="50" yMin="0" xMax="705" yMax="867">
      <contour>
        <pt x="379" y="867" on="0"/>
        <pt x="400" y="845" on="0"/>
        <pt x="400" y="810" on="0"/>
        <pt x="371" y="782" on="0"/>
        <pt x="335" y="782" on="0"/>
        <pt x="315" y="802" on="0"/>
        <pt x="315" y="838" on="0"/>
        <pt x="344" y="867" on="0"/>
      </contour>
      <contour>
        <pt x="537" y="867" on="0"/>
        <pt x="558" y="845" on="0"/>
        <pt x="558" y="810" on="0"/>
        <pt x="529" y="782" on="0"/>
        <pt x="493" y="782" on="0"/>
        <pt x="473" y="802" on="0"/>
        <pt x="473" y="838" on="0"/>
        <pt x="502" y="867" on="0"/>
      </contour>
      <contour>
        <pt x="592" y="0" on="1"/>
        <pt x="61" y="0" on="1"/>
        <pt x="48" y="0" on="0"/>
        <pt x="50" y="12" on="1"/>
        <pt x="57" y="63" on="1"/>
        <pt x="58" y="75" on="0"/>
        <pt x="71" y="75" on="1"/>
        <pt x="148" y="75" on="1"/>
        <pt x="228" y="643" on="1"/>
        <pt x="151" y="643" on="1"/>
        <pt x="140" y="643" on="0"/>
        <pt x="141" y="655" on="1"/>
        <pt x="148" y="706" on="1"/>
        <pt x="150" y="718" on="0"/>
        <pt x="162" y="718" on="1"/>
        <pt x="693" y="718" on="1"/>
        <pt x="705" y="718" on="0"/>
        <pt x="705" y="710" on="1"/>
        <pt x="705" y="708" on="0"/>
        <pt x="704" y="706" on="1"/>
        <pt x="681" y="545" on="1"/>
        <pt x="679" y="532" on="0"/>
        <pt x="668" y="532" on="1"/>
        <pt x="614" y="532" on="1"/>
        <pt x="600" y="532" on="0"/>
        <pt x="603" y="545" on="1"/>
        <pt x="616" y="643" on="1"/>
        <pt x="315" y="643" on="1"/>
        <pt x="280" y="395" on="1"/>
        <pt x="533" y="395" on="1"/>
        <pt x="546" y="395" on="0"/>
        <pt x="544" y="383" on="1"/>
        <pt x="537" y="332" on="1"/>
        <pt x="536" y="320" on="0"/>
        <pt x="523" y="320" on="1"/>
        <pt x="269" y="320" on="1"/>
        <pt x="235" y="75" on="1"/>
        <pt x="536" y="75" on="1"/>
        <pt x="550" y="173" on="1"/>
        <pt x="552" y="185" on="0"/>
        <pt x="564" y="185" on="1"/>
        <pt x="619" y="185" on="1"/>
        <pt x="630" y="185" on="0"/>
        <pt x="629" y="173" on="1"/>
        <pt x="607" y="12" on="1"/>
        <pt x="606" y="0" on="0"/>
      </contour>
    </TTGlyph>
    <TTGlyph name="Edotaccent" xMin="50" yMin="0" xMax="705" yMax="897">
      <contour>
        <pt x="592" y="0" on="1"/>
        <pt x="61" y="0" on="1"/>
        <pt x="48" y="0" on="0"/>
        <pt x="50" y="12" on="1"/>
        <pt x="57" y="63" on="1"/>
        <pt x="58" y="75" on="0"/>
        <pt x="71" y="75" on="1"/>
        <pt x="148" y="75" on="1"/>
        <pt x="228" y="643" on="1"/>
        <pt x="151" y="643" on="1"/>
        <pt x="140" y="643" on="0"/>
        <pt x="141" y="655" on="1"/>
        <pt x="148" y="706" on="1"/>
        <pt x="150" y="718" on="0"/>
        <pt x="162" y="718" on="1"/>
        <pt x="693" y="718" on="1"/>
        <pt x="705" y="718" on="0"/>
        <pt x="705" y="710" on="1"/>
        <pt x="705" y="708" on="0"/>
        <pt x="704" y="706" on="1"/>
        <pt x="681" y="545" on="1"/>
        <pt x="679" y="532" on="0"/>
        <pt x="668" y="532" on="1"/>
        <pt x="614" y="532" on="1"/>
        <pt x="600" y="532" on="0"/>
        <pt x="603" y="545" on="1"/>
        <pt x="616" y="643" on="1"/>
        <pt x="315" y="643" on="1"/>
        <pt x="280" y="395" on="1"/>
        <pt x="533" y="395" on="1"/>
        <pt x="546" y="395" on="0"/>
        <pt x="544" y="383" on="1"/>
        <pt x="537" y="332" on="1"/>
        <pt x="536" y="320" on="0"/>
        <pt x="523" y="320" on="1"/>
        <pt x="269" y="320" on="1"/>
        <pt x="235" y="75" on="1"/>
        <pt x="536" y="75" on="1"/>
        <pt x="550" y="173" on="1"/>
        <pt x="552" y="185" on="0"/>
        <pt x="564" y="185" on="1"/>
        <pt x="619" y="185" on="1"/>
        <pt x="630" y="185" on="0"/>
        <pt x="629" y="173" on="1"/>
        <pt x="607" y="12" on="1"/>
        <pt x="606" y="0" on="0"/>
      </contour>
      <contour>
        <pt x="470" y="897" on="0"/>
        <pt x="496" y="870" on="0"/>
        <pt x="496" y="827" on="0"/>
        <pt x="459" y="792" on="0"/>
        <pt x="416" y="792" on="0"/>
        <pt x="390" y="818" on="0"/>
        <pt x="390" y="862" on="0"/>
        <pt x="426" y="897" on="0"/>
      </contour>
    </TTGlyph>
    <TTGlyph name="Egrave" xMin="50" yMin="0" xMax="705" yMax="996">
      <contour>
        <pt x="592" y="0" on="1"/>
        <pt x="61" y="0" on="1"/>
        <pt x="48" y="0" on="0"/>
        <pt x="50" y="12" on="1"/>
        <pt x="57" y="63" on="1"/>
        <pt x="58" y="75" on="0"/>
        <pt x="71" y="75" on="1"/>
        <pt x="148" y="75" on="1"/>
        <pt x="228" y="643" on="1"/>
        <pt x="151" y="643" on="1"/>
        <pt x="140" y="643" on="0"/>
        <pt x="141" y="655" on="1"/>
        <pt x="148" y="706" on="1"/>
        <pt x="150" y="718" on="0"/>
        <pt x="162" y="718" on="1"/>
        <pt x="693" y="718" on="1"/>
        <pt x="705" y="718" on="0"/>
        <pt x="705" y="710" on="1"/>
        <pt x="705" y="708" on="0"/>
        <pt x="704" y="706" on="1"/>
        <pt x="681" y="545" on="1"/>
        <pt x="679" y="532" on="0"/>
        <pt x="668" y="532" on="1"/>
        <pt x="614" y="532" on="1"/>
        <pt x="600" y="532" on="0"/>
        <pt x="603" y="545" on="1"/>
        <pt x="616" y="643" on="1"/>
        <pt x="315" y="643" on="1"/>
        <pt x="280" y="395" on="1"/>
        <pt x="533" y="395" on="1"/>
        <pt x="546" y="395" on="0"/>
        <pt x="544" y="383" on="1"/>
        <pt x="537" y="332" on="1"/>
        <pt x="536" y="320" on="0"/>
        <pt x="523" y="320" on="1"/>
        <pt x="269" y="320" on="1"/>
        <pt x="235" y="75" on="1"/>
        <pt x="536" y="75" on="1"/>
        <pt x="550" y="173" on="1"/>
        <pt x="552" y="185" on="0"/>
        <pt x="564" y="185" on="1"/>
        <pt x="619" y="185" on="1"/>
        <pt x="630" y="185" on="0"/>
        <pt x="629" y="173" on="1"/>
        <pt x="607" y="12" on="1"/>
        <pt x="606" y="0" on="0"/>
      </contour>
      <contour>
        <pt x="492" y="801" on="1"/>
        <pt x="487" y="795" on="0"/>
        <pt x="477" y="795" on="0"/>
        <pt x="473" y="799" on="1"/>
        <pt x="324" y="933" on="1"/>
        <pt x="320" y="937" on="0"/>
        <pt x="320" y="946" on="0"/>
        <pt x="326" y="952" on="1"/>
        <pt x="362" y="989" on="1"/>
        <pt x="367" y="995" on="0"/>
        <pt x="377" y="995" on="0"/>
        <pt x="382" y="991" on="1"/>
        <pt x="522" y="849" on="1"/>
        <pt x="527" y="844" on="0"/>
        <pt x="527" y="835" on="0"/>
        <pt x="522" y="830" on="1"/>
      </contour>
    </TTGlyph>
    <TTGlyph name="Emacron" xMin="50" yMin="0" xMax="705" yMax="849">
      <contour>
        <pt x="592" y="0" on="1"/>
        <pt x="61" y="0" on="1"/>
        <pt x="48" y="0" on="0"/>
        <pt x="50" y="12" on="1"/>
        <pt x="57" y="63" on="1"/>
        <pt x="58" y="75" on="0"/>
        <pt x="71" y="75" on="1"/>
        <pt x="148" y="75" on="1"/>
        <pt x="228" y="643" on="1"/>
        <pt x="151" y="643" on="1"/>
        <pt x="140" y="643" on="0"/>
        <pt x="141" y="655" on="1"/>
        <pt x="148" y="706" on="1"/>
        <pt x="150" y="718" on="0"/>
        <pt x="162" y="718" on="1"/>
        <pt x="693" y="718" on="1"/>
        <pt x="705" y="718" on="0"/>
        <pt x="705" y="710" on="1"/>
        <pt x="705" y="708" on="0"/>
        <pt x="704" y="706" on="1"/>
        <pt x="681" y="545" on="1"/>
        <pt x="679" y="532" on="0"/>
        <pt x="668" y="532" on="1"/>
        <pt x="614" y="532" on="1"/>
        <pt x="600" y="532" on="0"/>
        <pt x="603" y="545" on="1"/>
        <pt x="616" y="643" on="1"/>
        <pt x="315" y="643" on="1"/>
        <pt x="280" y="395" on="1"/>
        <pt x="533" y="395" on="1"/>
        <pt x="546" y="395" on="0"/>
        <pt x="544" y="383" on="1"/>
        <pt x="537" y="332" on="1"/>
        <pt x="536" y="320" on="0"/>
        <pt x="523" y="320" on="1"/>
        <pt x="269" y="320" on="1"/>
        <pt x="235" y="75" on="1"/>
        <pt x="536" y="75" on="1"/>
        <pt x="550" y="173" on="1"/>
        <pt x="552" y="185" on="0"/>
        <pt x="564" y="185" on="1"/>
        <pt x="619" y="185" on="1"/>
        <pt x="630" y="185" on="0"/>
        <pt x="629" y="173" on="1"/>
        <pt x="607" y="12" on="1"/>
        <pt x="606" y="0" on="0"/>
      </contour>
      <contour>
        <pt x="575" y="780" on="1"/>
        <pt x="280" y="780" on="1"/>
        <pt x="267" y="780" on="0"/>
        <pt x="269" y="793" on="1"/>
        <pt x="275" y="835" on="1"/>
        <pt x="277" y="849" on="0"/>
        <pt x="290" y="849" on="1"/>
        <pt x="585" y="849" on="1"/>
        <pt x="599" y="849" on="0"/>
        <pt x="597" y="835" on="1"/>
        <pt x="591" y="793" on="1"/>
        <pt x="589" y="780" on="0"/>
      </contour>
    </TTGlyph>
    <TTGlyph name="Eng" xMin="40" yMin="-232" xMax="862" yMax="718">
      <contour>
        <pt x="366" y="-156" on="1"/>
        <pt x="477" y="-156" on="0"/>
        <pt x="581" y="-81" on="0"/>
        <pt x="586" y="-1" on="1"/>
        <pt x="586" y="3" on="1"/>
        <pt x="570" y="9" on="0"/>
        <pt x="559" y="31" on="1"/>
        <pt x="335" y="483" on="1"/>
        <pt x="296" y="567" on="1"/>
        <pt x="294" y="567" on="1"/>
        <pt x="225" y="75" on="1"/>
        <pt x="302" y="75" on="1"/>
        <pt x="314" y="75" on="0"/>
        <pt x="313" y="63" on="1"/>
        <pt x="306" y="12" on="1"/>
        <pt x="304" y="0" on="0"/>
        <pt x="291" y="0" on="1"/>
        <pt x="51" y="0" on="1"/>
        <pt x="38" y="0" on="0"/>
        <pt x="40" y="12" on="1"/>
        <pt x="47" y="63" on="1"/>
        <pt x="48" y="75" on="0"/>
        <pt x="61" y="75" on="1"/>
        <pt x="138" y="75" on="1"/>
        <pt x="218" y="643" on="1"/>
        <pt x="141" y="643" on="1"/>
        <pt x="130" y="643" on="0"/>
        <pt x="131" y="655" on="1"/>
        <pt x="138" y="706" on="1"/>
        <pt x="140" y="718" on="0"/>
        <pt x="152" y="718" on="1"/>
        <pt x="292" y="718" on="1"/>
        <pt x="321" y="718" on="0"/>
        <pt x="339" y="684" on="1"/>
        <pt x="561" y="238" on="1"/>
        <pt x="604" y="141" on="1"/>
        <pt x="606" y="141" on="1"/>
        <pt x="676" y="643" on="1"/>
        <pt x="600" y="643" on="1"/>
        <pt x="588" y="643" on="0"/>
        <pt x="589" y="655" on="1"/>
        <pt x="597" y="706" on="1"/>
        <pt x="598" y="718" on="0"/>
        <pt x="610" y="718" on="1"/>
        <pt x="851" y="718" on="1"/>
        <pt x="864" y="718" on="0"/>
        <pt x="862" y="706" on="1"/>
        <pt x="855" y="655" on="1"/>
        <pt x="854" y="643" on="0"/>
        <pt x="841" y="643" on="1"/>
        <pt x="764" y="643" on="1"/>
        <pt x="675" y="14" on="1"/>
        <pt x="657" y="-111" on="0"/>
        <pt x="506" y="-232" on="0"/>
        <pt x="355" y="-232" on="1"/>
        <pt x="342" y="-232" on="0"/>
        <pt x="344" y="-219" on="1"/>
        <pt x="351" y="-169" on="1"/>
        <pt x="353" y="-156" on="0"/>
      </contour>
    </TTGlyph>
    <TTGlyph name="Eogonek" xMin="50" yMin="-161" xMax="705" yMax="718">
      <contour>
        <pt x="592" y="0" on="1"/>
        <pt x="530" y="0" on="1"/>
        <pt x="448" y="-41" on="0"/>
        <pt x="448" y="-87" on="1"/>
        <pt x="448" y="-116" on="0"/>
        <pt x="482" y="-116" on="1"/>
        <pt x="503" y="-116" on="0"/>
        <pt x="523" y="-105" on="1"/>
        <pt x="538" y="-99" on="0"/>
        <pt x="541" y="-107" on="1"/>
        <pt x="548" y="-120" on="1"/>
        <pt x="552" y="-131" on="0"/>
        <pt x="543" y="-137" on="1"/>
        <pt x="501" y="-161" on="0"/>
        <pt x="434" y="-161" on="0"/>
        <pt x="395" y="-127" on="0"/>
        <pt x="395" y="-62" on="0"/>
        <pt x="448" y="-11" on="0"/>
        <pt x="478" y="0" on="1"/>
        <pt x="61" y="0" on="1"/>
        <pt x="48" y="0" on="0"/>
        <pt x="50" y="12" on="1"/>
        <pt x="57" y="63" on="1"/>
        <pt x="58" y="75" on="0"/>
        <pt x="71" y="75" on="1"/>
        <pt x="148" y="75" on="1"/>
        <pt x="228" y="643" on="1"/>
        <pt x="151" y="643" on="1"/>
        <pt x="140" y="643" on="0"/>
        <pt x="141" y="655" on="1"/>
        <pt x="148" y="706" on="1"/>
        <pt x="150" y="718" on="0"/>
        <pt x="162" y="718" on="1"/>
        <pt x="693" y="718" on="1"/>
        <pt x="705" y="718" on="0"/>
        <pt x="705" y="710" on="1"/>
        <pt x="705" y="708" on="0"/>
        <pt x="704" y="706" on="1"/>
        <pt x="681" y="545" on="1"/>
        <pt x="679" y="532" on="0"/>
        <pt x="668" y="532" on="1"/>
        <pt x="614" y="532" on="1"/>
        <pt x="600" y="532" on="0"/>
        <pt x="603" y="545" on="1"/>
        <pt x="616" y="643" on="1"/>
        <pt x="315" y="643" on="1"/>
        <pt x="280" y="395" on="1"/>
        <pt x="533" y="395" on="1"/>
        <pt x="546" y="395" on="0"/>
        <pt x="544" y="383" on="1"/>
        <pt x="537" y="332" on="1"/>
        <pt x="536" y="320" on="0"/>
        <pt x="523" y="320" on="1"/>
        <pt x="269" y="320" on="1"/>
        <pt x="235" y="75" on="1"/>
        <pt x="536" y="75" on="1"/>
        <pt x="550" y="173" on="1"/>
        <pt x="552" y="185" on="0"/>
        <pt x="564" y="185" on="1"/>
        <pt x="619" y="185" on="1"/>
        <pt x="630" y="185" on="0"/>
        <pt x="629" y="173" on="1"/>
        <pt x="607" y="12" on="1"/>
        <pt x="606" y="0" on="0"/>
      </contour>
    </TTGlyph>
    <TTGlyph name="Eth" xMin="50" yMin="0" xMax="748" yMax="718">
      <contour>
        <pt x="348" y="0" on="1"/>
        <pt x="61" y="0" on="1"/>
        <pt x="48" y="0" on="0"/>
        <pt x="50" y="12" on="1"/>
        <pt x="58" y="63" on="1"/>
        <pt x="60" y="75" on="0"/>
        <pt x="72" y="75" on="1"/>
        <pt x="148" y="75" on="1"/>
        <pt x="183" y="324" on="1"/>
        <pt x="115" y="324" on="1"/>
        <pt x="101" y="324" on="0"/>
        <pt x="103" y="337" on="1"/>
        <pt x="109" y="379" on="1"/>
        <pt x="111" y="393" on="0"/>
        <pt x="124" y="393" on="1"/>
        <pt x="193" y="393" on="1"/>
        <pt x="228" y="643" on="1"/>
        <pt x="151" y="643" on="1"/>
        <pt x="140" y="643" on="0"/>
        <pt x="141" y="655" on="1"/>
        <pt x="148" y="706" on="1"/>
        <pt x="150" y="718" on="0"/>
        <pt x="162" y="718" on="1"/>
        <pt x="431" y="718" on="1"/>
        <pt x="579" y="718" on="0"/>
        <pt x="748" y="558" on="0"/>
        <pt x="748" y="416" on="1"/>
        <pt x="748" y="228" on="0"/>
        <pt x="528" y="0" on="0"/>
      </contour>
      <contour>
        <pt x="335" y="75" on="1"/>
        <pt x="491" y="75" on="0"/>
        <pt x="657" y="247" on="0"/>
        <pt x="657" y="407" on="1"/>
        <pt x="657" y="519" on="0"/>
        <pt x="533" y="643" on="0"/>
        <pt x="411" y="643" on="1"/>
        <pt x="315" y="643" on="1"/>
        <pt x="280" y="393" on="1"/>
        <pt x="432" y="393" on="1"/>
        <pt x="446" y="393" on="0"/>
        <pt x="444" y="379" on="1"/>
        <pt x="438" y="337" on="1"/>
        <pt x="436" y="324" on="0"/>
        <pt x="423" y="324" on="1"/>
        <pt x="270" y="324" on="1"/>
        <pt x="235" y="75" on="1"/>
      </contour>
    </TTGlyph>
    <TTGlyph name="Euro" xMin="75" yMin="-7" xMax="745" yMax="724">
      <contour>
        <pt x="163" y="308" on="1"/>
        <pt x="164" y="329" on="1"/>
        <pt x="164" y="358" on="0"/>
        <pt x="175" y="401" on="1"/>
        <pt x="108" y="401" on="1"/>
        <pt x="96" y="401" on="0"/>
        <pt x="97" y="413" on="1"/>
        <pt x="102" y="449" on="1"/>
        <pt x="104" y="462" on="0"/>
        <pt x="116" y="462" on="1"/>
        <pt x="193" y="462" on="1"/>
        <pt x="237" y="584" on="0"/>
        <pt x="435" y="724" on="0"/>
        <pt x="652" y="724" on="0"/>
        <pt x="741" y="661" on="1"/>
        <pt x="745" y="657" on="0"/>
        <pt x="745" y="648" on="0"/>
        <pt x="741" y="644" on="1"/>
        <pt x="701" y="602" on="1"/>
        <pt x="692" y="593" on="0"/>
        <pt x="684" y="600" on="1"/>
        <pt x="630" y="642" on="0"/>
        <pt x="468" y="642" on="0"/>
        <pt x="324" y="549" on="0"/>
        <pt x="289" y="462" on="1"/>
        <pt x="554" y="462" on="1"/>
        <pt x="566" y="462" on="0"/>
        <pt x="564" y="449" on="1"/>
        <pt x="559" y="413" on="1"/>
        <pt x="558" y="401" on="0"/>
        <pt x="545" y="401" on="1"/>
        <pt x="268" y="401" on="1"/>
        <pt x="256" y="356" on="0"/>
        <pt x="256" y="324" on="1"/>
        <pt x="256" y="308" on="1"/>
        <pt x="474" y="308" on="1"/>
        <pt x="486" y="308" on="0"/>
        <pt x="485" y="296" on="1"/>
        <pt x="479" y="259" on="1"/>
        <pt x="478" y="247" on="0"/>
        <pt x="465" y="247" on="1"/>
        <pt x="266" y="247" on="1"/>
        <pt x="280" y="164" on="0"/>
        <pt x="394" y="77" on="0"/>
        <pt x="469" y="77" on="1"/>
        <pt x="569" y="77" on="0"/>
        <pt x="638" y="121" on="1"/>
        <pt x="650" y="128" on="0"/>
        <pt x="655" y="121" on="1"/>
        <pt x="684" y="78" on="1"/>
        <pt x="691" y="68" on="0"/>
        <pt x="682" y="60" on="1"/>
        <pt x="590" y="-7" on="0"/>
        <pt x="337" y="-7" on="0"/>
        <pt x="181" y="129" on="0"/>
        <pt x="166" y="247" on="1"/>
        <pt x="85" y="247" on="1"/>
        <pt x="74" y="247" on="0"/>
        <pt x="75" y="259" on="1"/>
        <pt x="80" y="296" on="1"/>
        <pt x="82" y="308" on="0"/>
        <pt x="94" y="308" on="1"/>
      </contour>
    </TTGlyph>
    <TTGlyph name="F" xMin="50" yMin="0" xMax="687" yMax="718">
      <contour>
        <pt x="337" y="0" on="1"/>
        <pt x="61" y="0" on="1"/>
        <pt x="48" y="0" on="0"/>
        <pt x="50" y="12" on="1"/>
        <pt x="57" y="63" on="1"/>
        <pt x="58" y="75" on="0"/>
        <pt x="71" y="75" on="1"/>
        <pt x="148" y="75" on="1"/>
        <pt x="228" y="643" on="1"/>
        <pt x="151" y="643" on="1"/>
        <pt x="140" y="643" on="0"/>
        <pt x="141" y="655" on="1"/>
        <pt x="148" y="706" on="1"/>
        <pt x="150" y="718" on="0"/>
        <pt x="162" y="718" on="1"/>
        <pt x="675" y="718" on="1"/>
        <pt x="687" y="718" on="0"/>
        <pt x="687" y="710" on="1"/>
        <pt x="687" y="708" on="0"/>
        <pt x="686" y="706" on="1"/>
        <pt x="664" y="545" on="1"/>
        <pt x="661" y="532" on="0"/>
        <pt x="650" y="532" on="1"/>
        <pt x="596" y="532" on="1"/>
        <pt x="582" y="532" on="0"/>
        <pt x="585" y="545" on="1"/>
        <pt x="598" y="643" on="1"/>
        <pt x="315" y="643" on="1"/>
        <pt x="280" y="395" on="1"/>
        <pt x="515" y="395" on="1"/>
        <pt x="528" y="395" on="0"/>
        <pt x="526" y="383" on="1"/>
        <pt x="519" y="332" on="1"/>
        <pt x="518" y="320" on="0"/>
        <pt x="505" y="320" on="1"/>
        <pt x="269" y="320" on="1"/>
        <pt x="235" y="75" on="1"/>
        <pt x="348" y="75" on="1"/>
        <pt x="361" y="75" on="0"/>
        <pt x="358" y="63" on="1"/>
        <pt x="351" y="12" on="1"/>
        <pt x="350" y="0" on="0"/>
      </contour>
    </TTGlyph>
    <TTGlyph name="G" xMin="94" yMin="-7" xMax="788" yMax="724">
      <contour>
        <pt x="690" y="0" on="1"/>
        <pt x="637" y="0" on="1"/>
        <pt x="623" y="0" on="0"/>
        <pt x="626" y="12" on="1"/>
        <pt x="636" y="81" on="1"/>
        <pt x="537" y="-7" on="0"/>
        <pt x="259" y="-7" on="0"/>
        <pt x="94" y="165" on="0"/>
        <pt x="94" y="309" on="1"/>
        <pt x="94" y="405" on="0"/>
        <pt x="163" y="566" on="0"/>
        <pt x="277" y="668" on="0"/>
        <pt x="418" y="724" on="0"/>
        <pt x="491" y="724" on="1"/>
        <pt x="645" y="724" on="0"/>
        <pt x="697" y="629" on="1"/>
        <pt x="706" y="706" on="1"/>
        <pt x="708" y="718" on="0"/>
        <pt x="721" y="718" on="1"/>
        <pt x="777" y="718" on="1"/>
        <pt x="790" y="718" on="0"/>
        <pt x="788" y="706" on="1"/>
        <pt x="759" y="500" on="1"/>
        <pt x="758" y="488" on="0"/>
        <pt x="744" y="488" on="1"/>
        <pt x="681" y="488" on="1"/>
        <pt x="670" y="488" on="0"/>
        <pt x="671" y="500" on="1"/>
        <pt x="672" y="512" on="1"/>
        <pt x="672" y="515" on="0"/>
        <pt x="672" y="518" on="1"/>
        <pt x="672" y="560" on="0"/>
        <pt x="570" y="642" on="0"/>
        <pt x="483" y="642" on="1"/>
        <pt x="429" y="642" on="0"/>
        <pt x="324" y="596" on="0"/>
        <pt x="239" y="515" on="0"/>
        <pt x="187" y="390" on="0"/>
        <pt x="187" y="318" on="1"/>
        <pt x="187" y="206" on="0"/>
        <pt x="315" y="77" on="0"/>
        <pt x="405" y="77" on="1"/>
        <pt x="561" y="77" on="0"/>
        <pt x="642" y="178" on="1"/>
        <pt x="653" y="256" on="1"/>
        <pt x="467" y="256" on="1"/>
        <pt x="454" y="256" on="0"/>
        <pt x="456" y="269" on="1"/>
        <pt x="462" y="315" on="1"/>
        <pt x="465" y="327" on="0"/>
        <pt x="477" y="327" on="1"/>
        <pt x="736" y="327" on="1"/>
        <pt x="748" y="327" on="0"/>
        <pt x="746" y="315" on="1"/>
        <pt x="703" y="12" on="1"/>
        <pt x="702" y="0" on="0"/>
      </contour>
    </TTGlyph>
    <TTGlyph name="Gbreve" xMin="94" yMin="-7" xMax="788" yMax="941">
      <contour>
        <pt x="690" y="0" on="1"/>
        <pt x="637" y="0" on="1"/>
        <pt x="623" y="0" on="0"/>
        <pt x="626" y="12" on="1"/>
        <pt x="636" y="81" on="1"/>
        <pt x="537" y="-7" on="0"/>
        <pt x="259" y="-7" on="0"/>
        <pt x="94" y="165" on="0"/>
        <pt x="94" y="309" on="1"/>
        <pt x="94" y="405" on="0"/>
        <pt x="163" y="566" on="0"/>
        <pt x="277" y="668" on="0"/>
        <pt x="418" y="724" on="0"/>
        <pt x="491" y="724" on="1"/>
        <pt x="645" y="724" on="0"/>
        <pt x="697" y="629" on="1"/>
        <pt x="706" y="706" on="1"/>
        <pt x="708" y="718" on="0"/>
        <pt x="721" y="718" on="1"/>
        <pt x="777" y="718" on="1"/>
        <pt x="790" y="718" on="0"/>
        <pt x="788" y="706" on="1"/>
        <pt x="759" y="500" on="1"/>
        <pt x="758" y="488" on="0"/>
        <pt x="744" y="488" on="1"/>
        <pt x="681" y="488" on="1"/>
        <pt x="670" y="488" on="0"/>
        <pt x="671" y="500" on="1"/>
        <pt x="672" y="512" on="1"/>
        <pt x="672" y="515" on="0"/>
        <pt x="672" y="518" on="1"/>
        <pt x="672" y="560" on="0"/>
        <pt x="570" y="642" on="0"/>
        <pt x="483" y="642" on="1"/>
        <pt x="429" y="642" on="0"/>
        <pt x="324" y="596" on="0"/>
        <pt x="239" y="515" on="0"/>
        <pt x="187" y="390" on="0"/>
        <pt x="187" y="318" on="1"/>
        <pt x="187" y="206" on="0"/>
        <pt x="315" y="77" on="0"/>
        <pt x="405" y="77" on="1"/>
        <pt x="561" y="77" on="0"/>
        <pt x="642" y="178" on="1"/>
        <pt x="653" y="256" on="1"/>
        <pt x="467" y="256" on="1"/>
        <pt x="454" y="256" on="0"/>
        <pt x="456" y="269" on="1"/>
        <pt x="462" y="315" on="1"/>
        <pt x="465" y="327" on="0"/>
        <pt x="477" y="327" on="1"/>
        <pt x="736" y="327" on="1"/>
        <pt x="748" y="327" on="0"/>
        <pt x="746" y="315" on="1"/>
        <pt x="703" y="12" on="1"/>
        <pt x="702" y="0" on="0"/>
      </contour>
      <contour>
        <pt x="626" y="941" on="1"/>
        <pt x="657" y="941" on="1"/>
        <pt x="669" y="941" on="0"/>
        <pt x="669" y="930" on="1"/>
        <pt x="669" y="867" on="0"/>
        <pt x="577" y="789" on="0"/>
        <pt x="453" y="789" on="0"/>
        <pt x="387" y="849" on="0"/>
        <pt x="387" y="906" on="1"/>
        <pt x="387" y="941" on="0"/>
        <pt x="404" y="941" on="1"/>
        <pt x="436" y="941" on="1"/>
        <pt x="446" y="941" on="0"/>
        <pt x="446" y="880" on="0"/>
        <pt x="485" y="840" on="0"/>
        <pt x="550" y="840" on="0"/>
        <pt x="604" y="887" on="0"/>
        <pt x="610" y="928" on="1"/>
        <pt x="612" y="941" on="0"/>
      </contour>
    </TTGlyph>
    <TTGlyph name="Gcircumflex" xMin="94" yMin="-7" xMax="788" yMax="989">
      <contour>
        <pt x="519" y="985" on="1"/>
        <pt x="524" y="989" on="0"/>
        <pt x="535" y="989" on="0"/>
        <pt x="539" y="984" on="1"/>
        <pt x="674" y="849" on="1"/>
        <pt x="682" y="840" on="0"/>
        <pt x="674" y="830" on="1"/>
        <pt x="645" y="801" on="1"/>
        <pt x="635" y="791" on="0"/>
        <pt x="626" y="799" on="1"/>
        <pt x="517" y="904" on="1"/>
        <pt x="380" y="799" on="1"/>
        <pt x="368" y="790" on="0"/>
        <pt x="361" y="801" on="1"/>
        <pt x="340" y="830" on="1"/>
        <pt x="333" y="840" on="0"/>
        <pt x="345" y="849" on="1"/>
      </contour>
      <contour>
        <pt x="690" y="0" on="1"/>
        <pt x="637" y="0" on="1"/>
        <pt x="623" y="0" on="0"/>
        <pt x="626" y="12" on="1"/>
        <pt x="636" y="81" on="1"/>
        <pt x="537" y="-7" on="0"/>
        <pt x="259" y="-7" on="0"/>
        <pt x="94" y="165" on="0"/>
        <pt x="94" y="309" on="1"/>
        <pt x="94" y="405" on="0"/>
        <pt x="163" y="566" on="0"/>
        <pt x="277" y="668" on="0"/>
        <pt x="418" y="724" on="0"/>
        <pt x="491" y="724" on="1"/>
        <pt x="645" y="724" on="0"/>
        <pt x="697" y="629" on="1"/>
        <pt x="706" y="706" on="1"/>
        <pt x="708" y="718" on="0"/>
        <pt x="721" y="718" on="1"/>
        <pt x="777" y="718" on="1"/>
        <pt x="790" y="718" on="0"/>
        <pt x="788" y="706" on="1"/>
        <pt x="759" y="500" on="1"/>
        <pt x="758" y="488" on="0"/>
        <pt x="744" y="488" on="1"/>
        <pt x="681" y="488" on="1"/>
        <pt x="670" y="488" on="0"/>
        <pt x="671" y="500" on="1"/>
        <pt x="672" y="512" on="1"/>
        <pt x="672" y="515" on="0"/>
        <pt x="672" y="518" on="1"/>
        <pt x="672" y="560" on="0"/>
        <pt x="570" y="642" on="0"/>
        <pt x="483" y="642" on="1"/>
        <pt x="429" y="642" on="0"/>
        <pt x="324" y="596" on="0"/>
        <pt x="239" y="515" on="0"/>
        <pt x="187" y="390" on="0"/>
        <pt x="187" y="318" on="1"/>
        <pt x="187" y="206" on="0"/>
        <pt x="315" y="77" on="0"/>
        <pt x="405" y="77" on="1"/>
        <pt x="561" y="77" on="0"/>
        <pt x="642" y="178" on="1"/>
        <pt x="653" y="256" on="1"/>
        <pt x="467" y="256" on="1"/>
        <pt x="454" y="256" on="0"/>
        <pt x="456" y="269" on="1"/>
        <pt x="462" y="315" on="1"/>
        <pt x="465" y="327" on="0"/>
        <pt x="477" y="327" on="1"/>
        <pt x="736" y="327" on="1"/>
        <pt x="748" y="327" on="0"/>
        <pt x="746" y="315" on="1"/>
        <pt x="703" y="12" on="1"/>
        <pt x="702" y="0" on="0"/>
      </contour>
    </TTGlyph>
    <TTGlyph name="Gcommaaccent" xMin="94" yMin="-228" xMax="788" yMax="724">
      <contour>
        <pt x="331" y="-205" on="1"/>
        <pt x="332" y="-199" on="0"/>
        <pt x="356" y="-199" on="0"/>
        <pt x="387" y="-169" on="0"/>
        <pt x="387" y="-141" on="1"/>
        <pt x="386" y="-135" on="1"/>
        <pt x="380" y="-140" on="0"/>
        <pt x="351" y="-140" on="0"/>
        <pt x="330" y="-118" on="0"/>
        <pt x="330" y="-78" on="0"/>
        <pt x="362" y="-46" on="0"/>
        <pt x="384" y="-46" on="1"/>
        <pt x="430" y="-46" on="0"/>
        <pt x="430" y="-165" on="0"/>
        <pt x="376" y="-228" on="0"/>
        <pt x="335" y="-228" on="1"/>
        <pt x="328" y="-228" on="0"/>
        <pt x="328" y="-222" on="1"/>
      </contour>
      <contour>
        <pt x="690" y="0" on="1"/>
        <pt x="637" y="0" on="1"/>
        <pt x="623" y="0" on="0"/>
        <pt x="626" y="12" on="1"/>
        <pt x="636" y="81" on="1"/>
        <pt x="537" y="-7" on="0"/>
        <pt x="259" y="-7" on="0"/>
        <pt x="94" y="165" on="0"/>
        <pt x="94" y="309" on="1"/>
        <pt x="94" y="405" on="0"/>
        <pt x="163" y="566" on="0"/>
        <pt x="277" y="668" on="0"/>
        <pt x="418" y="724" on="0"/>
        <pt x="491" y="724" on="1"/>
        <pt x="645" y="724" on="0"/>
        <pt x="697" y="629" on="1"/>
        <pt x="706" y="706" on="1"/>
        <pt x="708" y="718" on="0"/>
        <pt x="721" y="718" on="1"/>
        <pt x="777" y="718" on="1"/>
        <pt x="790" y="718" on="0"/>
        <pt x="788" y="706" on="1"/>
        <pt x="759" y="500" on="1"/>
        <pt x="758" y="488" on="0"/>
        <pt x="744" y="488" on="1"/>
        <pt x="681" y="488" on="1"/>
        <pt x="670" y="488" on="0"/>
        <pt x="671" y="500" on="1"/>
        <pt x="672" y="512" on="1"/>
        <pt x="672" y="515" on="0"/>
        <pt x="672" y="518" on="1"/>
        <pt x="672" y="560" on="0"/>
        <pt x="570" y="642" on="0"/>
        <pt x="483" y="642" on="1"/>
        <pt x="429" y="642" on="0"/>
        <pt x="324" y="596" on="0"/>
        <pt x="239" y="515" on="0"/>
        <pt x="187" y="390" on="0"/>
        <pt x="187" y="318" on="1"/>
        <pt x="187" y="206" on="0"/>
        <pt x="315" y="77" on="0"/>
        <pt x="405" y="77" on="1"/>
        <pt x="561" y="77" on="0"/>
        <pt x="642" y="178" on="1"/>
        <pt x="653" y="256" on="1"/>
        <pt x="467" y="256" on="1"/>
        <pt x="454" y="256" on="0"/>
        <pt x="456" y="269" on="1"/>
        <pt x="462" y="315" on="1"/>
        <pt x="465" y="327" on="0"/>
        <pt x="477" y="327" on="1"/>
        <pt x="736" y="327" on="1"/>
        <pt x="748" y="327" on="0"/>
        <pt x="746" y="315" on="1"/>
        <pt x="703" y="12" on="1"/>
        <pt x="702" y="0" on="0"/>
      </contour>
    </TTGlyph>
    <TTGlyph name="Gdotaccent" xMin="94" yMin="-7" xMax="788" yMax="897">
      <contour>
        <pt x="690" y="0" on="1"/>
        <pt x="637" y="0" on="1"/>
        <pt x="623" y="0" on="0"/>
        <pt x="626" y="12" on="1"/>
        <pt x="636" y="81" on="1"/>
        <pt x="537" y="-7" on="0"/>
        <pt x="259" y="-7" on="0"/>
        <pt x="94" y="165" on="0"/>
        <pt x="94" y="309" on="1"/>
        <pt x="94" y="405" on="0"/>
        <pt x="163" y="566" on="0"/>
        <pt x="277" y="668" on="0"/>
        <pt x="418" y="724" on="0"/>
        <pt x="491" y="724" on="1"/>
        <pt x="645" y="724" on="0"/>
        <pt x="697" y="629" on="1"/>
        <pt x="706" y="706" on="1"/>
        <pt x="708" y="718" on="0"/>
        <pt x="721" y="718" on="1"/>
        <pt x="777" y="718" on="1"/>
        <pt x="790" y="718" on="0"/>
        <pt x="788" y="706" on="1"/>
        <pt x="759" y="500" on="1"/>
        <pt x="758" y="488" on="0"/>
        <pt x="744" y="488" on="1"/>
        <pt x="681" y="488" on="1"/>
        <pt x="670" y="488" on="0"/>
        <pt x="671" y="500" on="1"/>
        <pt x="672" y="512" on="1"/>
        <pt x="672" y="515" on="0"/>
        <pt x="672" y="518" on="1"/>
        <pt x="672" y="560" on="0"/>
        <pt x="570" y="642" on="0"/>
        <pt x="483" y="642" on="1"/>
        <pt x="429" y="642" on="0"/>
        <pt x="324" y="596" on="0"/>
        <pt x="239" y="515" on="0"/>
        <pt x="187" y="390" on="0"/>
        <pt x="187" y="318" on="1"/>
        <pt x="187" y="206" on="0"/>
        <pt x="315" y="77" on="0"/>
        <pt x="405" y="77" on="1"/>
        <pt x="561" y="77" on="0"/>
        <pt x="642" y="178" on="1"/>
        <pt x="653" y="256" on="1"/>
        <pt x="467" y="256" on="1"/>
        <pt x="454" y="256" on="0"/>
        <pt x="456" y="269" on="1"/>
        <pt x="462" y="315" on="1"/>
        <pt x="465" y="327" on="0"/>
        <pt x="477" y="327" on="1"/>
        <pt x="736" y="327" on="1"/>
        <pt x="748" y="327" on="0"/>
        <pt x="746" y="315" on="1"/>
        <pt x="703" y="12" on="1"/>
        <pt x="702" y="0" on="0"/>
      </contour>
      <contour>
        <pt x="536" y="897" on="0"/>
        <pt x="562" y="870" on="0"/>
        <pt x="562" y="827" on="0"/>
        <pt x="525" y="792" on="0"/>
        <pt x="482" y="792" on="0"/>
        <pt x="456" y="818" on="0"/>
        <pt x="456" y="862" on="0"/>
        <pt x="492" y="897" on="0"/>
      </contour>
    </TTGlyph>
    <TTGlyph name="H" xMin="50" yMin="0" xMax="872" yMax="718">
      <contour>
        <pt x="760" y="0" on="1"/>
        <pt x="519" y="0" on="1"/>
        <pt x="508" y="0" on="0"/>
        <pt x="509" y="12" on="1"/>
        <pt x="516" y="63" on="1"/>
        <pt x="518" y="75" on="0"/>
        <pt x="530" y="75" on="1"/>
        <pt x="606" y="75" on="1"/>
        <pt x="641" y="320" on="1"/>
        <pt x="269" y="320" on="1"/>
        <pt x="235" y="75" on="1"/>
        <pt x="312" y="75" on="1"/>
        <pt x="324" y="75" on="0"/>
        <pt x="323" y="63" on="1"/>
        <pt x="316" y="12" on="1"/>
        <pt x="314" y="0" on="0"/>
        <pt x="301" y="0" on="1"/>
        <pt x="61" y="0" on="1"/>
        <pt x="48" y="0" on="0"/>
        <pt x="50" y="12" on="1"/>
        <pt x="57" y="63" on="1"/>
        <pt x="58" y="75" on="0"/>
        <pt x="71" y="75" on="1"/>
        <pt x="148" y="75" on="1"/>
        <pt x="228" y="643" on="1"/>
        <pt x="151" y="643" on="1"/>
        <pt x="140" y="643" on="0"/>
        <pt x="141" y="655" on="1"/>
        <pt x="148" y="706" on="1"/>
        <pt x="150" y="718" on="0"/>
        <pt x="162" y="718" on="1"/>
        <pt x="402" y="718" on="1"/>
        <pt x="414" y="718" on="0"/>
        <pt x="413" y="706" on="1"/>
        <pt x="406" y="655" on="1"/>
        <pt x="404" y="643" on="0"/>
        <pt x="392" y="643" on="1"/>
        <pt x="315" y="643" on="1"/>
        <pt x="280" y="393" on="1"/>
        <pt x="651" y="393" on="1"/>
        <pt x="686" y="643" on="1"/>
        <pt x="610" y="643" on="1"/>
        <pt x="598" y="643" on="0"/>
        <pt x="599" y="655" on="1"/>
        <pt x="606" y="706" on="1"/>
        <pt x="608" y="718" on="0"/>
        <pt x="620" y="718" on="1"/>
        <pt x="861" y="718" on="1"/>
        <pt x="874" y="718" on="0"/>
        <pt x="872" y="706" on="1"/>
        <pt x="865" y="655" on="1"/>
        <pt x="864" y="643" on="0"/>
        <pt x="851" y="643" on="1"/>
        <pt x="773" y="643" on="1"/>
        <pt x="694" y="75" on="1"/>
        <pt x="771" y="75" on="1"/>
        <pt x="784" y="75" on="0"/>
        <pt x="781" y="63" on="1"/>
        <pt x="774" y="12" on="1"/>
        <pt x="772" y="0" on="0"/>
      </contour>
    </TTGlyph>
    <TTGlyph name="Hbar" xMin="50" yMin="0" xMax="872" yMax="718">
      <contour>
        <pt x="760" y="0" on="1"/>
        <pt x="519" y="0" on="1"/>
        <pt x="508" y="0" on="0"/>
        <pt x="509" y="12" on="1"/>
        <pt x="516" y="63" on="1"/>
        <pt x="518" y="75" on="0"/>
        <pt x="530" y="75" on="1"/>
        <pt x="606" y="75" on="1"/>
        <pt x="641" y="320" on="1"/>
        <pt x="269" y="320" on="1"/>
        <pt x="235" y="75" on="1"/>
        <pt x="312" y="75" on="1"/>
        <pt x="324" y="75" on="0"/>
        <pt x="323" y="63" on="1"/>
        <pt x="316" y="12" on="1"/>
        <pt x="314" y="0" on="0"/>
        <pt x="301" y="0" on="1"/>
        <pt x="61" y="0" on="1"/>
        <pt x="48" y="0" on="0"/>
        <pt x="50" y="12" on="1"/>
        <pt x="57" y="63" on="1"/>
        <pt x="58" y="75" on="0"/>
        <pt x="71" y="75" on="1"/>
        <pt x="148" y="75" on="1"/>
        <pt x="206" y="489" on="1"/>
        <pt x="146" y="489" on="1"/>
        <pt x="135" y="489" on="0"/>
        <pt x="137" y="500" on="1"/>
        <pt x="141" y="529" on="1"/>
        <pt x="143" y="540" on="0"/>
        <pt x="153" y="540" on="1"/>
        <pt x="213" y="540" on="1"/>
        <pt x="228" y="643" on="1"/>
        <pt x="151" y="643" on="1"/>
        <pt x="140" y="643" on="0"/>
        <pt x="141" y="655" on="1"/>
        <pt x="148" y="706" on="1"/>
        <pt x="150" y="718" on="0"/>
        <pt x="162" y="718" on="1"/>
        <pt x="402" y="718" on="1"/>
        <pt x="414" y="718" on="0"/>
        <pt x="413" y="706" on="1"/>
        <pt x="406" y="655" on="1"/>
        <pt x="404" y="643" on="0"/>
        <pt x="392" y="643" on="1"/>
        <pt x="315" y="643" on="1"/>
        <pt x="300" y="540" on="1"/>
        <pt x="672" y="540" on="1"/>
        <pt x="686" y="643" on="1"/>
        <pt x="610" y="643" on="1"/>
        <pt x="598" y="643" on="0"/>
        <pt x="599" y="655" on="1"/>
        <pt x="606" y="706" on="1"/>
        <pt x="608" y="718" on="0"/>
        <pt x="620" y="718" on="1"/>
        <pt x="861" y="718" on="1"/>
        <pt x="874" y="718" on="0"/>
        <pt x="872" y="706" on="1"/>
        <pt x="865" y="655" on="1"/>
        <pt x="864" y="643" on="0"/>
        <pt x="851" y="643" on="1"/>
        <pt x="773" y="643" on="1"/>
        <pt x="759" y="540" on="1"/>
        <pt x="806" y="540" on="1"/>
        <pt x="818" y="540" on="0"/>
        <pt x="816" y="529" on="1"/>
        <pt x="812" y="500" on="1"/>
        <pt x="810" y="489" on="0"/>
        <pt x="799" y="489" on="1"/>
        <pt x="752" y="489" on="1"/>
        <pt x="694" y="75" on="1"/>
        <pt x="771" y="75" on="1"/>
        <pt x="784" y="75" on="0"/>
        <pt x="781" y="63" on="1"/>
        <pt x="774" y="12" on="1"/>
        <pt x="772" y="0" on="0"/>
      </contour>
      <contour>
        <pt x="651" y="393" on="1"/>
        <pt x="665" y="489" on="1"/>
        <pt x="293" y="489" on="1"/>
        <pt x="280" y="393" on="1"/>
      </contour>
    </TTGlyph>
    <TTGlyph name="Hcircumflex" xMin="50" yMin="0" xMax="872" yMax="989">
      <contour>
        <pt x="546" y="985" on="1"/>
        <pt x="551" y="989" on="0"/>
        <pt x="562" y="989" on="0"/>
        <pt x="566" y="984" on="1"/>
        <pt x="701" y="849" on="1"/>
        <pt x="709" y="840" on="0"/>
        <pt x="701" y="830" on="1"/>
        <pt x="672" y="801" on="1"/>
        <pt x="662" y="791" on="0"/>
        <pt x="653" y="799" on="1"/>
        <pt x="544" y="904" on="1"/>
        <pt x="407" y="799" on="1"/>
        <pt x="395" y="790" on="0"/>
        <pt x="388" y="801" on="1"/>
        <pt x="367" y="830" on="1"/>
        <pt x="360" y="840" on="0"/>
        <pt x="372" y="849" on="1"/>
      </contour>
      <contour>
        <pt x="760" y="0" on="1"/>
        <pt x="519" y="0" on="1"/>
        <pt x="508" y="0" on="0"/>
        <pt x="509" y="12" on="1"/>
        <pt x="516" y="63" on="1"/>
        <pt x="518" y="75" on="0"/>
        <pt x="530" y="75" on="1"/>
        <pt x="606" y="75" on="1"/>
        <pt x="641" y="320" on="1"/>
        <pt x="269" y="320" on="1"/>
        <pt x="235" y="75" on="1"/>
        <pt x="312" y="75" on="1"/>
        <pt x="324" y="75" on="0"/>
        <pt x="323" y="63" on="1"/>
        <pt x="316" y="12" on="1"/>
        <pt x="314" y="0" on="0"/>
        <pt x="301" y="0" on="1"/>
        <pt x="61" y="0" on="1"/>
        <pt x="48" y="0" on="0"/>
        <pt x="50" y="12" on="1"/>
        <pt x="57" y="63" on="1"/>
        <pt x="58" y="75" on="0"/>
        <pt x="71" y="75" on="1"/>
        <pt x="148" y="75" on="1"/>
        <pt x="228" y="643" on="1"/>
        <pt x="151" y="643" on="1"/>
        <pt x="140" y="643" on="0"/>
        <pt x="141" y="655" on="1"/>
        <pt x="148" y="706" on="1"/>
        <pt x="150" y="718" on="0"/>
        <pt x="162" y="718" on="1"/>
        <pt x="402" y="718" on="1"/>
        <pt x="414" y="718" on="0"/>
        <pt x="413" y="706" on="1"/>
        <pt x="406" y="655" on="1"/>
        <pt x="404" y="643" on="0"/>
        <pt x="392" y="643" on="1"/>
        <pt x="315" y="643" on="1"/>
        <pt x="280" y="393" on="1"/>
        <pt x="651" y="393" on="1"/>
        <pt x="686" y="643" on="1"/>
        <pt x="610" y="643" on="1"/>
        <pt x="598" y="643" on="0"/>
        <pt x="599" y="655" on="1"/>
        <pt x="606" y="706" on="1"/>
        <pt x="608" y="718" on="0"/>
        <pt x="620" y="718" on="1"/>
        <pt x="861" y="718" on="1"/>
        <pt x="874" y="718" on="0"/>
        <pt x="872" y="706" on="1"/>
        <pt x="865" y="655" on="1"/>
        <pt x="864" y="643" on="0"/>
        <pt x="851" y="643" on="1"/>
        <pt x="773" y="643" on="1"/>
        <pt x="694" y="75" on="1"/>
        <pt x="771" y="75" on="1"/>
        <pt x="784" y="75" on="0"/>
        <pt x="781" y="63" on="1"/>
        <pt x="774" y="12" on="1"/>
        <pt x="772" y="0" on="0"/>
      </contour>
    </TTGlyph>
    <TTGlyph name="I" xMin="50" yMin="0" xMax="414" yMax="718">
      <contour>
        <pt x="301" y="0" on="1"/>
        <pt x="61" y="0" on="1"/>
        <pt x="48" y="0" on="0"/>
        <pt x="50" y="12" on="1"/>
        <pt x="57" y="63" on="1"/>
        <pt x="58" y="75" on="0"/>
        <pt x="71" y="75" on="1"/>
        <pt x="148" y="75" on="1"/>
        <pt x="228" y="643" on="1"/>
        <pt x="151" y="643" on="1"/>
        <pt x="140" y="643" on="0"/>
        <pt x="141" y="655" on="1"/>
        <pt x="148" y="706" on="1"/>
        <pt x="150" y="718" on="0"/>
        <pt x="162" y="718" on="1"/>
        <pt x="402" y="718" on="1"/>
        <pt x="414" y="718" on="0"/>
        <pt x="414" y="710" on="1"/>
        <pt x="414" y="708" on="0"/>
        <pt x="413" y="706" on="1"/>
        <pt x="406" y="655" on="1"/>
        <pt x="404" y="643" on="0"/>
        <pt x="392" y="643" on="1"/>
        <pt x="315" y="643" on="1"/>
        <pt x="235" y="75" on="1"/>
        <pt x="312" y="75" on="1"/>
        <pt x="324" y="75" on="0"/>
        <pt x="323" y="63" on="1"/>
        <pt x="316" y="12" on="1"/>
        <pt x="314" y="0" on="0"/>
      </contour>
    </TTGlyph>
    <TTGlyph name="Iacute" xMin="50" yMin="0" xMax="473" yMax="971">
      <contour>
        <pt x="301" y="0" on="1"/>
        <pt x="61" y="0" on="1"/>
        <pt x="48" y="0" on="0"/>
        <pt x="50" y="12" on="1"/>
        <pt x="57" y="63" on="1"/>
        <pt x="58" y="75" on="0"/>
        <pt x="71" y="75" on="1"/>
        <pt x="148" y="75" on="1"/>
        <pt x="228" y="643" on="1"/>
        <pt x="151" y="643" on="1"/>
        <pt x="140" y="643" on="0"/>
        <pt x="141" y="655" on="1"/>
        <pt x="148" y="706" on="1"/>
        <pt x="150" y="718" on="0"/>
        <pt x="162" y="718" on="1"/>
        <pt x="402" y="718" on="1"/>
        <pt x="416" y="718" on="0"/>
        <pt x="413" y="706" on="1"/>
        <pt x="406" y="655" on="1"/>
        <pt x="404" y="643" on="0"/>
        <pt x="392" y="643" on="1"/>
        <pt x="315" y="643" on="1"/>
        <pt x="235" y="75" on="1"/>
        <pt x="312" y="75" on="1"/>
        <pt x="324" y="75" on="0"/>
        <pt x="323" y="63" on="1"/>
        <pt x="316" y="12" on="1"/>
        <pt x="314" y="0" on="0"/>
      </contour>
      <contour>
        <pt x="279" y="774" on="1"/>
        <pt x="274" y="771" on="0"/>
        <pt x="263" y="771" on="0"/>
        <pt x="259" y="777" on="1"/>
        <pt x="239" y="806" on="1"/>
        <pt x="236" y="809" on="0"/>
        <pt x="236" y="819" on="0"/>
        <pt x="244" y="825" on="1"/>
        <pt x="424" y="966" on="1"/>
        <pt x="429" y="970" on="0"/>
        <pt x="433" y="970" on="1"/>
        <pt x="444" y="965" on="1"/>
        <pt x="469" y="927" on="1"/>
        <pt x="472" y="923" on="0"/>
        <pt x="472" y="914" on="0"/>
        <pt x="465" y="908" on="1"/>
      </contour>
    </TTGlyph>
    <TTGlyph name="Ibreve" xMin="50" yMin="0" xMax="454" yMax="941">
      <contour>
        <pt x="301" y="0" on="1"/>
        <pt x="61" y="0" on="1"/>
        <pt x="48" y="0" on="0"/>
        <pt x="50" y="12" on="1"/>
        <pt x="57" y="63" on="1"/>
        <pt x="58" y="75" on="0"/>
        <pt x="71" y="75" on="1"/>
        <pt x="148" y="75" on="1"/>
        <pt x="228" y="643" on="1"/>
        <pt x="151" y="643" on="1"/>
        <pt x="140" y="643" on="0"/>
        <pt x="141" y="655" on="1"/>
        <pt x="148" y="706" on="1"/>
        <pt x="150" y="718" on="0"/>
        <pt x="162" y="718" on="1"/>
        <pt x="402" y="718" on="1"/>
        <pt x="416" y="718" on="0"/>
        <pt x="413" y="706" on="1"/>
        <pt x="406" y="655" on="1"/>
        <pt x="404" y="643" on="0"/>
        <pt x="392" y="643" on="1"/>
        <pt x="315" y="643" on="1"/>
        <pt x="235" y="75" on="1"/>
        <pt x="312" y="75" on="1"/>
        <pt x="324" y="75" on="0"/>
        <pt x="323" y="63" on="1"/>
        <pt x="316" y="12" on="1"/>
        <pt x="314" y="0" on="0"/>
      </contour>
      <contour>
        <pt x="411" y="941" on="1"/>
        <pt x="442" y="941" on="1"/>
        <pt x="454" y="941" on="0"/>
        <pt x="454" y="930" on="1"/>
        <pt x="454" y="867" on="0"/>
        <pt x="362" y="789" on="0"/>
        <pt x="238" y="789" on="0"/>
        <pt x="172" y="849" on="0"/>
        <pt x="172" y="906" on="1"/>
        <pt x="172" y="941" on="0"/>
        <pt x="189" y="941" on="1"/>
        <pt x="221" y="941" on="1"/>
        <pt x="231" y="941" on="0"/>
        <pt x="231" y="880" on="0"/>
        <pt x="270" y="840" on="0"/>
        <pt x="335" y="840" on="0"/>
        <pt x="389" y="887" on="0"/>
        <pt x="395" y="928" on="1"/>
        <pt x="397" y="941" on="0"/>
      </contour>
    </TTGlyph>
    <TTGlyph name="Icircumflex" xMin="58" yMin="0" xMax="479" yMax="989">
      <contour>
        <pt x="309" y="0" on="1"/>
        <pt x="69" y="0" on="1"/>
        <pt x="56" y="0" on="0"/>
        <pt x="58" y="12" on="1"/>
        <pt x="65" y="63" on="1"/>
        <pt x="66" y="75" on="0"/>
        <pt x="79" y="75" on="1"/>
        <pt x="156" y="75" on="1"/>
        <pt x="236" y="643" on="1"/>
        <pt x="159" y="643" on="1"/>
        <pt x="148" y="643" on="0"/>
        <pt x="149" y="655" on="1"/>
        <pt x="156" y="706" on="1"/>
        <pt x="158" y="718" on="0"/>
        <pt x="170" y="718" on="1"/>
        <pt x="410" y="718" on="1"/>
        <pt x="424" y="718" on="0"/>
        <pt x="421" y="706" on="1"/>
        <pt x="414" y="655" on="1"/>
        <pt x="412" y="643" on="0"/>
        <pt x="400" y="643" on="1"/>
        <pt x="323" y="643" on="1"/>
        <pt x="243" y="75" on="1"/>
        <pt x="320" y="75" on="1"/>
        <pt x="332" y="75" on="0"/>
        <pt x="331" y="63" on="1"/>
        <pt x="324" y="12" on="1"/>
        <pt x="322" y="0" on="0"/>
      </contour>
      <contour>
        <pt x="446" y="801" on="1"/>
        <pt x="440" y="795" on="0"/>
        <pt x="431" y="795" on="0"/>
        <pt x="427" y="799" on="1"/>
        <pt x="318" y="904" on="1"/>
        <pt x="181" y="799" on="1"/>
        <pt x="176" y="795" on="0"/>
        <pt x="166" y="795" on="0"/>
        <pt x="162" y="801" on="1"/>
        <pt x="141" y="830" on="1"/>
        <pt x="138" y="834" on="0"/>
        <pt x="138" y="843" on="0"/>
        <pt x="146" y="849" on="1"/>
        <pt x="320" y="985" on="1"/>
        <pt x="325" y="989" on="0"/>
        <pt x="336" y="989" on="0"/>
        <pt x="340" y="984" on="1"/>
        <pt x="475" y="849" on="1"/>
        <pt x="479" y="844" on="0"/>
        <pt x="479" y="835" on="0"/>
        <pt x="475" y="830" on="1"/>
      </contour>
    </TTGlyph>
    <TTGlyph name="Idieresis" xMin="50" yMin="0" xMax="420" yMax="867">
      <contour>
        <pt x="301" y="0" on="1"/>
        <pt x="61" y="0" on="1"/>
        <pt x="48" y="0" on="0"/>
        <pt x="50" y="12" on="1"/>
        <pt x="57" y="63" on="1"/>
        <pt x="58" y="75" on="0"/>
        <pt x="71" y="75" on="1"/>
        <pt x="148" y="75" on="1"/>
        <pt x="228" y="643" on="1"/>
        <pt x="151" y="643" on="1"/>
        <pt x="140" y="643" on="0"/>
        <pt x="141" y="655" on="1"/>
        <pt x="148" y="706" on="1"/>
        <pt x="150" y="718" on="0"/>
        <pt x="162" y="718" on="1"/>
        <pt x="402" y="718" on="1"/>
        <pt x="416" y="718" on="0"/>
        <pt x="413" y="706" on="1"/>
        <pt x="406" y="655" on="1"/>
        <pt x="404" y="643" on="0"/>
        <pt x="392" y="643" on="1"/>
        <pt x="315" y="643" on="1"/>
        <pt x="235" y="75" on="1"/>
        <pt x="312" y="75" on="1"/>
        <pt x="324" y="75" on="0"/>
        <pt x="323" y="63" on="1"/>
        <pt x="316" y="12" on="1"/>
        <pt x="314" y="0" on="0"/>
      </contour>
      <contour>
        <pt x="241" y="867" on="0"/>
        <pt x="262" y="845" on="0"/>
        <pt x="262" y="810" on="0"/>
        <pt x="233" y="782" on="0"/>
        <pt x="197" y="782" on="0"/>
        <pt x="177" y="802" on="0"/>
        <pt x="177" y="838" on="0"/>
        <pt x="206" y="867" on="0"/>
      </contour>
      <contour>
        <pt x="399" y="867" on="0"/>
        <pt x="420" y="845" on="0"/>
        <pt x="420" y="810" on="0"/>
        <pt x="391" y="782" on="0"/>
        <pt x="355" y="782" on="0"/>
        <pt x="335" y="802" on="0"/>
        <pt x="335" y="838" on="0"/>
        <pt x="364" y="867" on="0"/>
      </contour>
    </TTGlyph>
    <TTGlyph name="Idotaccent" xMin="50" yMin="0" xMax="414" yMax="897">
      <contour>
        <pt x="301" y="0" on="1"/>
        <pt x="61" y="0" on="1"/>
        <pt x="48" y="0" on="0"/>
        <pt x="50" y="12" on="1"/>
        <pt x="57" y="63" on="1"/>
        <pt x="58" y="75" on="0"/>
        <pt x="71" y="75" on="1"/>
        <pt x="148" y="75" on="1"/>
        <pt x="228" y="643" on="1"/>
        <pt x="151" y="643" on="1"/>
        <pt x="140" y="643" on="0"/>
        <pt x="141" y="655" on="1"/>
        <pt x="148" y="706" on="1"/>
        <pt x="150" y="718" on="0"/>
        <pt x="162" y="718" on="1"/>
        <pt x="402" y="718" on="1"/>
        <pt x="414" y="718" on="0"/>
        <pt x="414" y="710" on="1"/>
        <pt x="414" y="708" on="0"/>
        <pt x="413" y="706" on="1"/>
        <pt x="406" y="655" on="1"/>
        <pt x="404" y="643" on="0"/>
        <pt x="392" y="643" on="1"/>
        <pt x="315" y="643" on="1"/>
        <pt x="235" y="75" on="1"/>
        <pt x="312" y="75" on="1"/>
        <pt x="324" y="75" on="0"/>
        <pt x="323" y="63" on="1"/>
        <pt x="316" y="12" on="1"/>
        <pt x="314" y="0" on="0"/>
      </contour>
      <contour>
        <pt x="328" y="897" on="0"/>
        <pt x="354" y="870" on="0"/>
        <pt x="354" y="827" on="0"/>
        <pt x="317" y="792" on="0"/>
        <pt x="274" y="792" on="0"/>
        <pt x="248" y="818" on="0"/>
        <pt x="248" y="862" on="0"/>
        <pt x="284" y="897" on="0"/>
      </contour>
    </TTGlyph>
    <TTGlyph name="Igrave" xMin="66" yMin="0" xMax="430" yMax="974">
      <contour>
        <pt x="317" y="0" on="1"/>
        <pt x="77" y="0" on="1"/>
        <pt x="64" y="0" on="0"/>
        <pt x="66" y="12" on="1"/>
        <pt x="73" y="63" on="1"/>
        <pt x="74" y="75" on="0"/>
        <pt x="87" y="75" on="1"/>
        <pt x="164" y="75" on="1"/>
        <pt x="244" y="643" on="1"/>
        <pt x="167" y="643" on="1"/>
        <pt x="156" y="643" on="0"/>
        <pt x="157" y="655" on="1"/>
        <pt x="164" y="706" on="1"/>
        <pt x="166" y="718" on="0"/>
        <pt x="178" y="718" on="1"/>
        <pt x="418" y="718" on="1"/>
        <pt x="430" y="718" on="0"/>
        <pt x="430" y="710" on="1"/>
        <pt x="430" y="708" on="0"/>
        <pt x="429" y="706" on="1"/>
        <pt x="422" y="655" on="1"/>
        <pt x="420" y="643" on="0"/>
        <pt x="408" y="643" on="1"/>
        <pt x="331" y="643" on="1"/>
        <pt x="251" y="75" on="1"/>
        <pt x="328" y="75" on="1"/>
        <pt x="340" y="75" on="0"/>
        <pt x="339" y="63" on="1"/>
        <pt x="332" y="12" on="1"/>
        <pt x="330" y="0" on="0"/>
      </contour>
      <contour>
        <pt x="332" y="779" on="1"/>
        <pt x="327" y="773" on="0"/>
        <pt x="317" y="773" on="0"/>
        <pt x="313" y="777" on="1"/>
        <pt x="164" y="911" on="1"/>
        <pt x="160" y="915" on="0"/>
        <pt x="160" y="924" on="0"/>
        <pt x="166" y="930" on="1"/>
        <pt x="202" y="967" on="1"/>
        <pt x="207" y="973" on="0"/>
        <pt x="217" y="973" on="0"/>
        <pt x="222" y="969" on="1"/>
        <pt x="362" y="827" on="1"/>
        <pt x="367" y="822" on="0"/>
        <pt x="367" y="813" on="0"/>
        <pt x="362" y="808" on="1"/>
      </contour>
    </TTGlyph>
    <TTGlyph name="Imacron" xMin="50" yMin="0" xMax="460" yMax="849">
      <contour>
        <pt x="301" y="0" on="1"/>
        <pt x="61" y="0" on="1"/>
        <pt x="48" y="0" on="0"/>
        <pt x="50" y="12" on="1"/>
        <pt x="57" y="63" on="1"/>
        <pt x="58" y="75" on="0"/>
        <pt x="71" y="75" on="1"/>
        <pt x="148" y="75" on="1"/>
        <pt x="228" y="643" on="1"/>
        <pt x="151" y="643" on="1"/>
        <pt x="140" y="643" on="0"/>
        <pt x="141" y="655" on="1"/>
        <pt x="148" y="706" on="1"/>
        <pt x="150" y="718" on="0"/>
        <pt x="162" y="718" on="1"/>
        <pt x="402" y="718" on="1"/>
        <pt x="416" y="718" on="0"/>
        <pt x="413" y="706" on="1"/>
        <pt x="406" y="655" on="1"/>
        <pt x="404" y="643" on="0"/>
        <pt x="392" y="643" on="1"/>
        <pt x="315" y="643" on="1"/>
        <pt x="235" y="75" on="1"/>
        <pt x="312" y="75" on="1"/>
        <pt x="324" y="75" on="0"/>
        <pt x="323" y="63" on="1"/>
        <pt x="316" y="12" on="1"/>
        <pt x="314" y="0" on="0"/>
      </contour>
      <contour>
        <pt x="438" y="780" on="1"/>
        <pt x="143" y="780" on="1"/>
        <pt x="130" y="780" on="0"/>
        <pt x="132" y="793" on="1"/>
        <pt x="138" y="835" on="1"/>
        <pt x="140" y="849" on="0"/>
        <pt x="153" y="849" on="1"/>
        <pt x="448" y="849" on="1"/>
        <pt x="462" y="849" on="0"/>
        <pt x="460" y="835" on="1"/>
        <pt x="454" y="793" on="1"/>
        <pt x="452" y="780" on="0"/>
      </contour>
    </TTGlyph>
    <TTGlyph name="Iogonek" xMin="50" yMin="-161" xMax="414" yMax="718">
      <contour>
        <pt x="285" y="-137" on="1"/>
        <pt x="243" y="-161" on="0"/>
        <pt x="176" y="-161" on="0"/>
        <pt x="137" y="-127" on="0"/>
        <pt x="137" y="-62" on="0"/>
        <pt x="190" y="-11" on="0"/>
        <pt x="220" y="0" on="1"/>
        <pt x="61" y="0" on="1"/>
        <pt x="48" y="0" on="0"/>
        <pt x="50" y="12" on="1"/>
        <pt x="57" y="63" on="1"/>
        <pt x="58" y="75" on="0"/>
        <pt x="71" y="75" on="1"/>
        <pt x="148" y="75" on="1"/>
        <pt x="228" y="643" on="1"/>
        <pt x="151" y="643" on="1"/>
        <pt x="140" y="643" on="0"/>
        <pt x="141" y="655" on="1"/>
        <pt x="148" y="706" on="1"/>
        <pt x="150" y="718" on="0"/>
        <pt x="162" y="718" on="1"/>
        <pt x="402" y="718" on="1"/>
        <pt x="414" y="718" on="0"/>
        <pt x="414" y="710" on="1"/>
        <pt x="414" y="708" on="0"/>
        <pt x="413" y="706" on="1"/>
        <pt x="406" y="655" on="1"/>
        <pt x="404" y="643" on="0"/>
        <pt x="392" y="643" on="1"/>
        <pt x="315" y="643" on="1"/>
        <pt x="235" y="75" on="1"/>
        <pt x="312" y="75" on="1"/>
        <pt x="324" y="75" on="0"/>
        <pt x="323" y="63" on="1"/>
        <pt x="316" y="12" on="1"/>
        <pt x="314" y="0" on="0"/>
        <pt x="301" y="0" on="1"/>
        <pt x="272" y="0" on="1"/>
        <pt x="190" y="-41" on="0"/>
        <pt x="190" y="-87" on="1"/>
        <pt x="190" y="-116" on="0"/>
        <pt x="224" y="-116" on="1"/>
        <pt x="245" y="-116" on="0"/>
        <pt x="265" y="-105" on="1"/>
        <pt x="280" y="-99" on="0"/>
        <pt x="283" y="-107" on="1"/>
        <pt x="290" y="-120" on="1"/>
        <pt x="294" y="-131" on="0"/>
      </contour>
    </TTGlyph>
    <TTGlyph name="Itilde" xMin="60" yMin="0" xMax="475" yMax="910">
      <contour>
        <pt x="311" y="0" on="1"/>
        <pt x="71" y="0" on="1"/>
        <pt x="58" y="0" on="0"/>
        <pt x="60" y="12" on="1"/>
        <pt x="67" y="63" on="1"/>
        <pt x="68" y="75" on="0"/>
        <pt x="81" y="75" on="1"/>
        <pt x="158" y="75" on="1"/>
        <pt x="238" y="643" on="1"/>
        <pt x="161" y="643" on="1"/>
        <pt x="150" y="643" on="0"/>
        <pt x="151" y="655" on="1"/>
        <pt x="158" y="706" on="1"/>
        <pt x="160" y="718" on="0"/>
        <pt x="172" y="718" on="1"/>
        <pt x="412" y="718" on="1"/>
        <pt x="426" y="718" on="0"/>
        <pt x="423" y="706" on="1"/>
        <pt x="416" y="655" on="1"/>
        <pt x="414" y="643" on="0"/>
        <pt x="402" y="643" on="1"/>
        <pt x="325" y="643" on="1"/>
        <pt x="245" y="75" on="1"/>
        <pt x="322" y="75" on="1"/>
        <pt x="334" y="75" on="0"/>
        <pt x="333" y="63" on="1"/>
        <pt x="326" y="12" on="1"/>
        <pt x="324" y="0" on="0"/>
      </contour>
      <contour>
        <pt x="440" y="910" on="1"/>
        <pt x="464" y="910" on="1"/>
        <pt x="474" y="910" on="0"/>
        <pt x="474" y="901" on="1"/>
        <pt x="474" y="852" on="0"/>
        <pt x="421" y="785" on="0"/>
        <pt x="371" y="785" on="1"/>
        <pt x="346" y="785" on="0"/>
        <pt x="306" y="805" on="0"/>
        <pt x="296" y="816" on="1"/>
        <pt x="267" y="848" on="0"/>
        <pt x="221" y="848" on="0"/>
        <pt x="197" y="823" on="0"/>
        <pt x="193" y="791" on="1"/>
        <pt x="192" y="779" on="0"/>
        <pt x="179" y="779" on="1"/>
        <pt x="156" y="779" on="1"/>
        <pt x="145" y="779" on="0"/>
        <pt x="145" y="789" on="1"/>
        <pt x="145" y="834" on="0"/>
        <pt x="196" y="899" on="0"/>
        <pt x="246" y="899" on="1"/>
        <pt x="269" y="899" on="0"/>
        <pt x="308" y="878" on="0"/>
        <pt x="318" y="866" on="1"/>
        <pt x="347" y="833" on="0"/>
        <pt x="398" y="833" on="0"/>
        <pt x="421" y="861" on="0"/>
        <pt x="426" y="898" on="1"/>
        <pt x="428" y="910" on="0"/>
      </contour>
    </TTGlyph>
    <TTGlyph name="J" xMin="50" yMin="0" xMax="536" yMax="718">
      <contour>
        <pt x="273" y="643" on="1"/>
        <pt x="262" y="643" on="0"/>
        <pt x="263" y="655" on="1"/>
        <pt x="270" y="706" on="1"/>
        <pt x="272" y="718" on="0"/>
        <pt x="284" y="718" on="1"/>
        <pt x="524" y="718" on="1"/>
        <pt x="536" y="718" on="0"/>
        <pt x="536" y="710" on="1"/>
        <pt x="536" y="708" on="0"/>
        <pt x="535" y="706" on="1"/>
        <pt x="528" y="655" on="1"/>
        <pt x="526" y="643" on="0"/>
        <pt x="514" y="643" on="1"/>
        <pt x="437" y="643" on="1"/>
        <pt x="385" y="271" on="1"/>
        <pt x="365" y="125" on="0"/>
        <pt x="208" y="0" on="0"/>
        <pt x="61" y="0" on="1"/>
        <pt x="48" y="0" on="0"/>
        <pt x="50" y="12" on="1"/>
        <pt x="58" y="63" on="1"/>
        <pt x="60" y="75" on="0"/>
        <pt x="71" y="75" on="1"/>
        <pt x="182" y="75" on="0"/>
        <pt x="283" y="166" on="0"/>
        <pt x="296" y="262" on="1"/>
        <pt x="350" y="643" on="1"/>
      </contour>
    </TTGlyph>
    <TTGlyph name="Jcircumflex" xMin="79" yMin="0" xMax="569" yMax="989">
      <contour>
        <pt x="410" y="985" on="1"/>
        <pt x="415" y="989" on="0"/>
        <pt x="426" y="989" on="0"/>
        <pt x="430" y="984" on="1"/>
        <pt x="565" y="849" on="1"/>
        <pt x="569" y="844" on="0"/>
        <pt x="569" y="835" on="0"/>
        <pt x="565" y="830" on="1"/>
        <pt x="536" y="801" on="1"/>
        <pt x="526" y="791" on="0"/>
        <pt x="517" y="799" on="1"/>
        <pt x="408" y="904" on="1"/>
        <pt x="271" y="799" on="1"/>
        <pt x="259" y="790" on="0"/>
        <pt x="252" y="801" on="1"/>
        <pt x="231" y="830" on="1"/>
        <pt x="224" y="840" on="0"/>
        <pt x="236" y="849" on="1"/>
      </contour>
      <contour>
        <pt x="302" y="643" on="1"/>
        <pt x="290" y="643" on="0"/>
        <pt x="292" y="655" on="1"/>
        <pt x="299" y="706" on="1"/>
        <pt x="300" y="718" on="0"/>
        <pt x="313" y="718" on="1"/>
        <pt x="553" y="718" on="1"/>
        <pt x="565" y="718" on="0"/>
        <pt x="565" y="710" on="1"/>
        <pt x="565" y="708" on="0"/>
        <pt x="564" y="706" on="1"/>
        <pt x="557" y="655" on="1"/>
        <pt x="556" y="643" on="0"/>
        <pt x="543" y="643" on="1"/>
        <pt x="466" y="643" on="1"/>
        <pt x="414" y="271" on="1"/>
        <pt x="394" y="125" on="0"/>
        <pt x="237" y="0" on="0"/>
        <pt x="90" y="0" on="1"/>
        <pt x="78" y="0" on="0"/>
        <pt x="79" y="12" on="1"/>
        <pt x="87" y="63" on="1"/>
        <pt x="88" y="75" on="0"/>
        <pt x="100" y="75" on="1"/>
        <pt x="211" y="75" on="0"/>
        <pt x="312" y="166" on="0"/>
        <pt x="325" y="262" on="1"/>
        <pt x="379" y="643" on="1"/>
      </contour>
    </TTGlyph>
    <TTGlyph name="K" xMin="50" yMin="0" xMax="805" yMax="718">
      <contour>
        <pt x="702" y="0" on="1"/>
        <pt x="615" y="0" on="1"/>
        <pt x="579" y="0" on="0"/>
        <pt x="563" y="48" on="1"/>
        <pt x="495" y="239" on="1"/>
        <pt x="490" y="255" on="0"/>
        <pt x="479" y="273" on="0"/>
        <pt x="439" y="291" on="0"/>
        <pt x="406" y="291" on="1"/>
        <pt x="265" y="291" on="1"/>
        <pt x="235" y="75" on="1"/>
        <pt x="327" y="75" on="1"/>
        <pt x="340" y="75" on="0"/>
        <pt x="338" y="63" on="1"/>
        <pt x="331" y="12" on="1"/>
        <pt x="330" y="0" on="0"/>
        <pt x="316" y="0" on="1"/>
        <pt x="61" y="0" on="1"/>
        <pt x="48" y="0" on="0"/>
        <pt x="50" y="12" on="1"/>
        <pt x="57" y="63" on="1"/>
        <pt x="58" y="75" on="0"/>
        <pt x="71" y="75" on="1"/>
        <pt x="148" y="75" on="1"/>
        <pt x="228" y="643" on="1"/>
        <pt x="151" y="643" on="1"/>
        <pt x="140" y="643" on="0"/>
        <pt x="141" y="655" on="1"/>
        <pt x="148" y="706" on="1"/>
        <pt x="150" y="718" on="0"/>
        <pt x="162" y="718" on="1"/>
        <pt x="386" y="718" on="1"/>
        <pt x="398" y="718" on="0"/>
        <pt x="397" y="706" on="1"/>
        <pt x="390" y="655" on="1"/>
        <pt x="388" y="643" on="0"/>
        <pt x="375" y="643" on="1"/>
        <pt x="315" y="643" on="1"/>
        <pt x="275" y="362" on="1"/>
        <pt x="380" y="362" on="1"/>
        <pt x="486" y="362" on="0"/>
        <pt x="607" y="487" on="0"/>
        <pt x="629" y="643" on="1"/>
        <pt x="560" y="643" on="1"/>
        <pt x="548" y="643" on="0"/>
        <pt x="550" y="655" on="1"/>
        <pt x="557" y="706" on="1"/>
        <pt x="558" y="718" on="0"/>
        <pt x="571" y="718" on="1"/>
        <pt x="794" y="718" on="1"/>
        <pt x="806" y="718" on="0"/>
        <pt x="805" y="706" on="1"/>
        <pt x="798" y="655" on="1"/>
        <pt x="796" y="643" on="0"/>
        <pt x="783" y="643" on="1"/>
        <pt x="715" y="643" on="1"/>
        <pt x="681" y="402" on="0"/>
        <pt x="534" y="328" on="1"/>
        <pt x="564" y="313" on="0"/>
        <pt x="576" y="283" on="1"/>
        <pt x="580" y="273" on="0"/>
        <pt x="589" y="248" on="1"/>
        <pt x="652" y="75" on="1"/>
        <pt x="713" y="75" on="1"/>
        <pt x="726" y="75" on="0"/>
        <pt x="723" y="63" on="1"/>
        <pt x="716" y="12" on="1"/>
        <pt x="714" y="0" on="0"/>
      </contour>
    </TTGlyph>
    <TTGlyph name="Kcommaaccent" xMin="50" yMin="-228" xMax="805" yMax="718">
      <contour>
        <pt x="286" y="-205" on="1"/>
        <pt x="288" y="-199" on="0"/>
        <pt x="311" y="-199" on="0"/>
        <pt x="342" y="-169" on="0"/>
        <pt x="342" y="-141" on="1"/>
        <pt x="341" y="-135" on="1"/>
        <pt x="335" y="-140" on="0"/>
        <pt x="306" y="-140" on="0"/>
        <pt x="285" y="-118" on="0"/>
        <pt x="285" y="-78" on="0"/>
        <pt x="317" y="-46" on="0"/>
        <pt x="339" y="-46" on="1"/>
        <pt x="385" y="-46" on="0"/>
        <pt x="385" y="-165" on="0"/>
        <pt x="331" y="-228" on="0"/>
        <pt x="290" y="-228" on="1"/>
        <pt x="283" y="-228" on="0"/>
        <pt x="283" y="-222" on="1"/>
      </contour>
      <contour>
        <pt x="702" y="0" on="1"/>
        <pt x="615" y="0" on="1"/>
        <pt x="579" y="0" on="0"/>
        <pt x="563" y="48" on="1"/>
        <pt x="495" y="239" on="1"/>
        <pt x="490" y="255" on="0"/>
        <pt x="479" y="273" on="0"/>
        <pt x="439" y="291" on="0"/>
        <pt x="406" y="291" on="1"/>
        <pt x="265" y="291" on="1"/>
        <pt x="235" y="75" on="1"/>
        <pt x="327" y="75" on="1"/>
        <pt x="340" y="75" on="0"/>
        <pt x="338" y="63" on="1"/>
        <pt x="331" y="12" on="1"/>
        <pt x="330" y="0" on="0"/>
        <pt x="316" y="0" on="1"/>
        <pt x="61" y="0" on="1"/>
        <pt x="48" y="0" on="0"/>
        <pt x="50" y="12" on="1"/>
        <pt x="57" y="63" on="1"/>
        <pt x="58" y="75" on="0"/>
        <pt x="71" y="75" on="1"/>
        <pt x="148" y="75" on="1"/>
        <pt x="228" y="643" on="1"/>
        <pt x="151" y="643" on="1"/>
        <pt x="140" y="643" on="0"/>
        <pt x="141" y="655" on="1"/>
        <pt x="148" y="706" on="1"/>
        <pt x="150" y="718" on="0"/>
        <pt x="162" y="718" on="1"/>
        <pt x="386" y="718" on="1"/>
        <pt x="398" y="718" on="0"/>
        <pt x="397" y="706" on="1"/>
        <pt x="390" y="655" on="1"/>
        <pt x="388" y="643" on="0"/>
        <pt x="375" y="643" on="1"/>
        <pt x="315" y="643" on="1"/>
        <pt x="275" y="362" on="1"/>
        <pt x="380" y="362" on="1"/>
        <pt x="486" y="362" on="0"/>
        <pt x="607" y="487" on="0"/>
        <pt x="629" y="643" on="1"/>
        <pt x="560" y="643" on="1"/>
        <pt x="548" y="643" on="0"/>
        <pt x="550" y="655" on="1"/>
        <pt x="557" y="706" on="1"/>
        <pt x="558" y="718" on="0"/>
        <pt x="571" y="718" on="1"/>
        <pt x="794" y="718" on="1"/>
        <pt x="806" y="718" on="0"/>
        <pt x="805" y="706" on="1"/>
        <pt x="798" y="655" on="1"/>
        <pt x="796" y="643" on="0"/>
        <pt x="783" y="643" on="1"/>
        <pt x="715" y="643" on="1"/>
        <pt x="681" y="402" on="0"/>
        <pt x="534" y="328" on="1"/>
        <pt x="564" y="313" on="0"/>
        <pt x="576" y="283" on="1"/>
        <pt x="580" y="273" on="0"/>
        <pt x="589" y="248" on="1"/>
        <pt x="652" y="75" on="1"/>
        <pt x="713" y="75" on="1"/>
        <pt x="726" y="75" on="0"/>
        <pt x="723" y="63" on="1"/>
        <pt x="716" y="12" on="1"/>
        <pt x="714" y="0" on="0"/>
      </contour>
    </TTGlyph>
    <TTGlyph name="L" xMin="50" yMin="0" xMax="646" yMax="718">
      <contour>
        <pt x="608" y="0" on="1"/>
        <pt x="61" y="0" on="1"/>
        <pt x="48" y="0" on="0"/>
        <pt x="50" y="12" on="1"/>
        <pt x="57" y="63" on="1"/>
        <pt x="58" y="75" on="0"/>
        <pt x="71" y="75" on="1"/>
        <pt x="148" y="75" on="1"/>
        <pt x="228" y="643" on="1"/>
        <pt x="151" y="643" on="1"/>
        <pt x="140" y="643" on="0"/>
        <pt x="141" y="655" on="1"/>
        <pt x="148" y="706" on="1"/>
        <pt x="150" y="718" on="0"/>
        <pt x="162" y="718" on="1"/>
        <pt x="401" y="718" on="1"/>
        <pt x="415" y="718" on="0"/>
        <pt x="413" y="705" on="1"/>
        <pt x="406" y="656" on="1"/>
        <pt x="404" y="643" on="0"/>
        <pt x="391" y="643" on="1"/>
        <pt x="315" y="643" on="1"/>
        <pt x="235" y="75" on="1"/>
        <pt x="553" y="75" on="1"/>
        <pt x="567" y="173" on="1"/>
        <pt x="568" y="185" on="0"/>
        <pt x="581" y="185" on="1"/>
        <pt x="636" y="185" on="1"/>
        <pt x="648" y="185" on="0"/>
        <pt x="646" y="173" on="1"/>
        <pt x="624" y="13" on="1"/>
        <pt x="622" y="0" on="0"/>
      </contour>
    </TTGlyph>
    <TTGlyph name="Lacute" xMin="50" yMin="0" xMax="646" yMax="995">
      <contour>
        <pt x="555" y="932" on="1"/>
        <pt x="369" y="798" on="1"/>
        <pt x="356" y="791" on="0"/>
        <pt x="349" y="801" on="1"/>
        <pt x="329" y="830" on="1"/>
        <pt x="321" y="839" on="0"/>
        <pt x="334" y="849" on="1"/>
        <pt x="514" y="990" on="1"/>
        <pt x="519" y="994" on="0"/>
        <pt x="523" y="994" on="1"/>
        <pt x="534" y="989" on="1"/>
        <pt x="559" y="951" on="1"/>
        <pt x="567" y="942" on="0"/>
      </contour>
      <contour>
        <pt x="608" y="0" on="1"/>
        <pt x="61" y="0" on="1"/>
        <pt x="48" y="0" on="0"/>
        <pt x="50" y="12" on="1"/>
        <pt x="57" y="63" on="1"/>
        <pt x="58" y="75" on="0"/>
        <pt x="71" y="75" on="1"/>
        <pt x="148" y="75" on="1"/>
        <pt x="228" y="643" on="1"/>
        <pt x="151" y="643" on="1"/>
        <pt x="140" y="643" on="0"/>
        <pt x="141" y="655" on="1"/>
        <pt x="148" y="706" on="1"/>
        <pt x="150" y="718" on="0"/>
        <pt x="162" y="718" on="1"/>
        <pt x="401" y="718" on="1"/>
        <pt x="415" y="718" on="0"/>
        <pt x="413" y="705" on="1"/>
        <pt x="406" y="656" on="1"/>
        <pt x="404" y="643" on="0"/>
        <pt x="391" y="643" on="1"/>
        <pt x="315" y="643" on="1"/>
        <pt x="235" y="75" on="1"/>
        <pt x="553" y="75" on="1"/>
        <pt x="567" y="173" on="1"/>
        <pt x="568" y="185" on="0"/>
        <pt x="581" y="185" on="1"/>
        <pt x="636" y="185" on="1"/>
        <pt x="648" y="185" on="0"/>
        <pt x="646" y="173" on="1"/>
        <pt x="624" y="13" on="1"/>
        <pt x="622" y="0" on="0"/>
      </contour>
    </TTGlyph>
    <TTGlyph name="Lcaron" xMin="50" yMin="0" xMax="646" yMax="718">
      <contour>
        <pt x="425" y="557" on="1"/>
        <pt x="426" y="563" on="0"/>
        <pt x="450" y="563" on="0"/>
        <pt x="481" y="593" on="0"/>
        <pt x="481" y="621" on="1"/>
        <pt x="480" y="628" on="1"/>
        <pt x="474" y="623" on="0"/>
        <pt x="445" y="623" on="0"/>
        <pt x="424" y="645" on="0"/>
        <pt x="424" y="685" on="0"/>
        <pt x="456" y="716" on="0"/>
        <pt x="478" y="716" on="1"/>
        <pt x="524" y="716" on="0"/>
        <pt x="524" y="598" on="0"/>
        <pt x="470" y="534" on="0"/>
        <pt x="429" y="534" on="1"/>
        <pt x="422" y="534" on="0"/>
        <pt x="422" y="540" on="1"/>
      </contour>
      <contour>
        <pt x="608" y="0" on="1"/>
        <pt x="61" y="0" on="1"/>
        <pt x="48" y="0" on="0"/>
        <pt x="50" y="12" on="1"/>
        <pt x="57" y="63" on="1"/>
        <pt x="58" y="75" on="0"/>
        <pt x="71" y="75" on="1"/>
        <pt x="148" y="75" on="1"/>
        <pt x="228" y="643" on="1"/>
        <pt x="151" y="643" on="1"/>
        <pt x="140" y="643" on="0"/>
        <pt x="141" y="655" on="1"/>
        <pt x="148" y="706" on="1"/>
        <pt x="150" y="718" on="0"/>
        <pt x="162" y="718" on="1"/>
        <pt x="401" y="718" on="1"/>
        <pt x="415" y="718" on="0"/>
        <pt x="413" y="705" on="1"/>
        <pt x="406" y="656" on="1"/>
        <pt x="404" y="643" on="0"/>
        <pt x="391" y="643" on="1"/>
        <pt x="315" y="643" on="1"/>
        <pt x="235" y="75" on="1"/>
        <pt x="553" y="75" on="1"/>
        <pt x="567" y="173" on="1"/>
        <pt x="568" y="185" on="0"/>
        <pt x="581" y="185" on="1"/>
        <pt x="636" y="185" on="1"/>
        <pt x="648" y="185" on="0"/>
        <pt x="646" y="173" on="1"/>
        <pt x="624" y="13" on="1"/>
        <pt x="622" y="0" on="0"/>
      </contour>
    </TTGlyph>
    <TTGlyph name="Lcommaaccent" xMin="50" yMin="-228" xMax="646" yMax="718">
      <contour>
        <pt x="254" y="-205" on="1"/>
        <pt x="256" y="-199" on="0"/>
        <pt x="279" y="-199" on="0"/>
        <pt x="310" y="-169" on="0"/>
        <pt x="310" y="-141" on="1"/>
        <pt x="309" y="-135" on="1"/>
        <pt x="303" y="-140" on="0"/>
        <pt x="274" y="-140" on="0"/>
        <pt x="253" y="-118" on="0"/>
        <pt x="253" y="-78" on="0"/>
        <pt x="285" y="-46" on="0"/>
        <pt x="307" y="-46" on="1"/>
        <pt x="353" y="-46" on="0"/>
        <pt x="353" y="-165" on="0"/>
        <pt x="299" y="-228" on="0"/>
        <pt x="258" y="-228" on="1"/>
        <pt x="251" y="-228" on="0"/>
        <pt x="251" y="-222" on="1"/>
      </contour>
      <contour>
        <pt x="608" y="0" on="1"/>
        <pt x="61" y="0" on="1"/>
        <pt x="48" y="0" on="0"/>
        <pt x="50" y="12" on="1"/>
        <pt x="57" y="63" on="1"/>
        <pt x="58" y="75" on="0"/>
        <pt x="71" y="75" on="1"/>
        <pt x="148" y="75" on="1"/>
        <pt x="228" y="643" on="1"/>
        <pt x="151" y="643" on="1"/>
        <pt x="140" y="643" on="0"/>
        <pt x="141" y="655" on="1"/>
        <pt x="148" y="706" on="1"/>
        <pt x="150" y="718" on="0"/>
        <pt x="162" y="718" on="1"/>
        <pt x="401" y="718" on="1"/>
        <pt x="415" y="718" on="0"/>
        <pt x="413" y="705" on="1"/>
        <pt x="406" y="656" on="1"/>
        <pt x="404" y="643" on="0"/>
        <pt x="391" y="643" on="1"/>
        <pt x="315" y="643" on="1"/>
        <pt x="235" y="75" on="1"/>
        <pt x="553" y="75" on="1"/>
        <pt x="567" y="173" on="1"/>
        <pt x="568" y="185" on="0"/>
        <pt x="581" y="185" on="1"/>
        <pt x="636" y="185" on="1"/>
        <pt x="648" y="185" on="0"/>
        <pt x="646" y="173" on="1"/>
        <pt x="624" y="13" on="1"/>
        <pt x="622" y="0" on="0"/>
      </contour>
    </TTGlyph>
    <TTGlyph name="Ldot" xMin="50" yMin="0" xMax="646" yMax="718">
      <contour>
        <pt x="389" y="228" on="0"/>
        <pt x="357" y="199" on="0"/>
        <pt x="319" y="199" on="0"/>
        <pt x="298" y="221" on="0"/>
        <pt x="298" y="259" on="0"/>
        <pt x="328" y="290" on="0"/>
        <pt x="366" y="290" on="0"/>
        <pt x="389" y="266" on="0"/>
      </contour>
      <contour>
        <pt x="608" y="0" on="1"/>
        <pt x="61" y="0" on="1"/>
        <pt x="48" y="0" on="0"/>
        <pt x="50" y="12" on="1"/>
        <pt x="57" y="63" on="1"/>
        <pt x="58" y="75" on="0"/>
        <pt x="71" y="75" on="1"/>
        <pt x="148" y="75" on="1"/>
        <pt x="228" y="643" on="1"/>
        <pt x="151" y="643" on="1"/>
        <pt x="140" y="643" on="0"/>
        <pt x="141" y="655" on="1"/>
        <pt x="148" y="706" on="1"/>
        <pt x="150" y="718" on="0"/>
        <pt x="162" y="718" on="1"/>
        <pt x="401" y="718" on="1"/>
        <pt x="415" y="718" on="0"/>
        <pt x="413" y="705" on="1"/>
        <pt x="406" y="656" on="1"/>
        <pt x="404" y="643" on="0"/>
        <pt x="391" y="643" on="1"/>
        <pt x="315" y="643" on="1"/>
        <pt x="235" y="75" on="1"/>
        <pt x="553" y="75" on="1"/>
        <pt x="567" y="173" on="1"/>
        <pt x="568" y="185" on="0"/>
        <pt x="581" y="185" on="1"/>
        <pt x="636" y="185" on="1"/>
        <pt x="648" y="185" on="0"/>
        <pt x="646" y="173" on="1"/>
        <pt x="624" y="13" on="1"/>
        <pt x="622" y="0" on="0"/>
      </contour>
    </TTGlyph>
    <TTGlyph name="Lslash" xMin="58" yMin="0" xMax="653" yMax="718">
      <contour>
        <pt x="616" y="0" on="1"/>
        <pt x="68" y="0" on="1"/>
        <pt x="56" y="0" on="0"/>
        <pt x="58" y="12" on="1"/>
        <pt x="65" y="63" on="1"/>
        <pt x="66" y="75" on="0"/>
        <pt x="79" y="75" on="1"/>
        <pt x="155" y="75" on="1"/>
        <pt x="182" y="264" on="1"/>
        <pt x="107" y="198" on="1"/>
        <pt x="96" y="188" on="0"/>
        <pt x="88" y="198" on="1"/>
        <pt x="71" y="219" on="1"/>
        <pt x="62" y="228" on="0"/>
        <pt x="73" y="238" on="1"/>
        <pt x="193" y="342" on="1"/>
        <pt x="235" y="643" on="1"/>
        <pt x="159" y="643" on="1"/>
        <pt x="146" y="643" on="0"/>
        <pt x="148" y="655" on="1"/>
        <pt x="155" y="706" on="1"/>
        <pt x="156" y="718" on="0"/>
        <pt x="169" y="718" on="1"/>
        <pt x="408" y="718" on="1"/>
        <pt x="422" y="718" on="0"/>
        <pt x="420" y="705" on="1"/>
        <pt x="414" y="656" on="1"/>
        <pt x="412" y="643" on="0"/>
        <pt x="398" y="643" on="1"/>
        <pt x="322" y="643" on="1"/>
        <pt x="293" y="429" on="1"/>
        <pt x="419" y="541" on="1"/>
        <pt x="431" y="550" on="0"/>
        <pt x="438" y="541" on="1"/>
        <pt x="455" y="520" on="1"/>
        <pt x="464" y="509" on="0"/>
        <pt x="453" y="501" on="1"/>
        <pt x="281" y="350" on="1"/>
        <pt x="242" y="75" on="1"/>
        <pt x="560" y="75" on="1"/>
        <pt x="574" y="173" on="1"/>
        <pt x="576" y="185" on="0"/>
        <pt x="588" y="185" on="1"/>
        <pt x="643" y="185" on="1"/>
        <pt x="654" y="185" on="0"/>
        <pt x="653" y="173" on="1"/>
        <pt x="631" y="13" on="1"/>
        <pt x="629" y="0" on="0"/>
      </contour>
    </TTGlyph>
    <TTGlyph name="M" xMin="50" yMin="0" xMax="971" yMax="718">
      <contour>
        <pt x="859" y="0" on="1"/>
        <pt x="628" y="0" on="1"/>
        <pt x="616" y="0" on="0"/>
        <pt x="618" y="12" on="1"/>
        <pt x="625" y="63" on="1"/>
        <pt x="626" y="75" on="0"/>
        <pt x="639" y="75" on="1"/>
        <pt x="706" y="75" on="1"/>
        <pt x="776" y="573" on="1"/>
        <pt x="775" y="573" on="1"/>
        <pt x="519" y="101" on="1"/>
        <pt x="502" y="71" on="0"/>
        <pt x="438" y="71" on="0"/>
        <pt x="431" y="101" on="1"/>
        <pt x="307" y="573" on="1"/>
        <pt x="305" y="573" on="1"/>
        <pt x="235" y="75" on="1"/>
        <pt x="302" y="75" on="1"/>
        <pt x="314" y="75" on="0"/>
        <pt x="313" y="63" on="1"/>
        <pt x="306" y="12" on="1"/>
        <pt x="304" y="0" on="0"/>
        <pt x="291" y="0" on="1"/>
        <pt x="61" y="0" on="1"/>
        <pt x="48" y="0" on="0"/>
        <pt x="50" y="12" on="1"/>
        <pt x="57" y="63" on="1"/>
        <pt x="58" y="75" on="0"/>
        <pt x="71" y="75" on="1"/>
        <pt x="148" y="75" on="1"/>
        <pt x="228" y="643" on="1"/>
        <pt x="151" y="643" on="1"/>
        <pt x="140" y="643" on="0"/>
        <pt x="141" y="655" on="1"/>
        <pt x="148" y="706" on="1"/>
        <pt x="150" y="718" on="0"/>
        <pt x="162" y="718" on="1"/>
        <pt x="316" y="718" on="1"/>
        <pt x="349" y="718" on="0"/>
        <pt x="359" y="684" on="1"/>
        <pt x="457" y="324" on="1"/>
        <pt x="487" y="198" on="1"/>
        <pt x="490" y="198" on="1"/>
        <pt x="529" y="276" on="0"/>
        <pt x="554" y="322" on="1"/>
        <pt x="754" y="684" on="1"/>
        <pt x="772" y="718" on="0"/>
        <pt x="807" y="718" on="1"/>
        <pt x="960" y="718" on="1"/>
        <pt x="972" y="718" on="0"/>
        <pt x="971" y="706" on="1"/>
        <pt x="964" y="655" on="1"/>
        <pt x="962" y="643" on="0"/>
        <pt x="949" y="643" on="1"/>
        <pt x="873" y="643" on="1"/>
        <pt x="793" y="75" on="1"/>
        <pt x="870" y="75" on="1"/>
        <pt x="883" y="75" on="0"/>
        <pt x="880" y="63" on="1"/>
        <pt x="873" y="12" on="1"/>
        <pt x="872" y="0" on="0"/>
      </contour>
    </TTGlyph>
    <TTGlyph name="N" xMin="50" yMin="0" xMax="872" yMax="718">
      <contour>
        <pt x="670" y="0" on="1"/>
        <pt x="616" y="0" on="1"/>
        <pt x="597" y="0" on="0"/>
        <pt x="578" y="15" on="0"/>
        <pt x="570" y="31" on="1"/>
        <pt x="344" y="483" on="1"/>
        <pt x="306" y="567" on="1"/>
        <pt x="304" y="567" on="1"/>
        <pt x="235" y="75" on="1"/>
        <pt x="312" y="75" on="1"/>
        <pt x="324" y="75" on="0"/>
        <pt x="323" y="63" on="1"/>
        <pt x="316" y="12" on="1"/>
        <pt x="314" y="0" on="0"/>
        <pt x="301" y="0" on="1"/>
        <pt x="61" y="0" on="1"/>
        <pt x="48" y="0" on="0"/>
        <pt x="50" y="12" on="1"/>
        <pt x="57" y="63" on="1"/>
        <pt x="58" y="75" on="0"/>
        <pt x="71" y="75" on="1"/>
        <pt x="148" y="75" on="1"/>
        <pt x="228" y="643" on="1"/>
        <pt x="151" y="643" on="1"/>
        <pt x="140" y="643" on="0"/>
        <pt x="141" y="655" on="1"/>
        <pt x="148" y="706" on="1"/>
        <pt x="150" y="718" on="0"/>
        <pt x="162" y="718" on="1"/>
        <pt x="302" y="718" on="1"/>
        <pt x="332" y="718" on="0"/>
        <pt x="348" y="684" on="1"/>
        <pt x="571" y="238" on="1"/>
        <pt x="614" y="141" on="1"/>
        <pt x="616" y="141" on="1"/>
        <pt x="686" y="643" on="1"/>
        <pt x="610" y="643" on="1"/>
        <pt x="598" y="643" on="0"/>
        <pt x="599" y="655" on="1"/>
        <pt x="606" y="706" on="1"/>
        <pt x="608" y="718" on="0"/>
        <pt x="620" y="718" on="1"/>
        <pt x="861" y="718" on="1"/>
        <pt x="874" y="718" on="0"/>
        <pt x="872" y="706" on="1"/>
        <pt x="865" y="655" on="1"/>
        <pt x="864" y="643" on="0"/>
        <pt x="851" y="643" on="1"/>
        <pt x="773" y="643" on="1"/>
        <pt x="685" y="12" on="1"/>
        <pt x="684" y="0" on="0"/>
      </contour>
    </TTGlyph>
    <TTGlyph name="Nacute" xMin="50" yMin="0" xMax="872" yMax="995">
      <contour>
        <pt x="651" y="932" on="1"/>
        <pt x="465" y="798" on="1"/>
        <pt x="452" y="791" on="0"/>
        <pt x="445" y="801" on="1"/>
        <pt x="425" y="830" on="1"/>
        <pt x="417" y="839" on="0"/>
        <pt x="430" y="849" on="1"/>
        <pt x="610" y="990" on="1"/>
        <pt x="615" y="994" on="0"/>
        <pt x="619" y="994" on="1"/>
        <pt x="630" y="989" on="1"/>
        <pt x="655" y="951" on="1"/>
        <pt x="663" y="942" on="0"/>
      </contour>
      <contour>
        <pt x="670" y="0" on="1"/>
        <pt x="616" y="0" on="1"/>
        <pt x="597" y="0" on="0"/>
        <pt x="578" y="15" on="0"/>
        <pt x="570" y="31" on="1"/>
        <pt x="344" y="483" on="1"/>
        <pt x="306" y="567" on="1"/>
        <pt x="304" y="567" on="1"/>
        <pt x="235" y="75" on="1"/>
        <pt x="312" y="75" on="1"/>
        <pt x="324" y="75" on="0"/>
        <pt x="323" y="63" on="1"/>
        <pt x="316" y="12" on="1"/>
        <pt x="314" y="0" on="0"/>
        <pt x="301" y="0" on="1"/>
        <pt x="61" y="0" on="1"/>
        <pt x="48" y="0" on="0"/>
        <pt x="50" y="12" on="1"/>
        <pt x="57" y="63" on="1"/>
        <pt x="58" y="75" on="0"/>
        <pt x="71" y="75" on="1"/>
        <pt x="148" y="75" on="1"/>
        <pt x="228" y="643" on="1"/>
        <pt x="151" y="643" on="1"/>
        <pt x="140" y="643" on="0"/>
        <pt x="141" y="655" on="1"/>
        <pt x="148" y="706" on="1"/>
        <pt x="150" y="718" on="0"/>
        <pt x="162" y="718" on="1"/>
        <pt x="302" y="718" on="1"/>
        <pt x="332" y="718" on="0"/>
        <pt x="348" y="684" on="1"/>
        <pt x="571" y="238" on="1"/>
        <pt x="614" y="141" on="1"/>
        <pt x="616" y="141" on="1"/>
        <pt x="686" y="643" on="1"/>
        <pt x="610" y="643" on="1"/>
        <pt x="598" y="643" on="0"/>
        <pt x="599" y="655" on="1"/>
        <pt x="606" y="706" on="1"/>
        <pt x="608" y="718" on="0"/>
        <pt x="620" y="718" on="1"/>
        <pt x="861" y="718" on="1"/>
        <pt x="874" y="718" on="0"/>
        <pt x="872" y="706" on="1"/>
        <pt x="865" y="655" on="1"/>
        <pt x="864" y="643" on="0"/>
        <pt x="851" y="643" on="1"/>
        <pt x="773" y="643" on="1"/>
        <pt x="685" y="12" on="1"/>
        <pt x="684" y="0" on="0"/>
      </contour>
    </TTGlyph>
    <TTGlyph name="Ncaron" xMin="50" yMin="0" xMax="872" yMax="992">
      <contour>
        <pt x="536" y="804" on="1"/>
        <pt x="531" y="799" on="0"/>
        <pt x="520" y="799" on="0"/>
        <pt x="516" y="803" on="1"/>
        <pt x="381" y="939" on="1"/>
        <pt x="371" y="947" on="0"/>
        <pt x="380" y="958" on="1"/>
        <pt x="410" y="986" on="1"/>
        <pt x="415" y="992" on="0"/>
        <pt x="425" y="992" on="0"/>
        <pt x="429" y="988" on="1"/>
        <pt x="536" y="883" on="1"/>
        <pt x="675" y="988" on="1"/>
        <pt x="680" y="992" on="0"/>
        <pt x="690" y="992" on="0"/>
        <pt x="694" y="986" on="1"/>
        <pt x="714" y="958" on="1"/>
        <pt x="719" y="948" on="0"/>
        <pt x="710" y="939" on="1"/>
      </contour>
      <contour>
        <pt x="670" y="0" on="1"/>
        <pt x="616" y="0" on="1"/>
        <pt x="597" y="0" on="0"/>
        <pt x="578" y="15" on="0"/>
        <pt x="570" y="31" on="1"/>
        <pt x="344" y="483" on="1"/>
        <pt x="306" y="567" on="1"/>
        <pt x="304" y="567" on="1"/>
        <pt x="235" y="75" on="1"/>
        <pt x="312" y="75" on="1"/>
        <pt x="324" y="75" on="0"/>
        <pt x="323" y="63" on="1"/>
        <pt x="316" y="12" on="1"/>
        <pt x="314" y="0" on="0"/>
        <pt x="301" y="0" on="1"/>
        <pt x="61" y="0" on="1"/>
        <pt x="48" y="0" on="0"/>
        <pt x="50" y="12" on="1"/>
        <pt x="57" y="63" on="1"/>
        <pt x="58" y="75" on="0"/>
        <pt x="71" y="75" on="1"/>
        <pt x="148" y="75" on="1"/>
        <pt x="228" y="643" on="1"/>
        <pt x="151" y="643" on="1"/>
        <pt x="140" y="643" on="0"/>
        <pt x="141" y="655" on="1"/>
        <pt x="148" y="706" on="1"/>
        <pt x="150" y="718" on="0"/>
        <pt x="162" y="718" on="1"/>
        <pt x="302" y="718" on="1"/>
        <pt x="332" y="718" on="0"/>
        <pt x="348" y="684" on="1"/>
        <pt x="571" y="238" on="1"/>
        <pt x="614" y="141" on="1"/>
        <pt x="616" y="141" on="1"/>
        <pt x="686" y="643" on="1"/>
        <pt x="610" y="643" on="1"/>
        <pt x="598" y="643" on="0"/>
        <pt x="599" y="655" on="1"/>
        <pt x="606" y="706" on="1"/>
        <pt x="608" y="718" on="0"/>
        <pt x="620" y="718" on="1"/>
        <pt x="861" y="718" on="1"/>
        <pt x="874" y="718" on="0"/>
        <pt x="872" y="706" on="1"/>
        <pt x="865" y="655" on="1"/>
        <pt x="864" y="643" on="0"/>
        <pt x="851" y="643" on="1"/>
        <pt x="773" y="643" on="1"/>
        <pt x="685" y="12" on="1"/>
        <pt x="684" y="0" on="0"/>
      </contour>
    </TTGlyph>
    <TTGlyph name="Ncommaaccent" xMin="50" yMin="-228" xMax="872" yMax="718">
      <contour>
        <pt x="351" y="-205" on="1"/>
        <pt x="352" y="-199" on="0"/>
        <pt x="376" y="-199" on="0"/>
        <pt x="407" y="-169" on="0"/>
        <pt x="407" y="-141" on="1"/>
        <pt x="406" y="-135" on="1"/>
        <pt x="400" y="-140" on="0"/>
        <pt x="371" y="-140" on="0"/>
        <pt x="350" y="-118" on="0"/>
        <pt x="350" y="-78" on="0"/>
        <pt x="382" y="-46" on="0"/>
        <pt x="404" y="-46" on="1"/>
        <pt x="450" y="-46" on="0"/>
        <pt x="450" y="-165" on="0"/>
        <pt x="396" y="-228" on="0"/>
        <pt x="355" y="-228" on="1"/>
        <pt x="348" y="-228" on="0"/>
        <pt x="348" y="-222" on="1"/>
      </contour>
      <contour>
        <pt x="670" y="0" on="1"/>
        <pt x="616" y="0" on="1"/>
        <pt x="597" y="0" on="0"/>
        <pt x="578" y="15" on="0"/>
        <pt x="570" y="31" on="1"/>
        <pt x="344" y="483" on="1"/>
        <pt x="306" y="567" on="1"/>
        <pt x="304" y="567" on="1"/>
        <pt x="235" y="75" on="1"/>
        <pt x="312" y="75" on="1"/>
        <pt x="324" y="75" on="0"/>
        <pt x="323" y="63" on="1"/>
        <pt x="316" y="12" on="1"/>
        <pt x="314" y="0" on="0"/>
        <pt x="301" y="0" on="1"/>
        <pt x="61" y="0" on="1"/>
        <pt x="48" y="0" on="0"/>
        <pt x="50" y="12" on="1"/>
        <pt x="57" y="63" on="1"/>
        <pt x="58" y="75" on="0"/>
        <pt x="71" y="75" on="1"/>
        <pt x="148" y="75" on="1"/>
        <pt x="228" y="643" on="1"/>
        <pt x="151" y="643" on="1"/>
        <pt x="140" y="643" on="0"/>
        <pt x="141" y="655" on="1"/>
        <pt x="148" y="706" on="1"/>
        <pt x="150" y="718" on="0"/>
        <pt x="162" y="718" on="1"/>
        <pt x="302" y="718" on="1"/>
        <pt x="332" y="718" on="0"/>
        <pt x="348" y="684" on="1"/>
        <pt x="571" y="238" on="1"/>
        <pt x="614" y="141" on="1"/>
        <pt x="616" y="141" on="1"/>
        <pt x="686" y="643" on="1"/>
        <pt x="610" y="643" on="1"/>
        <pt x="598" y="643" on="0"/>
        <pt x="599" y="655" on="1"/>
        <pt x="606" y="706" on="1"/>
        <pt x="608" y="718" on="0"/>
        <pt x="620" y="718" on="1"/>
        <pt x="861" y="718" on="1"/>
        <pt x="874" y="718" on="0"/>
        <pt x="872" y="706" on="1"/>
        <pt x="865" y="655" on="1"/>
        <pt x="864" y="643" on="0"/>
        <pt x="851" y="643" on="1"/>
        <pt x="773" y="643" on="1"/>
        <pt x="685" y="12" on="1"/>
        <pt x="684" y="0" on="0"/>
      </contour>
    </TTGlyph>
    <TTGlyph name="Ntilde" xMin="50" yMin="0" xMax="872" yMax="910">
      <contour>
        <pt x="670" y="0" on="1"/>
        <pt x="616" y="0" on="1"/>
        <pt x="597" y="0" on="0"/>
        <pt x="578" y="15" on="0"/>
        <pt x="570" y="31" on="1"/>
        <pt x="344" y="483" on="1"/>
        <pt x="306" y="567" on="1"/>
        <pt x="304" y="567" on="1"/>
        <pt x="235" y="75" on="1"/>
        <pt x="312" y="75" on="1"/>
        <pt x="324" y="75" on="0"/>
        <pt x="323" y="63" on="1"/>
        <pt x="316" y="12" on="1"/>
        <pt x="314" y="0" on="0"/>
        <pt x="301" y="0" on="1"/>
        <pt x="61" y="0" on="1"/>
        <pt x="48" y="0" on="0"/>
        <pt x="50" y="12" on="1"/>
        <pt x="57" y="63" on="1"/>
        <pt x="58" y="75" on="0"/>
        <pt x="71" y="75" on="1"/>
        <pt x="148" y="75" on="1"/>
        <pt x="228" y="643" on="1"/>
        <pt x="151" y="643" on="1"/>
        <pt x="140" y="643" on="0"/>
        <pt x="141" y="655" on="1"/>
        <pt x="148" y="706" on="1"/>
        <pt x="150" y="718" on="0"/>
        <pt x="162" y="718" on="1"/>
        <pt x="302" y="718" on="1"/>
        <pt x="332" y="718" on="0"/>
        <pt x="348" y="684" on="1"/>
        <pt x="571" y="238" on="1"/>
        <pt x="614" y="141" on="1"/>
        <pt x="616" y="141" on="1"/>
        <pt x="686" y="643" on="1"/>
        <pt x="610" y="643" on="1"/>
        <pt x="598" y="643" on="0"/>
        <pt x="599" y="655" on="1"/>
        <pt x="606" y="706" on="1"/>
        <pt x="608" y="718" on="0"/>
        <pt x="620" y="718" on="1"/>
        <pt x="861" y="718" on="1"/>
        <pt x="874" y="718" on="0"/>
        <pt x="872" y="706" on="1"/>
        <pt x="865" y="655" on="1"/>
        <pt x="864" y="643" on="0"/>
        <pt x="851" y="643" on="1"/>
        <pt x="773" y="643" on="1"/>
        <pt x="685" y="12" on="1"/>
        <pt x="684" y="0" on="0"/>
      </contour>
      <contour>
        <pt x="667" y="910" on="1"/>
        <pt x="691" y="910" on="1"/>
        <pt x="701" y="910" on="0"/>
        <pt x="701" y="901" on="1"/>
        <pt x="701" y="852" on="0"/>
        <pt x="648" y="785" on="0"/>
        <pt x="598" y="785" on="1"/>
        <pt x="573" y="785" on="0"/>
        <pt x="533" y="805" on="0"/>
        <pt x="522" y="816" on="1"/>
        <pt x="494" y="848" on="0"/>
        <pt x="448" y="848" on="0"/>
        <pt x="424" y="823" on="0"/>
        <pt x="420" y="791" on="1"/>
        <pt x="418" y="779" on="0"/>
        <pt x="406" y="779" on="1"/>
        <pt x="383" y="779" on="1"/>
        <pt x="372" y="779" on="0"/>
        <pt x="372" y="789" on="1"/>
        <pt x="372" y="834" on="0"/>
        <pt x="423" y="899" on="0"/>
        <pt x="473" y="899" on="1"/>
        <pt x="496" y="899" on="0"/>
        <pt x="535" y="878" on="0"/>
        <pt x="546" y="866" on="1"/>
        <pt x="574" y="833" on="0"/>
        <pt x="626" y="833" on="0"/>
        <pt x="648" y="861" on="0"/>
        <pt x="653" y="898" on="1"/>
        <pt x="654" y="910" on="0"/>
      </contour>
    </TTGlyph>
    <TTGlyph name="O" xMin="94" yMin="-7" xMax="800" yMax="724">
      <contour>
        <pt x="396" y="-7" on="1"/>
        <pt x="263" y="-7" on="0"/>
        <pt x="94" y="170" on="0"/>
        <pt x="94" y="312" on="1"/>
        <pt x="94" y="405" on="0"/>
        <pt x="164" y="564" on="0"/>
        <pt x="279" y="667" on="0"/>
        <pt x="423" y="724" on="0"/>
        <pt x="498" y="724" on="1"/>
        <pt x="626" y="724" on="0"/>
        <pt x="800" y="556" on="0"/>
        <pt x="800" y="414" on="1"/>
        <pt x="800" y="230" on="0"/>
        <pt x="563" y="-7" on="0"/>
      </contour>
      <contour>
        <pt x="407" y="74" on="1"/>
        <pt x="480" y="74" on="0"/>
        <pt x="613" y="147" on="0"/>
        <pt x="705" y="301" on="0"/>
        <pt x="705" y="517" on="0"/>
        <pt x="575" y="645" on="0"/>
        <pt x="487" y="645" on="1"/>
        <pt x="380" y="645" on="0"/>
        <pt x="288" y="564" on="1"/>
        <pt x="244" y="524" on="0"/>
        <pt x="189" y="395" on="0"/>
        <pt x="189" y="316" on="1"/>
        <pt x="189" y="203" on="0"/>
        <pt x="316" y="74" on="0"/>
      </contour>
    </TTGlyph>
    <TTGlyph name="OE" xMin="94" yMin="0" xMax="958" yMax="718">
      <contour>
        <pt x="847" y="0" on="1"/>
        <pt x="393" y="0" on="1"/>
        <pt x="261" y="0" on="0"/>
        <pt x="94" y="172" on="0"/>
        <pt x="94" y="435" on="0"/>
        <pt x="212" y="624" on="0"/>
        <pt x="392" y="718" on="0"/>
        <pt x="493" y="718" on="1"/>
        <pt x="948" y="718" on="1"/>
        <pt x="960" y="718" on="0"/>
        <pt x="958" y="706" on="1"/>
        <pt x="935" y="545" on="1"/>
        <pt x="933" y="532" on="0"/>
        <pt x="921" y="532" on="1"/>
        <pt x="867" y="532" on="1"/>
        <pt x="854" y="532" on="0"/>
        <pt x="856" y="545" on="1"/>
        <pt x="870" y="643" on="1"/>
        <pt x="569" y="643" on="1"/>
        <pt x="534" y="395" on="1"/>
        <pt x="787" y="395" on="1"/>
        <pt x="800" y="395" on="0"/>
        <pt x="798" y="383" on="1"/>
        <pt x="791" y="332" on="1"/>
        <pt x="790" y="320" on="0"/>
        <pt x="777" y="320" on="1"/>
        <pt x="523" y="320" on="1"/>
        <pt x="489" y="75" on="1"/>
        <pt x="791" y="75" on="1"/>
        <pt x="804" y="173" on="1"/>
        <pt x="807" y="185" on="0"/>
        <pt x="818" y="185" on="1"/>
        <pt x="872" y="185" on="1"/>
        <pt x="884" y="185" on="0"/>
        <pt x="883" y="173" on="1"/>
        <pt x="860" y="12" on="1"/>
        <pt x="858" y="0" on="0"/>
      </contour>
      <contour>
        <pt x="189" y="317" on="1"/>
        <pt x="189" y="206" on="0"/>
        <pt x="313" y="81" on="0"/>
        <pt x="402" y="79" on="1"/>
        <pt x="481" y="639" on="1"/>
        <pt x="376" y="637" on="0"/>
        <pt x="286" y="559" on="1"/>
        <pt x="243" y="521" on="0"/>
        <pt x="189" y="395" on="0"/>
      </contour>
    </TTGlyph>
    <TTGlyph name="Oacute" xMin="94" yMin="-7" xMax="800" yMax="995">
      <contour>
        <pt x="629" y="932" on="1"/>
        <pt x="443" y="798" on="1"/>
        <pt x="430" y="791" on="0"/>
        <pt x="423" y="801" on="1"/>
        <pt x="403" y="830" on="1"/>
        <pt x="395" y="839" on="0"/>
        <pt x="408" y="849" on="1"/>
        <pt x="588" y="990" on="1"/>
        <pt x="593" y="994" on="0"/>
        <pt x="597" y="994" on="1"/>
        <pt x="608" y="989" on="1"/>
        <pt x="633" y="951" on="1"/>
        <pt x="641" y="942" on="0"/>
      </contour>
      <contour>
        <pt x="396" y="-7" on="1"/>
        <pt x="263" y="-7" on="0"/>
        <pt x="94" y="170" on="0"/>
        <pt x="94" y="312" on="1"/>
        <pt x="94" y="405" on="0"/>
        <pt x="164" y="564" on="0"/>
        <pt x="279" y="667" on="0"/>
        <pt x="423" y="724" on="0"/>
        <pt x="498" y="724" on="1"/>
        <pt x="626" y="724" on="0"/>
        <pt x="800" y="556" on="0"/>
        <pt x="800" y="414" on="1"/>
        <pt x="800" y="230" on="0"/>
        <pt x="563" y="-7" on="0"/>
      </contour>
      <contour>
        <pt x="407" y="74" on="1"/>
        <pt x="480" y="74" on="0"/>
        <pt x="613" y="147" on="0"/>
        <pt x="705" y="301" on="0"/>
        <pt x="705" y="517" on="0"/>
        <pt x="575" y="645" on="0"/>
        <pt x="487" y="645" on="1"/>
        <pt x="380" y="645" on="0"/>
        <pt x="288" y="564" on="1"/>
        <pt x="244" y="524" on="0"/>
        <pt x="189" y="395" on="0"/>
        <pt x="189" y="316" on="1"/>
        <pt x="189" y="203" on="0"/>
        <pt x="316" y="74" on="0"/>
      </contour>
    </TTGlyph>
    <TTGlyph name="Obreve" xMin="94" yMin="-7" xMax="800" yMax="941">
      <contour>
        <pt x="396" y="-7" on="1"/>
        <pt x="263" y="-7" on="0"/>
        <pt x="94" y="170" on="0"/>
        <pt x="94" y="312" on="1"/>
        <pt x="94" y="405" on="0"/>
        <pt x="164" y="564" on="0"/>
        <pt x="279" y="667" on="0"/>
        <pt x="423" y="724" on="0"/>
        <pt x="498" y="724" on="1"/>
        <pt x="626" y="724" on="0"/>
        <pt x="800" y="556" on="0"/>
        <pt x="800" y="414" on="1"/>
        <pt x="800" y="230" on="0"/>
        <pt x="563" y="-7" on="0"/>
      </contour>
      <contour>
        <pt x="407" y="74" on="1"/>
        <pt x="480" y="74" on="0"/>
        <pt x="613" y="147" on="0"/>
        <pt x="705" y="301" on="0"/>
        <pt x="705" y="517" on="0"/>
        <pt x="575" y="645" on="0"/>
        <pt x="487" y="645" on="1"/>
        <pt x="380" y="645" on="0"/>
        <pt x="288" y="564" on="1"/>
        <pt x="244" y="524" on="0"/>
        <pt x="189" y="395" on="0"/>
        <pt x="189" y="316" on="1"/>
        <pt x="189" y="203" on="0"/>
        <pt x="316" y="74" on="0"/>
      </contour>
      <contour>
        <pt x="626" y="941" on="1"/>
        <pt x="657" y="941" on="1"/>
        <pt x="669" y="941" on="0"/>
        <pt x="669" y="930" on="1"/>
        <pt x="669" y="867" on="0"/>
        <pt x="577" y="789" on="0"/>
        <pt x="453" y="789" on="0"/>
        <pt x="387" y="849" on="0"/>
        <pt x="387" y="906" on="1"/>
        <pt x="387" y="941" on="0"/>
        <pt x="404" y="941" on="1"/>
        <pt x="436" y="941" on="1"/>
        <pt x="446" y="941" on="0"/>
        <pt x="446" y="880" on="0"/>
        <pt x="485" y="840" on="0"/>
        <pt x="550" y="840" on="0"/>
        <pt x="604" y="887" on="0"/>
        <pt x="610" y="928" on="1"/>
        <pt x="612" y="941" on="0"/>
      </contour>
    </TTGlyph>
    <TTGlyph name="Ocircumflex" xMin="94" yMin="-7" xMax="800" yMax="989">
      <contour>
        <pt x="524" y="985" on="1"/>
        <pt x="529" y="989" on="0"/>
        <pt x="540" y="989" on="0"/>
        <pt x="544" y="984" on="1"/>
        <pt x="679" y="849" on="1"/>
        <pt x="687" y="840" on="0"/>
        <pt x="679" y="830" on="1"/>
        <pt x="650" y="801" on="1"/>
        <pt x="640" y="791" on="0"/>
        <pt x="631" y="799" on="1"/>
        <pt x="522" y="904" on="1"/>
        <pt x="385" y="799" on="1"/>
        <pt x="373" y="790" on="0"/>
        <pt x="366" y="801" on="1"/>
        <pt x="345" y="830" on="1"/>
        <pt x="338" y="840" on="0"/>
        <pt x="350" y="849" on="1"/>
      </contour>
      <contour>
        <pt x="396" y="-7" on="1"/>
        <pt x="263" y="-7" on="0"/>
        <pt x="94" y="170" on="0"/>
        <pt x="94" y="312" on="1"/>
        <pt x="94" y="405" on="0"/>
        <pt x="164" y="564" on="0"/>
        <pt x="279" y="667" on="0"/>
        <pt x="423" y="724" on="0"/>
        <pt x="498" y="724" on="1"/>
        <pt x="626" y="724" on="0"/>
        <pt x="800" y="556" on="0"/>
        <pt x="800" y="414" on="1"/>
        <pt x="800" y="230" on="0"/>
        <pt x="563" y="-7" on="0"/>
      </contour>
      <contour>
        <pt x="407" y="74" on="1"/>
        <pt x="480" y="74" on="0"/>
        <pt x="613" y="147" on="0"/>
        <pt x="705" y="301" on="0"/>
        <pt x="705" y="517" on="0"/>
        <pt x="575" y="645" on="0"/>
        <pt x="487" y="645" on="1"/>
        <pt x="380" y="645" on="0"/>
        <pt x="288" y="564" on="1"/>
        <pt x="244" y="524" on="0"/>
        <pt x="189" y="395" on="0"/>
        <pt x="189" y="316" on="1"/>
        <pt x="189" y="203" on="0"/>
        <pt x="316" y="74" on="0"/>
      </contour>
    </TTGlyph>
    <TTGlyph name="Odieresis" xMin="94" yMin="-7" xMax="800" yMax="867">
      <contour>
        <pt x="454" y="867" on="0"/>
        <pt x="475" y="845" on="0"/>
        <pt x="475" y="810" on="0"/>
        <pt x="446" y="782" on="0"/>
        <pt x="410" y="782" on="0"/>
        <pt x="390" y="802" on="0"/>
        <pt x="390" y="838" on="0"/>
        <pt x="418" y="867" on="0"/>
      </contour>
      <contour>
        <pt x="612" y="867" on="0"/>
        <pt x="633" y="845" on="0"/>
        <pt x="633" y="810" on="0"/>
        <pt x="604" y="782" on="0"/>
        <pt x="568" y="782" on="0"/>
        <pt x="548" y="802" on="0"/>
        <pt x="548" y="838" on="0"/>
        <pt x="576" y="867" on="0"/>
      </contour>
      <contour>
        <pt x="396" y="-7" on="1"/>
        <pt x="263" y="-7" on="0"/>
        <pt x="94" y="170" on="0"/>
        <pt x="94" y="312" on="1"/>
        <pt x="94" y="405" on="0"/>
        <pt x="164" y="564" on="0"/>
        <pt x="279" y="667" on="0"/>
        <pt x="423" y="724" on="0"/>
        <pt x="498" y="724" on="1"/>
        <pt x="626" y="724" on="0"/>
        <pt x="800" y="556" on="0"/>
        <pt x="800" y="414" on="1"/>
        <pt x="800" y="230" on="0"/>
        <pt x="563" y="-7" on="0"/>
      </contour>
      <contour>
        <pt x="407" y="74" on="1"/>
        <pt x="480" y="74" on="0"/>
        <pt x="613" y="147" on="0"/>
        <pt x="705" y="301" on="0"/>
        <pt x="705" y="517" on="0"/>
        <pt x="575" y="645" on="0"/>
        <pt x="487" y="645" on="1"/>
        <pt x="380" y="645" on="0"/>
        <pt x="288" y="564" on="1"/>
        <pt x="244" y="524" on="0"/>
        <pt x="189" y="395" on="0"/>
        <pt x="189" y="316" on="1"/>
        <pt x="189" y="203" on="0"/>
        <pt x="316" y="74" on="0"/>
      </contour>
    </TTGlyph>
    <TTGlyph name="Ograve" xMin="94" yMin="-7" xMax="800" yMax="996">
      <contour>
        <pt x="396" y="-7" on="1"/>
        <pt x="263" y="-7" on="0"/>
        <pt x="94" y="170" on="0"/>
        <pt x="94" y="312" on="1"/>
        <pt x="94" y="405" on="0"/>
        <pt x="164" y="564" on="0"/>
        <pt x="279" y="667" on="0"/>
        <pt x="423" y="724" on="0"/>
        <pt x="498" y="724" on="1"/>
        <pt x="626" y="724" on="0"/>
        <pt x="800" y="556" on="0"/>
        <pt x="800" y="414" on="1"/>
        <pt x="800" y="230" on="0"/>
        <pt x="563" y="-7" on="0"/>
      </contour>
      <contour>
        <pt x="407" y="74" on="1"/>
        <pt x="480" y="74" on="0"/>
        <pt x="613" y="147" on="0"/>
        <pt x="705" y="301" on="0"/>
        <pt x="705" y="517" on="0"/>
        <pt x="575" y="645" on="0"/>
        <pt x="487" y="645" on="1"/>
        <pt x="380" y="645" on="0"/>
        <pt x="288" y="564" on="1"/>
        <pt x="244" y="524" on="0"/>
        <pt x="189" y="395" on="0"/>
        <pt x="189" y="316" on="1"/>
        <pt x="189" y="203" on="0"/>
        <pt x="316" y="74" on="0"/>
      </contour>
      <contour>
        <pt x="562" y="801" on="1"/>
        <pt x="557" y="795" on="0"/>
        <pt x="547" y="795" on="0"/>
        <pt x="543" y="799" on="1"/>
        <pt x="394" y="933" on="1"/>
        <pt x="390" y="937" on="0"/>
        <pt x="390" y="946" on="0"/>
        <pt x="396" y="952" on="1"/>
        <pt x="432" y="989" on="1"/>
        <pt x="437" y="995" on="0"/>
        <pt x="447" y="995" on="0"/>
        <pt x="452" y="991" on="1"/>
        <pt x="592" y="849" on="1"/>
        <pt x="597" y="844" on="0"/>
        <pt x="597" y="835" on="0"/>
        <pt x="592" y="830" on="1"/>
      </contour>
    </TTGlyph>
    <TTGlyph name="Ohungarumlaut" xMin="94" yMin="-7" xMax="800" yMax="1004">
      <contour>
        <pt x="569" y="999" on="1"/>
        <pt x="574" y="1004" on="0"/>
        <pt x="583" y="1004" on="0"/>
        <pt x="588" y="998" on="1"/>
        <pt x="614" y="960" on="1"/>
        <pt x="620" y="949" on="0"/>
        <pt x="609" y="941" on="1"/>
        <pt x="423" y="807" on="1"/>
        <pt x="411" y="800" on="0"/>
        <pt x="404" y="810" on="1"/>
        <pt x="383" y="839" on="1"/>
        <pt x="376" y="848" on="0"/>
        <pt x="388" y="858" on="1"/>
      </contour>
      <contour>
        <pt x="782" y="941" on="1"/>
        <pt x="596" y="807" on="1"/>
        <pt x="583" y="800" on="0"/>
        <pt x="576" y="810" on="1"/>
        <pt x="556" y="839" on="1"/>
        <pt x="548" y="848" on="0"/>
        <pt x="561" y="858" on="1"/>
        <pt x="741" y="999" on="1"/>
        <pt x="746" y="1003" on="0"/>
        <pt x="750" y="1003" on="1"/>
        <pt x="761" y="998" on="1"/>
        <pt x="786" y="960" on="1"/>
        <pt x="794" y="949" on="0"/>
      </contour>
      <contour>
        <pt x="396" y="-7" on="1"/>
        <pt x="263" y="-7" on="0"/>
        <pt x="94" y="170" on="0"/>
        <pt x="94" y="312" on="1"/>
        <pt x="94" y="405" on="0"/>
        <pt x="164" y="564" on="0"/>
        <pt x="279" y="667" on="0"/>
        <pt x="423" y="724" on="0"/>
        <pt x="498" y="724" on="1"/>
        <pt x="626" y="724" on="0"/>
        <pt x="800" y="556" on="0"/>
        <pt x="800" y="414" on="1"/>
        <pt x="800" y="230" on="0"/>
        <pt x="563" y="-7" on="0"/>
      </contour>
      <contour>
        <pt x="407" y="74" on="1"/>
        <pt x="480" y="74" on="0"/>
        <pt x="613" y="147" on="0"/>
        <pt x="705" y="301" on="0"/>
        <pt x="705" y="517" on="0"/>
        <pt x="575" y="645" on="0"/>
        <pt x="487" y="645" on="1"/>
        <pt x="380" y="645" on="0"/>
        <pt x="288" y="564" on="1"/>
        <pt x="244" y="524" on="0"/>
        <pt x="189" y="395" on="0"/>
        <pt x="189" y="316" on="1"/>
        <pt x="189" y="203" on="0"/>
        <pt x="316" y="74" on="0"/>
      </contour>
    </TTGlyph>
    <TTGlyph name="Omacron" xMin="94" yMin="-7" xMax="800" yMax="849">
      <contour>
        <pt x="655" y="780" on="1"/>
        <pt x="360" y="780" on="1"/>
        <pt x="347" y="780" on="0"/>
        <pt x="349" y="793" on="1"/>
        <pt x="355" y="835" on="1"/>
        <pt x="357" y="849" on="0"/>
        <pt x="370" y="849" on="1"/>
        <pt x="665" y="849" on="1"/>
        <pt x="679" y="849" on="0"/>
        <pt x="677" y="835" on="1"/>
        <pt x="671" y="793" on="1"/>
        <pt x="669" y="780" on="0"/>
      </contour>
      <contour>
        <pt x="396" y="-7" on="1"/>
        <pt x="263" y="-7" on="0"/>
        <pt x="94" y="170" on="0"/>
        <pt x="94" y="312" on="1"/>
        <pt x="94" y="405" on="0"/>
        <pt x="164" y="564" on="0"/>
        <pt x="279" y="667" on="0"/>
        <pt x="423" y="724" on="0"/>
        <pt x="498" y="724" on="1"/>
        <pt x="626" y="724" on="0"/>
        <pt x="800" y="556" on="0"/>
        <pt x="800" y="414" on="1"/>
        <pt x="800" y="230" on="0"/>
        <pt x="563" y="-7" on="0"/>
      </contour>
      <contour>
        <pt x="407" y="74" on="1"/>
        <pt x="480" y="74" on="0"/>
        <pt x="613" y="147" on="0"/>
        <pt x="705" y="301" on="0"/>
        <pt x="705" y="517" on="0"/>
        <pt x="575" y="645" on="0"/>
        <pt x="487" y="645" on="1"/>
        <pt x="380" y="645" on="0"/>
        <pt x="288" y="564" on="1"/>
        <pt x="244" y="524" on="0"/>
        <pt x="189" y="395" on="0"/>
        <pt x="189" y="316" on="1"/>
        <pt x="189" y="203" on="0"/>
        <pt x="316" y="74" on="0"/>
      </contour>
    </TTGlyph>
    <TTGlyph name="Oslash" xMin="94" yMin="-51" xMax="800" yMax="783">
      <contour>
        <pt x="301" y="-51" on="1"/>
        <pt x="241" y="-51" on="1"/>
        <pt x="228" y="-51" on="0"/>
        <pt x="234" y="-39" on="1"/>
        <pt x="260" y="21" on="1"/>
        <pt x="183" y="56" on="0"/>
        <pt x="94" y="210" on="0"/>
        <pt x="94" y="405" on="0"/>
        <pt x="164" y="564" on="0"/>
        <pt x="279" y="667" on="0"/>
        <pt x="423" y="724" on="0"/>
        <pt x="498" y="724" on="1"/>
        <pt x="531" y="724" on="0"/>
        <pt x="565" y="716" on="1"/>
        <pt x="590" y="771" on="1"/>
        <pt x="594" y="783" on="0"/>
        <pt x="608" y="783" on="1"/>
        <pt x="667" y="783" on="1"/>
        <pt x="678" y="783" on="0"/>
        <pt x="674" y="771" on="1"/>
        <pt x="640" y="693" on="1"/>
        <pt x="713" y="659" on="0"/>
        <pt x="800" y="512" on="0"/>
        <pt x="800" y="413" on="1"/>
        <pt x="800" y="230" on="0"/>
        <pt x="563" y="-7" on="0"/>
        <pt x="396" y="-7" on="1"/>
        <pt x="365" y="-7" on="0"/>
        <pt x="335" y="1" on="1"/>
        <pt x="318" y="-39" on="1"/>
        <pt x="312" y="-51" on="0"/>
      </contour>
      <contour>
        <pt x="243" y="521" on="0"/>
        <pt x="189" y="393" on="0"/>
        <pt x="189" y="240" on="0"/>
        <pt x="248" y="133" on="0"/>
        <pt x="297" y="107" on="1"/>
        <pt x="531" y="636" on="1"/>
        <pt x="507" y="644" on="0"/>
        <pt x="428" y="642" on="0"/>
        <pt x="329" y="599" on="0"/>
      </contour>
      <contour>
        <pt x="370" y="81" on="1"/>
        <pt x="393" y="75" on="0"/>
        <pt x="470" y="75" on="0"/>
        <pt x="571" y="119" on="0"/>
        <pt x="654" y="200" on="0"/>
        <pt x="705" y="327" on="0"/>
        <pt x="705" y="475" on="0"/>
        <pt x="648" y="580" on="0"/>
        <pt x="602" y="606" on="1"/>
      </contour>
    </TTGlyph>
    <TTGlyph name="Oslashacute" xMin="94" yMin="-51" xMax="800" yMax="999">
      <contour>
        <pt x="301" y="-51" on="1"/>
        <pt x="241" y="-51" on="1"/>
        <pt x="228" y="-51" on="0"/>
        <pt x="234" y="-39" on="1"/>
        <pt x="260" y="21" on="1"/>
        <pt x="183" y="56" on="0"/>
        <pt x="94" y="210" on="0"/>
        <pt x="94" y="405" on="0"/>
        <pt x="164" y="564" on="0"/>
        <pt x="279" y="667" on="0"/>
        <pt x="423" y="724" on="0"/>
        <pt x="498" y="724" on="1"/>
        <pt x="531" y="724" on="0"/>
        <pt x="565" y="716" on="1"/>
        <pt x="590" y="771" on="1"/>
        <pt x="594" y="783" on="0"/>
        <pt x="608" y="783" on="1"/>
        <pt x="667" y="783" on="1"/>
        <pt x="678" y="783" on="0"/>
        <pt x="674" y="771" on="1"/>
        <pt x="640" y="693" on="1"/>
        <pt x="713" y="659" on="0"/>
        <pt x="800" y="512" on="0"/>
        <pt x="800" y="413" on="1"/>
        <pt x="800" y="230" on="0"/>
        <pt x="563" y="-7" on="0"/>
        <pt x="396" y="-7" on="1"/>
        <pt x="365" y="-7" on="0"/>
        <pt x="335" y="1" on="1"/>
        <pt x="318" y="-39" on="1"/>
        <pt x="312" y="-51" on="0"/>
      </contour>
      <contour>
        <pt x="243" y="521" on="0"/>
        <pt x="189" y="393" on="0"/>
        <pt x="189" y="240" on="0"/>
        <pt x="248" y="133" on="0"/>
        <pt x="297" y="107" on="1"/>
        <pt x="531" y="636" on="1"/>
        <pt x="507" y="644" on="0"/>
        <pt x="428" y="642" on="0"/>
        <pt x="329" y="599" on="0"/>
      </contour>
      <contour>
        <pt x="370" y="81" on="1"/>
        <pt x="393" y="75" on="0"/>
        <pt x="470" y="75" on="0"/>
        <pt x="571" y="119" on="0"/>
        <pt x="654" y="200" on="0"/>
        <pt x="705" y="327" on="0"/>
        <pt x="705" y="475" on="0"/>
        <pt x="648" y="580" on="0"/>
        <pt x="602" y="606" on="1"/>
      </contour>
      <contour>
        <pt x="511" y="802" on="1"/>
        <pt x="506" y="799" on="0"/>
        <pt x="495" y="799" on="0"/>
        <pt x="491" y="805" on="1"/>
        <pt x="471" y="834" on="1"/>
        <pt x="468" y="837" on="0"/>
        <pt x="468" y="847" on="0"/>
        <pt x="476" y="853" on="1"/>
        <pt x="656" y="994" on="1"/>
        <pt x="661" y="998" on="0"/>
        <pt x="665" y="998" on="1"/>
        <pt x="676" y="993" on="1"/>
        <pt x="701" y="955" on="1"/>
        <pt x="704" y="951" on="0"/>
        <pt x="704" y="942" on="0"/>
        <pt x="697" y="936" on="1"/>
      </contour>
    </TTGlyph>
    <TTGlyph name="Otilde" xMin="94" yMin="-7" xMax="800" yMax="910">
      <contour>
        <pt x="396" y="-7" on="1"/>
        <pt x="263" y="-7" on="0"/>
        <pt x="94" y="170" on="0"/>
        <pt x="94" y="312" on="1"/>
        <pt x="94" y="405" on="0"/>
        <pt x="164" y="564" on="0"/>
        <pt x="279" y="667" on="0"/>
        <pt x="423" y="724" on="0"/>
        <pt x="498" y="724" on="1"/>
        <pt x="626" y="724" on="0"/>
        <pt x="800" y="556" on="0"/>
        <pt x="800" y="414" on="1"/>
        <pt x="800" y="230" on="0"/>
        <pt x="563" y="-7" on="0"/>
      </contour>
      <contour>
        <pt x="407" y="74" on="1"/>
        <pt x="480" y="74" on="0"/>
        <pt x="613" y="147" on="0"/>
        <pt x="705" y="301" on="0"/>
        <pt x="705" y="517" on="0"/>
        <pt x="575" y="645" on="0"/>
        <pt x="487" y="645" on="1"/>
        <pt x="380" y="645" on="0"/>
        <pt x="288" y="564" on="1"/>
        <pt x="244" y="524" on="0"/>
        <pt x="189" y="395" on="0"/>
        <pt x="189" y="316" on="1"/>
        <pt x="189" y="203" on="0"/>
        <pt x="316" y="74" on="0"/>
      </contour>
      <contour>
        <pt x="652" y="910" on="1"/>
        <pt x="676" y="910" on="1"/>
        <pt x="686" y="910" on="0"/>
        <pt x="686" y="901" on="1"/>
        <pt x="686" y="852" on="0"/>
        <pt x="633" y="785" on="0"/>
        <pt x="583" y="785" on="1"/>
        <pt x="558" y="785" on="0"/>
        <pt x="518" y="805" on="0"/>
        <pt x="508" y="816" on="1"/>
        <pt x="479" y="848" on="0"/>
        <pt x="433" y="848" on="0"/>
        <pt x="409" y="823" on="0"/>
        <pt x="405" y="791" on="1"/>
        <pt x="404" y="779" on="0"/>
        <pt x="391" y="779" on="1"/>
        <pt x="368" y="779" on="1"/>
        <pt x="357" y="779" on="0"/>
        <pt x="357" y="789" on="1"/>
        <pt x="357" y="834" on="0"/>
        <pt x="408" y="899" on="0"/>
        <pt x="458" y="899" on="1"/>
        <pt x="481" y="899" on="0"/>
        <pt x="520" y="878" on="0"/>
        <pt x="530" y="866" on="1"/>
        <pt x="559" y="833" on="0"/>
        <pt x="610" y="833" on="0"/>
        <pt x="633" y="861" on="0"/>
        <pt x="638" y="898" on="1"/>
        <pt x="640" y="910" on="0"/>
      </contour>
    </TTGlyph>
    <TTGlyph name="P" xMin="50" yMin="0" xMax="682" yMax="718">
      <contour>
        <pt x="322" y="0" on="1"/>
        <pt x="61" y="0" on="1"/>
        <pt x="48" y="0" on="0"/>
        <pt x="50" y="12" on="1"/>
        <pt x="57" y="63" on="1"/>
        <pt x="58" y="75" on="0"/>
        <pt x="71" y="75" on="1"/>
        <pt x="148" y="75" on="1"/>
        <pt x="228" y="643" on="1"/>
        <pt x="151" y="643" on="1"/>
        <pt x="140" y="643" on="0"/>
        <pt x="141" y="655" on="1"/>
        <pt x="148" y="706" on="1"/>
        <pt x="150" y="718" on="0"/>
        <pt x="162" y="718" on="1"/>
        <pt x="470" y="718" on="1"/>
        <pt x="565" y="718" on="0"/>
        <pt x="682" y="612" on="0"/>
        <pt x="682" y="521" on="1"/>
        <pt x="682" y="405" on="0"/>
        <pt x="530" y="271" on="0"/>
        <pt x="397" y="271" on="1"/>
        <pt x="263" y="271" on="1"/>
        <pt x="235" y="75" on="1"/>
        <pt x="332" y="75" on="1"/>
        <pt x="344" y="75" on="0"/>
        <pt x="343" y="63" on="1"/>
        <pt x="336" y="12" on="1"/>
        <pt x="334" y="0" on="0"/>
      </contour>
      <contour>
        <pt x="403" y="342" on="1"/>
        <pt x="494" y="342" on="0"/>
        <pt x="594" y="427" on="0"/>
        <pt x="594" y="513" on="1"/>
        <pt x="594" y="578" on="0"/>
        <pt x="510" y="643" on="0"/>
        <pt x="445" y="643" on="1"/>
        <pt x="315" y="643" on="1"/>
        <pt x="273" y="342" on="1"/>
      </contour>
    </TTGlyph>
    <TTGlyph name="Q" xMin="94" yMin="-109" xMax="800" yMax="724">
      <contour>
        <pt x="712" y="-82" on="1"/>
        <pt x="658" y="-109" on="0"/>
        <pt x="530" y="-109" on="0"/>
        <pt x="439" y="-86" on="0"/>
        <pt x="382" y="-53" on="0"/>
        <pt x="342" y="-19" on="0"/>
        <pt x="324" y="4" on="0"/>
        <pt x="325" y="4" on="1"/>
        <pt x="221" y="23" on="0"/>
        <pt x="94" y="190" on="0"/>
        <pt x="94" y="311" on="1"/>
        <pt x="94" y="405" on="0"/>
        <pt x="164" y="564" on="0"/>
        <pt x="279" y="667" on="0"/>
        <pt x="423" y="724" on="0"/>
        <pt x="498" y="724" on="1"/>
        <pt x="626" y="724" on="0"/>
        <pt x="800" y="556" on="0"/>
        <pt x="800" y="414" on="1"/>
        <pt x="800" y="242" on="0"/>
        <pt x="588" y="10" on="0"/>
        <pt x="432" y="-4" on="1"/>
        <pt x="495" y="-42" on="0"/>
        <pt x="592" y="-42" on="1"/>
        <pt x="651" y="-42" on="0"/>
        <pt x="699" y="-22" on="1"/>
        <pt x="711" y="-18" on="0"/>
        <pt x="712" y="-26" on="1"/>
        <pt x="721" y="-66" on="1"/>
        <pt x="723" y="-77" on="0"/>
      </contour>
      <contour>
        <pt x="408" y="77" on="1"/>
        <pt x="518" y="77" on="0"/>
        <pt x="608" y="160" on="1"/>
        <pt x="652" y="199" on="0"/>
        <pt x="705" y="326" on="0"/>
        <pt x="705" y="403" on="1"/>
        <pt x="705" y="517" on="0"/>
        <pt x="575" y="642" on="0"/>
        <pt x="487" y="642" on="1"/>
        <pt x="380" y="642" on="0"/>
        <pt x="288" y="562" on="1"/>
        <pt x="244" y="523" on="0"/>
        <pt x="189" y="395" on="0"/>
        <pt x="189" y="316" on="1"/>
        <pt x="189" y="203" on="0"/>
        <pt x="317" y="77" on="0"/>
      </contour>
    </TTGlyph>
    <TTGlyph name="R" xMin="50" yMin="0" xMax="683" yMax="718">
      <contour>
        <pt x="655" y="0" on="1"/>
        <pt x="568" y="0" on="1"/>
        <pt x="532" y="0" on="0"/>
        <pt x="516" y="48" on="1"/>
        <pt x="448" y="239" on="1"/>
        <pt x="439" y="265" on="0"/>
        <pt x="416" y="289" on="0"/>
        <pt x="392" y="289" on="1"/>
        <pt x="265" y="289" on="1"/>
        <pt x="235" y="75" on="1"/>
        <pt x="324" y="75" on="1"/>
        <pt x="336" y="75" on="0"/>
        <pt x="335" y="63" on="1"/>
        <pt x="328" y="12" on="1"/>
        <pt x="326" y="0" on="0"/>
        <pt x="314" y="0" on="1"/>
        <pt x="61" y="0" on="1"/>
        <pt x="48" y="0" on="0"/>
        <pt x="50" y="12" on="1"/>
        <pt x="57" y="63" on="1"/>
        <pt x="58" y="75" on="0"/>
        <pt x="71" y="75" on="1"/>
        <pt x="148" y="75" on="1"/>
        <pt x="228" y="643" on="1"/>
        <pt x="151" y="643" on="1"/>
        <pt x="140" y="643" on="0"/>
        <pt x="141" y="655" on="1"/>
        <pt x="148" y="706" on="1"/>
        <pt x="150" y="718" on="0"/>
        <pt x="162" y="718" on="1"/>
        <pt x="470" y="718" on="1"/>
        <pt x="567" y="718" on="0"/>
        <pt x="683" y="621" on="0"/>
        <pt x="683" y="444" on="0"/>
        <pt x="592" y="328" on="0"/>
        <pt x="507" y="306" on="1"/>
        <pt x="525" y="291" on="0"/>
        <pt x="544" y="239" on="1"/>
        <pt x="605" y="75" on="1"/>
        <pt x="665" y="75" on="1"/>
        <pt x="678" y="75" on="0"/>
        <pt x="676" y="63" on="1"/>
        <pt x="669" y="12" on="1"/>
        <pt x="668" y="0" on="0"/>
      </contour>
      <contour>
        <pt x="403" y="360" on="1"/>
        <pt x="595" y="360" on="0"/>
        <pt x="595" y="522" on="1"/>
        <pt x="595" y="643" on="0"/>
        <pt x="442" y="643" on="1"/>
        <pt x="315" y="643" on="1"/>
        <pt x="275" y="360" on="1"/>
      </contour>
    </TTGlyph>
    <TTGlyph name="Racute" xMin="50" yMin="0" xMax="683" yMax="995">
      <contour>
        <pt x="573" y="932" on="1"/>
        <pt x="387" y="798" on="1"/>
        <pt x="374" y="791" on="0"/>
        <pt x="367" y="801" on="1"/>
        <pt x="347" y="830" on="1"/>
        <pt x="339" y="839" on="0"/>
        <pt x="352" y="849" on="1"/>
        <pt x="532" y="990" on="1"/>
        <pt x="537" y="994" on="0"/>
        <pt x="541" y="994" on="1"/>
        <pt x="552" y="989" on="1"/>
        <pt x="577" y="951" on="1"/>
        <pt x="585" y="942" on="0"/>
      </contour>
      <contour>
        <pt x="655" y="0" on="1"/>
        <pt x="568" y="0" on="1"/>
        <pt x="532" y="0" on="0"/>
        <pt x="516" y="48" on="1"/>
        <pt x="448" y="239" on="1"/>
        <pt x="439" y="265" on="0"/>
        <pt x="416" y="289" on="0"/>
        <pt x="392" y="289" on="1"/>
        <pt x="265" y="289" on="1"/>
        <pt x="235" y="75" on="1"/>
        <pt x="324" y="75" on="1"/>
        <pt x="336" y="75" on="0"/>
        <pt x="335" y="63" on="1"/>
        <pt x="328" y="12" on="1"/>
        <pt x="326" y="0" on="0"/>
        <pt x="314" y="0" on="1"/>
        <pt x="61" y="0" on="1"/>
        <pt x="48" y="0" on="0"/>
        <pt x="50" y="12" on="1"/>
        <pt x="57" y="63" on="1"/>
        <pt x="58" y="75" on="0"/>
        <pt x="71" y="75" on="1"/>
        <pt x="148" y="75" on="1"/>
        <pt x="228" y="643" on="1"/>
        <pt x="151" y="643" on="1"/>
        <pt x="140" y="643" on="0"/>
        <pt x="141" y="655" on="1"/>
        <pt x="148" y="706" on="1"/>
        <pt x="150" y="718" on="0"/>
        <pt x="162" y="718" on="1"/>
        <pt x="470" y="718" on="1"/>
        <pt x="567" y="718" on="0"/>
        <pt x="683" y="621" on="0"/>
        <pt x="683" y="444" on="0"/>
        <pt x="592" y="328" on="0"/>
        <pt x="507" y="306" on="1"/>
        <pt x="525" y="291" on="0"/>
        <pt x="544" y="239" on="1"/>
        <pt x="605" y="75" on="1"/>
        <pt x="665" y="75" on="1"/>
        <pt x="678" y="75" on="0"/>
        <pt x="676" y="63" on="1"/>
        <pt x="669" y="12" on="1"/>
        <pt x="668" y="0" on="0"/>
      </contour>
      <contour>
        <pt x="403" y="360" on="1"/>
        <pt x="595" y="360" on="0"/>
        <pt x="595" y="522" on="1"/>
        <pt x="595" y="643" on="0"/>
        <pt x="442" y="643" on="1"/>
        <pt x="315" y="643" on="1"/>
        <pt x="275" y="360" on="1"/>
      </contour>
    </TTGlyph>
    <TTGlyph name="Rcaron" xMin="50" yMin="0" xMax="683" yMax="992">
      <contour>
        <pt x="455" y="804" on="1"/>
        <pt x="450" y="799" on="0"/>
        <pt x="439" y="799" on="0"/>
        <pt x="435" y="803" on="1"/>
        <pt x="300" y="939" on="1"/>
        <pt x="290" y="947" on="0"/>
        <pt x="299" y="958" on="1"/>
        <pt x="329" y="986" on="1"/>
        <pt x="334" y="992" on="0"/>
        <pt x="344" y="992" on="0"/>
        <pt x="348" y="988" on="1"/>
        <pt x="455" y="883" on="1"/>
        <pt x="594" y="988" on="1"/>
        <pt x="599" y="992" on="0"/>
        <pt x="609" y="992" on="0"/>
        <pt x="613" y="986" on="1"/>
        <pt x="633" y="958" on="1"/>
        <pt x="638" y="948" on="0"/>
        <pt x="629" y="939" on="1"/>
      </contour>
      <contour>
        <pt x="655" y="0" on="1"/>
        <pt x="568" y="0" on="1"/>
        <pt x="532" y="0" on="0"/>
        <pt x="516" y="48" on="1"/>
        <pt x="448" y="239" on="1"/>
        <pt x="439" y="265" on="0"/>
        <pt x="416" y="289" on="0"/>
        <pt x="392" y="289" on="1"/>
        <pt x="265" y="289" on="1"/>
        <pt x="235" y="75" on="1"/>
        <pt x="324" y="75" on="1"/>
        <pt x="336" y="75" on="0"/>
        <pt x="335" y="63" on="1"/>
        <pt x="328" y="12" on="1"/>
        <pt x="326" y="0" on="0"/>
        <pt x="314" y="0" on="1"/>
        <pt x="61" y="0" on="1"/>
        <pt x="48" y="0" on="0"/>
        <pt x="50" y="12" on="1"/>
        <pt x="57" y="63" on="1"/>
        <pt x="58" y="75" on="0"/>
        <pt x="71" y="75" on="1"/>
        <pt x="148" y="75" on="1"/>
        <pt x="228" y="643" on="1"/>
        <pt x="151" y="643" on="1"/>
        <pt x="140" y="643" on="0"/>
        <pt x="141" y="655" on="1"/>
        <pt x="148" y="706" on="1"/>
        <pt x="150" y="718" on="0"/>
        <pt x="162" y="718" on="1"/>
        <pt x="470" y="718" on="1"/>
        <pt x="567" y="718" on="0"/>
        <pt x="683" y="621" on="0"/>
        <pt x="683" y="444" on="0"/>
        <pt x="592" y="328" on="0"/>
        <pt x="507" y="306" on="1"/>
        <pt x="525" y="291" on="0"/>
        <pt x="544" y="239" on="1"/>
        <pt x="605" y="75" on="1"/>
        <pt x="665" y="75" on="1"/>
        <pt x="678" y="75" on="0"/>
        <pt x="676" y="63" on="1"/>
        <pt x="669" y="12" on="1"/>
        <pt x="668" y="0" on="0"/>
      </contour>
      <contour>
        <pt x="403" y="360" on="1"/>
        <pt x="595" y="360" on="0"/>
        <pt x="595" y="522" on="1"/>
        <pt x="595" y="643" on="0"/>
        <pt x="442" y="643" on="1"/>
        <pt x="315" y="643" on="1"/>
        <pt x="275" y="360" on="1"/>
      </contour>
    </TTGlyph>
    <TTGlyph name="Rcommaaccent" xMin="50" yMin="-228" xMax="683" yMax="718">
      <contour>
        <pt x="282" y="-205" on="1"/>
        <pt x="284" y="-199" on="0"/>
        <pt x="307" y="-199" on="0"/>
        <pt x="338" y="-169" on="0"/>
        <pt x="338" y="-141" on="1"/>
        <pt x="337" y="-135" on="1"/>
        <pt x="331" y="-140" on="0"/>
        <pt x="302" y="-140" on="0"/>
        <pt x="281" y="-118" on="0"/>
        <pt x="281" y="-78" on="0"/>
        <pt x="313" y="-46" on="0"/>
        <pt x="335" y="-46" on="1"/>
        <pt x="381" y="-46" on="0"/>
        <pt x="381" y="-165" on="0"/>
        <pt x="327" y="-228" on="0"/>
        <pt x="286" y="-228" on="1"/>
        <pt x="279" y="-228" on="0"/>
        <pt x="279" y="-222" on="1"/>
      </contour>
      <contour>
        <pt x="655" y="0" on="1"/>
        <pt x="568" y="0" on="1"/>
        <pt x="532" y="0" on="0"/>
        <pt x="516" y="48" on="1"/>
        <pt x="448" y="239" on="1"/>
        <pt x="439" y="265" on="0"/>
        <pt x="416" y="289" on="0"/>
        <pt x="392" y="289" on="1"/>
        <pt x="265" y="289" on="1"/>
        <pt x="235" y="75" on="1"/>
        <pt x="324" y="75" on="1"/>
        <pt x="336" y="75" on="0"/>
        <pt x="335" y="63" on="1"/>
        <pt x="328" y="12" on="1"/>
        <pt x="326" y="0" on="0"/>
        <pt x="314" y="0" on="1"/>
        <pt x="61" y="0" on="1"/>
        <pt x="48" y="0" on="0"/>
        <pt x="50" y="12" on="1"/>
        <pt x="57" y="63" on="1"/>
        <pt x="58" y="75" on="0"/>
        <pt x="71" y="75" on="1"/>
        <pt x="148" y="75" on="1"/>
        <pt x="228" y="643" on="1"/>
        <pt x="151" y="643" on="1"/>
        <pt x="140" y="643" on="0"/>
        <pt x="141" y="655" on="1"/>
        <pt x="148" y="706" on="1"/>
        <pt x="150" y="718" on="0"/>
        <pt x="162" y="718" on="1"/>
        <pt x="470" y="718" on="1"/>
        <pt x="567" y="718" on="0"/>
        <pt x="683" y="621" on="0"/>
        <pt x="683" y="444" on="0"/>
        <pt x="592" y="328" on="0"/>
        <pt x="507" y="306" on="1"/>
        <pt x="525" y="291" on="0"/>
        <pt x="544" y="239" on="1"/>
        <pt x="605" y="75" on="1"/>
        <pt x="665" y="75" on="1"/>
        <pt x="678" y="75" on="0"/>
        <pt x="676" y="63" on="1"/>
        <pt x="669" y="12" on="1"/>
        <pt x="668" y="0" on="0"/>
      </contour>
      <contour>
        <pt x="403" y="360" on="1"/>
        <pt x="595" y="360" on="0"/>
        <pt x="595" y="522" on="1"/>
        <pt x="595" y="643" on="0"/>
        <pt x="442" y="643" on="1"/>
        <pt x="315" y="643" on="1"/>
        <pt x="275" y="360" on="1"/>
      </contour>
    </TTGlyph>
    <TTGlyph name="S" xMin="50" yMin="-7" xMax="681" yMax="724">
      <contour>
        <pt x="117" y="0" on="1"/>
        <pt x="61" y="0" on="1"/>
        <pt x="48" y="0" on="0"/>
        <pt x="50" y="12" on="1"/>
        <pt x="83" y="246" on="1"/>
        <pt x="85" y="259" on="0"/>
        <pt x="97" y="259" on="1"/>
        <pt x="160" y="259" on="1"/>
        <pt x="173" y="259" on="0"/>
        <pt x="171" y="246" on="1"/>
        <pt x="168" y="225" on="1"/>
        <pt x="165" y="207" on="0"/>
        <pt x="202" y="143" on="0"/>
        <pt x="243" y="103" on="0"/>
        <pt x="316" y="74" on="0"/>
        <pt x="361" y="74" on="1"/>
        <pt x="445" y="74" on="0"/>
        <pt x="543" y="145" on="0"/>
        <pt x="543" y="207" on="1"/>
        <pt x="543" y="263" on="0"/>
        <pt x="464" y="290" on="1"/>
        <pt x="428" y="303" on="0"/>
        <pt x="343" y="324" on="0"/>
        <pt x="258" y="352" on="0"/>
        <pt x="187" y="391" on="0"/>
        <pt x="143" y="460" on="0"/>
        <pt x="143" y="507" on="1"/>
        <pt x="143" y="599" on="0"/>
        <pt x="289" y="724" on="0"/>
        <pt x="406" y="724" on="1"/>
        <pt x="543" y="724" on="0"/>
        <pt x="593" y="645" on="1"/>
        <pt x="600" y="707" on="1"/>
        <pt x="602" y="719" on="0"/>
        <pt x="614" y="719" on="1"/>
        <pt x="671" y="719" on="1"/>
        <pt x="682" y="719" on="0"/>
        <pt x="681" y="707" on="1"/>
        <pt x="651" y="489" on="1"/>
        <pt x="648" y="477" on="0"/>
        <pt x="636" y="477" on="1"/>
        <pt x="573" y="477" on="1"/>
        <pt x="562" y="477" on="0"/>
        <pt x="563" y="489" on="1"/>
        <pt x="567" y="517" on="1"/>
        <pt x="568" y="522" on="0"/>
        <pt x="568" y="526" on="1"/>
        <pt x="568" y="563" on="0"/>
        <pt x="493" y="642" on="0"/>
        <pt x="332" y="642" on="0"/>
        <pt x="239" y="571" on="0"/>
        <pt x="239" y="475" on="0"/>
        <pt x="323" y="423" on="0"/>
        <pt x="443" y="394" on="0"/>
        <pt x="563" y="358" on="0"/>
        <pt x="647" y="278" on="0"/>
        <pt x="647" y="216" on="1"/>
        <pt x="647" y="123" on="0"/>
        <pt x="504" y="-7" on="0"/>
        <pt x="366" y="-7" on="1"/>
        <pt x="274" y="-7" on="0"/>
        <pt x="165" y="67" on="0"/>
        <pt x="144" y="110" on="1"/>
        <pt x="131" y="12" on="1"/>
        <pt x="130" y="0" on="0"/>
      </contour>
    </TTGlyph>
    <TTGlyph name="Sacute" xMin="50" yMin="-7" xMax="681" yMax="995">
      <contour>
        <pt x="590" y="932" on="1"/>
        <pt x="404" y="798" on="1"/>
        <pt x="391" y="791" on="0"/>
        <pt x="384" y="801" on="1"/>
        <pt x="364" y="830" on="1"/>
        <pt x="356" y="839" on="0"/>
        <pt x="369" y="849" on="1"/>
        <pt x="549" y="990" on="1"/>
        <pt x="554" y="994" on="0"/>
        <pt x="558" y="994" on="1"/>
        <pt x="569" y="989" on="1"/>
        <pt x="594" y="951" on="1"/>
        <pt x="602" y="942" on="0"/>
      </contour>
      <contour>
        <pt x="117" y="0" on="1"/>
        <pt x="61" y="0" on="1"/>
        <pt x="48" y="0" on="0"/>
        <pt x="50" y="12" on="1"/>
        <pt x="83" y="246" on="1"/>
        <pt x="85" y="259" on="0"/>
        <pt x="97" y="259" on="1"/>
        <pt x="160" y="259" on="1"/>
        <pt x="173" y="259" on="0"/>
        <pt x="171" y="246" on="1"/>
        <pt x="168" y="225" on="1"/>
        <pt x="165" y="207" on="0"/>
        <pt x="202" y="143" on="0"/>
        <pt x="243" y="103" on="0"/>
        <pt x="316" y="74" on="0"/>
        <pt x="361" y="74" on="1"/>
        <pt x="445" y="74" on="0"/>
        <pt x="543" y="145" on="0"/>
        <pt x="543" y="207" on="1"/>
        <pt x="543" y="263" on="0"/>
        <pt x="464" y="290" on="1"/>
        <pt x="428" y="303" on="0"/>
        <pt x="343" y="324" on="0"/>
        <pt x="258" y="352" on="0"/>
        <pt x="187" y="391" on="0"/>
        <pt x="143" y="460" on="0"/>
        <pt x="143" y="507" on="1"/>
        <pt x="143" y="599" on="0"/>
        <pt x="289" y="724" on="0"/>
        <pt x="406" y="724" on="1"/>
        <pt x="543" y="724" on="0"/>
        <pt x="593" y="645" on="1"/>
        <pt x="600" y="707" on="1"/>
        <pt x="602" y="719" on="0"/>
        <pt x="614" y="719" on="1"/>
        <pt x="671" y="719" on="1"/>
        <pt x="682" y="719" on="0"/>
        <pt x="681" y="707" on="1"/>
        <pt x="651" y="489" on="1"/>
        <pt x="648" y="477" on="0"/>
        <pt x="636" y="477" on="1"/>
        <pt x="573" y="477" on="1"/>
        <pt x="562" y="477" on="0"/>
        <pt x="563" y="489" on="1"/>
        <pt x="567" y="517" on="1"/>
        <pt x="568" y="522" on="0"/>
        <pt x="568" y="526" on="1"/>
        <pt x="568" y="563" on="0"/>
        <pt x="493" y="642" on="0"/>
        <pt x="332" y="642" on="0"/>
        <pt x="239" y="571" on="0"/>
        <pt x="239" y="475" on="0"/>
        <pt x="323" y="423" on="0"/>
        <pt x="443" y="394" on="0"/>
        <pt x="563" y="358" on="0"/>
        <pt x="647" y="278" on="0"/>
        <pt x="647" y="216" on="1"/>
        <pt x="647" y="123" on="0"/>
        <pt x="504" y="-7" on="0"/>
        <pt x="366" y="-7" on="1"/>
        <pt x="274" y="-7" on="0"/>
        <pt x="165" y="67" on="0"/>
        <pt x="144" y="110" on="1"/>
        <pt x="131" y="12" on="1"/>
        <pt x="130" y="0" on="0"/>
      </contour>
    </TTGlyph>
</ttFont>
